<svg width="317" height="106" viewBox="0 0 317 106" fill="none" xmlns="http://www.w3.org/2000/svg">
<path d="M314.819 37.2237C315.449 43.4087 312.095 49.9768 304.848 56.6155C297.627 63.231 286.764 69.6968 272.996 75.6269C245.476 87.4797 206.672 97.0549 163.118 101.495C119.564 105.934 79.6255 104.386 50.2803 98.3296C35.5986 95.2996 23.6548 91.1586 15.2469 86.1363C6.80937 81.0964 2.19891 75.3402 1.56843 69.1552C0.937949 62.9701 4.29213 56.4021 11.5392 49.7633C18.7608 43.1478 29.6233 36.682 43.3917 30.752C70.9114 18.8991 109.716 9.32389 153.27 4.88416C196.824 0.444436 236.762 1.99301 266.107 8.04924C280.789 11.0792 292.732 15.2202 301.14 20.2425C309.578 25.2824 314.188 31.0386 314.819 37.2237Z" stroke="#F6B400" stroke-width="3"/>
</svg>
