<svg width="158" height="157" viewBox="0 0 158 157" fill="none" xmlns="http://www.w3.org/2000/svg">
<line y1="-2.5" x2="115.4" y2="-2.5" transform="matrix(0.138648 0.990342 -0.973236 0.229808 135.726 15.5845)" stroke="#F7F7F5" stroke-width="5"/>
<line y1="-2.5" x2="113.41" y2="-2.5" transform="matrix(-0.273345 0.961916 -0.901775 -0.432205 33.7256 15.5845)" stroke="#F7F7F5" stroke-width="5"/>
<line y1="-1" x2="115.911" y2="-1" transform="matrix(-0.267447 0.963573 -0.905672 -0.423978 31.7255 18.1816)" stroke="#798E7F" stroke-width="2"/>
<path d="M141.725 18.8312C141.725 21.0011 140.431 23.2211 137.738 25.3811C135.055 27.5335 131.111 29.5161 126.149 31.1998C116.234 34.5639 102.472 36.6623 87.2255 36.6623C71.9786 36.6623 58.2172 34.5639 48.3023 31.1998C43.3399 29.5161 39.3959 27.5335 36.7127 25.3811C34.0201 23.2211 32.7255 21.0011 32.7255 18.8312C32.7255 16.6612 34.0201 14.4412 36.7127 12.2813C39.3959 10.1288 43.3399 8.14625 48.3023 6.46249C58.2172 3.09838 71.9786 1 87.2255 1C102.472 1 116.234 3.09838 126.149 6.46249C131.111 8.14625 135.055 10.1288 137.738 12.2813C140.431 14.4412 141.725 16.6612 141.725 18.8312Z" fill="#F7F7F5" stroke="#798E7F" stroke-width="2"/>
<path d="M142.216 19.2563L155.241 124.226" stroke="#798E7F" stroke-width="2"/>
<path d="M32.8484 18.6724C33.2721 16.8635 34.8853 15.5845 36.7431 15.5845H137.022C139.079 15.5845 140.802 17.146 141.002 19.1942L150.972 120.883C151.288 124.112 147.831 126.354 145.012 124.749L133.534 118.215C133.354 118.112 133.167 118.024 132.974 117.951L106.341 107.843C105.833 107.65 105.292 107.563 104.749 107.586L45.3767 110.147C44.8952 110.168 44.4215 110.275 43.9783 110.464L14.9927 122.841C11.9781 124.128 8.77988 121.442 9.52736 118.25L32.8484 18.6724Z" fill="#F7F7F5"/>
<path d="M156.508 130.873C156.508 136.533 155.49 140.811 153.402 144.081C151.323 147.338 148.111 149.707 143.498 151.417C134.184 154.868 119.495 155.522 97.963 155.522C73.0013 155.522 54.4198 155.053 40.5875 154.109C26.74 153.163 17.7146 151.744 11.8308 149.871C5.96077 148.001 3.37891 145.732 2.16575 143.188C0.990937 140.725 0.995728 137.851 1.00175 134.237C1.00219 133.974 1.00263 133.708 1.00263 133.438C1.00263 129.928 2.8756 126.468 6.55489 123.204C10.2344 119.94 15.6367 116.954 22.4559 114.425C36.0872 109.372 55.171 106.224 76.8343 106.224C98.5937 106.224 118.648 106.869 133.248 110.365C140.548 112.112 146.382 114.55 150.377 117.894C154.33 121.203 156.508 125.417 156.508 130.873Z" fill="#F7F7F5" stroke="#798E7F" stroke-width="2"/>
<path d="M98.8838 46.2306C98.8838 57.1783 91.4381 65.7499 82.5967 65.7499C73.7553 65.7499 66.3096 57.1783 66.3096 46.2306C66.3096 35.283 73.7553 26.7114 82.5967 26.7114C91.4381 26.7114 98.8838 35.283 98.8838 46.2306Z" fill="#F7F7F5" stroke="#FFB200" stroke-width="2"/>
<path d="M75.8344 56.49C75.8344 64.4385 69.4009 70.8794 61.468 70.8794C53.5351 70.8794 47.1017 64.4385 47.1017 56.49C47.1017 48.5415 53.5351 42.1006 61.468 42.1006C69.4009 42.1006 75.8344 48.5415 75.8344 56.49Z" fill="#F7F7F5" stroke="#FFB200" stroke-width="2"/>
<path d="M114.25 59.055C114.25 65.5414 108.723 70.8795 101.805 70.8795C94.8861 70.8795 89.3591 65.5414 89.3591 59.055C89.3591 52.5685 94.8861 47.2305 101.805 47.2305C108.723 47.2305 114.25 52.5685 114.25 59.055Z" fill="#F7F7F5" stroke="#FFB200" stroke-width="2"/>
<path d="M65.7256 69.3799H80.676H98.2256" stroke="#FFB200" stroke-width="3"/>
<rect x="59.7256" y="54.5454" width="48" height="14.2857" rx="3" fill="#F7F7F5"/>
<ellipse cx="82.7256" cy="55.1946" rx="14" ry="12.3377" fill="#F7F7F5"/>
<rect x="31.2354" y="128.808" width="37.4158" height="9.25961" rx="4.5" fill="#798E7F" stroke="#798E7F"/>
<rect x="92.7007" y="128.808" width="6.68317" height="9.25961" rx="3.34158" fill="#798E7F" stroke="#798E7F"/>
<rect x="115.75" y="128.808" width="6.68317" height="9.25961" rx="3.34158" fill="#798E7F" stroke="#798E7F"/>
</svg>
