<svg width="299" height="252" viewBox="0 0 299 252" fill="none" xmlns="http://www.w3.org/2000/svg">
<rect x="299" y="50" width="50" height="50" transform="rotate(180 299 50)" fill="#798E7F"/>
<rect x="249" y="50" width="50" height="50" transform="rotate(180 249 50)" fill="#798E7F"/>
<rect x="99.9998" y="50" width="50" height="50" transform="rotate(180 99.9998 50)" fill="#798E7F"/>
<rect x="249" y="150" width="50" height="50" transform="rotate(180 249 150)" fill="#798E7F"/>
<rect x="299" y="202" width="50" height="50" transform="rotate(180 299 202)" fill="#798E7F"/>
<rect x="148" y="100" width="50" height="50" transform="rotate(180 148 100)" fill="#798E7F"/>
<rect x="50" y="50" width="50" height="50" transform="rotate(180 50 50)" fill="#798E7F"/>
<rect x="198" y="252" width="50" height="50" transform="rotate(180 198 252)" fill="#798E7F"/>
<rect x="299" y="100" width="50" height="50" transform="rotate(180 299 100)" fill="#798E7F"/>
</svg>
