<?xml version="1.0" encoding="UTF-8"?><svg id="Layer_1" xmlns="http://www.w3.org/2000/svg" width="156" height="227" viewBox="0 0 156 227"><defs><style>.cls-1{stroke-width:3px;}.cls-1,.cls-2,.cls-3{stroke:#798e7f;}.cls-1,.cls-2,.cls-3,.cls-4{fill:none;stroke-miterlimit:10;}.cls-2{stroke-width:2px;}.cls-4{stroke:#ffbb02;}</style></defs><path class="cls-1" d="M41.5,81.5v54c-.12.66-.24,1.73,0,3,.42,2.24,1.66,3.63,2,4,.43.46,1.41,1.49,3,2,1.42.46,2.2.13,5,0,1.33-.06,2.67,0,4,0h56c2.33,0,4.69-.35,7,0,1.2.18,2.44.47,4,0,.43-.13,1.98-.62,3-2,1.15-1.56,1.03-3.44,1-4-.17-3.44-.1-23.84,0-52h-60l-5.38-5h-19.62Z"/><polyline class="cls-2" points="53 80.5 53 55.31 120.15 55.31 120.15 86.33"/><line class="cls-3" x1="88" y1="64.5" x2="113" y2="64.5"/><line class="cls-3" x1="88" y1="70.5" x2="113" y2="70.5"/><line class="cls-3" x1="88" y1="76.5" x2="113" y2="76.5"/><rect class="cls-2" x="67.28" y="110" width="28.72" height="21.26" rx="6" ry="6"/><path class="cls-2" d="M78,110c-.1-.23-.63-1.54,0-3,.58-1.36,1.76-1.9,2-2,1.47-.63,2.78-.09,3,0,.24.1,1.42.64,2,2,.63,1.46.1,2.77,0,3"/><path class="cls-2" d="M72.62,110.14c-.24-.52-1.58-3.52,0-6.87,1.47-3.12,4.42-4.34,5.03-4.58,3.7-1.44,7-.21,7.55,0,.61.24,3.57,1.46,5.03,4.58,1.58,3.35.24,6.35,0,6.87"/><ellipse class="cls-4" cx="81.5" cy="119" rx="3.5" ry="3"/><line class="cls-4" x1="81.5" y1="122" x2="81.5" y2="126.5"/><line class="cls-4" x1="82" y1="125" x2="84" y2="125"/></svg>