<?xml version="1.0" encoding="UTF-8"?><svg id="Layer_1" xmlns="http://www.w3.org/2000/svg" width="180" height="180" viewBox="0 0 180 180"><defs><style>.cls-1{stroke:#ffbb02;}.cls-1,.cls-2{stroke-width:3px;}.cls-1,.cls-2,.cls-3{fill:none;stroke-miterlimit:10;}.cls-2,.cls-3{stroke:#798e7f;}.cls-3{stroke-width:4px;}</style></defs><path class="cls-3" d="M15.44,55.08v105.29c-.22,1.29-.43,3.37,0,5.85.76,4.36,3,7.09,3.61,7.8.78.9,2.56,2.91,5.42,3.9,2.56.89,3.97.26,9.03,0,2.41-.12,4.82,0,7.23,0h101.15c4.21,0,8.48-.68,12.64,0,2.16.35,4.41.91,7.23,0,.78-.25,3.58-1.2,5.42-3.9,2.07-3.04,1.86-6.71,1.81-7.8-.3-6.7-.18-46.48,0-101.39H60.59l-9.72-9.75H15.44Z"/><polyline class="cls-3" points="36.21 53.13 36.21 4 157.49 4 157.49 64.49"/><line class="cls-2" x1="99.43" y1="21.93" x2="144.58" y2="21.93"/><line class="cls-2" x1="99.43" y1="33.63" x2="144.58" y2="33.63"/><line class="cls-2" x1="99.43" y1="45.33" x2="144.58" y2="45.33"/><rect class="cls-2" x="62.01" y="110.65" width="51.87" height="41.45" rx="6" ry="6"/><path class="cls-2" d="M81.36,110.65c-.17-.44-1.13-3,0-5.85,1.05-2.66,3.17-3.7,3.61-3.9,2.66-1.23,5.03-.18,5.42,0,.44.2,2.56,1.24,3.61,3.9,1.13,2.85.17,5.41,0,5.85"/><path class="cls-2" d="M71.65,110.93c-.44-1.01-2.85-6.86,0-13.4,2.65-6.09,7.99-8.47,9.09-8.93,6.68-2.81,12.65-.42,13.64,0,1.1.46,6.44,2.85,9.09,8.93,2.85,6.54.44,12.38,0,13.4"/><ellipse class="cls-1" cx="87.69" cy="128.2" rx="6.32" ry="5.85"/><line class="cls-1" x1="87.69" y1="134.05" x2="87.69" y2="142.82"/><line class="cls-1" x1="88.59" y1="139.9" x2="92.2" y2="139.9"/></svg>