<svg width="550" height="383" viewBox="0 0 550 383" fill="none" xmlns="http://www.w3.org/2000/svg">
<rect y="0.0146484" width="549.511" height="382.43" fill="#F7F7F5"/>
<path d="M177.85 36.0146H175.327V23.0596H179.265L181.62 33.2461L183.958 23.0596H187.852V36.0146H185.329V27.252C185.329 27 185.332 26.6484 185.338 26.1973C185.344 25.7402 185.347 25.3887 185.347 25.1426L182.895 36.0146H180.267L177.832 25.1426C177.832 25.3887 177.835 25.7402 177.841 26.1973C177.847 26.6484 177.85 27 177.85 27.252V36.0146ZM192.844 36.3398C191.66 36.3398 190.805 36.0527 190.277 35.4785C189.75 34.9043 189.486 34.2188 189.486 33.4219C189.486 32.3379 189.888 31.5469 190.69 31.0488C191.136 30.7793 191.812 30.5742 192.721 30.4336L194.259 30.2051C194.657 30.1465 194.947 30.0674 195.129 29.9678C195.41 29.8154 195.551 29.5869 195.551 29.2822C195.551 28.8193 195.316 28.5029 194.848 28.333C194.596 28.2451 194.259 28.2012 193.837 28.2012C193.192 28.2012 192.744 28.3828 192.492 28.7461C192.357 28.9395 192.281 29.2119 192.264 29.5635H189.82C189.885 28.2451 190.433 27.3135 191.464 26.7686C192.149 26.4053 193.022 26.2236 194.083 26.2236C194.839 26.2236 195.507 26.3525 196.087 26.6104C196.409 26.751 196.746 26.9648 197.098 27.252C197.455 26.9473 197.865 26.7012 198.328 26.5137C198.791 26.3203 199.327 26.2236 199.937 26.2236C201.882 26.2236 203.197 27.0234 203.883 28.623C204.246 29.4727 204.413 30.5479 204.384 31.8486H197.827C197.827 32.5107 197.906 33.0176 198.064 33.3691C198.357 34.0137 198.92 34.3359 199.752 34.3359C200.221 34.3359 200.628 34.2568 200.974 34.0986C201.319 33.9346 201.574 33.6152 201.738 33.1406H204.278C204.208 33.7266 203.918 34.3125 203.408 34.8984C202.57 35.8535 201.381 36.3311 199.84 36.3311C199.049 36.3311 198.369 36.1816 197.801 35.8828C197.238 35.584 196.802 35.2002 196.491 34.7314C196.058 35.2881 195.536 35.6953 194.927 35.9531C194.323 36.2109 193.629 36.3398 192.844 36.3398ZM194.619 34.2393C195.229 33.8994 195.533 33.2842 195.533 32.3936V31.4355C195.41 31.5234 195.299 31.5879 195.199 31.6289C195.1 31.6641 194.877 31.7168 194.531 31.7871L193.573 31.9805C193.022 32.0918 192.653 32.2119 192.466 32.3408C192.149 32.5518 191.991 32.9004 191.991 33.3867C191.991 33.6621 192.094 33.9199 192.299 34.1602C192.504 34.4004 192.853 34.5205 193.345 34.5205C193.854 34.5205 194.279 34.4268 194.619 34.2393ZM197.862 30.2314H201.782C201.741 29.6162 201.565 29.127 201.255 28.7637C200.944 28.3945 200.476 28.21 199.849 28.21C199.216 28.21 198.735 28.377 198.407 28.7109C198.079 29.0391 197.897 29.5459 197.862 30.2314ZM210.686 28.2891C209.836 28.2891 209.253 28.6494 208.937 29.3701C208.772 29.751 208.69 30.2373 208.69 30.8291V36.0146H206.194V26.4521H208.611V27.8496C208.934 27.3574 209.238 27.0029 209.525 26.7861C210.041 26.3994 210.694 26.2061 211.485 26.2061C212.476 26.2061 213.284 26.4668 213.911 26.9883C214.544 27.5039 214.86 28.3623 214.86 29.5635V36.0146H212.294V30.1875C212.294 29.6836 212.227 29.2969 212.092 29.0273C211.846 28.5352 211.377 28.2891 210.686 28.2891ZM219.888 37.6934C220.157 37.9219 220.611 38.0361 221.25 38.0361C222.152 38.0361 222.756 37.7344 223.061 37.1309C223.26 36.7441 223.359 36.0938 223.359 35.1797V34.5645C223.119 34.9746 222.861 35.2822 222.586 35.4873C222.088 35.8682 221.44 36.0586 220.644 36.0586C219.413 36.0586 218.429 35.6279 217.69 34.7666C216.958 33.8994 216.592 32.7275 216.592 31.251C216.592 29.8271 216.946 28.6318 217.655 27.665C218.364 26.6924 219.369 26.2061 220.67 26.2061C221.15 26.2061 221.569 26.2793 221.927 26.4258C222.536 26.6777 223.028 27.1406 223.403 27.8145V26.4346H225.838V35.5225C225.838 36.7588 225.63 37.6904 225.214 38.3174C224.499 39.3955 223.128 39.9346 221.101 39.9346C219.876 39.9346 218.877 39.6943 218.104 39.2139C217.33 38.7334 216.902 38.0156 216.82 37.0605H219.545C219.615 37.3535 219.729 37.5645 219.888 37.6934ZM219.466 32.7451C219.806 33.5537 220.415 33.958 221.294 33.958C221.88 33.958 222.375 33.7383 222.779 33.2988C223.184 32.8535 223.386 32.1475 223.386 31.1807C223.386 30.2725 223.192 29.5811 222.806 29.1064C222.425 28.6318 221.912 28.3945 221.268 28.3945C220.389 28.3945 219.782 28.8076 219.448 29.6338C219.272 30.0732 219.185 30.6152 219.185 31.2598C219.185 31.8164 219.278 32.3115 219.466 32.7451ZM236.903 23.0771V36.0146H234.469V34.6875C234.111 35.2559 233.704 35.6689 233.247 35.9268C232.79 36.1846 232.222 36.3135 231.542 36.3135C230.423 36.3135 229.479 35.8623 228.712 34.96C227.95 34.0518 227.569 32.8887 227.569 31.4707C227.569 29.8359 227.944 28.5498 228.694 27.6123C229.45 26.6748 230.458 26.2061 231.718 26.2061C232.298 26.2061 232.813 26.335 233.265 26.5928C233.716 26.8447 234.082 27.1963 234.363 27.6475V23.0771H236.903ZM230.153 31.2861C230.153 32.1709 230.329 32.877 230.681 33.4043C231.026 33.9375 231.554 34.2041 232.263 34.2041C232.972 34.2041 233.511 33.9404 233.88 33.4131C234.249 32.8857 234.434 32.2031 234.434 31.3652C234.434 30.1934 234.138 29.3555 233.546 28.8516C233.183 28.5469 232.761 28.3945 232.28 28.3945C231.548 28.3945 231.009 28.6729 230.663 29.2295C230.323 29.7803 230.153 30.4658 230.153 31.2861ZM247.389 33.2021C247.324 33.7705 247.028 34.3477 246.501 34.9336C245.681 35.8652 244.532 36.3311 243.056 36.3311C241.837 36.3311 240.762 35.9385 239.83 35.1533C238.898 34.3682 238.433 33.0908 238.433 31.3213C238.433 29.6631 238.852 28.3916 239.689 27.5068C240.533 26.6221 241.626 26.1797 242.968 26.1797C243.765 26.1797 244.482 26.3291 245.121 26.6279C245.76 26.9268 246.287 27.3984 246.703 28.043C247.078 28.6113 247.321 29.2705 247.433 30.0205C247.497 30.46 247.523 31.0928 247.512 31.9189H240.955C240.99 32.8799 241.292 33.5537 241.86 33.9404C242.206 34.1807 242.622 34.3008 243.108 34.3008C243.624 34.3008 244.043 34.1543 244.365 33.8613C244.541 33.7031 244.696 33.4834 244.831 33.2021H247.389ZM244.91 30.2666C244.869 29.6045 244.667 29.1035 244.304 28.7637C243.946 28.418 243.501 28.2451 242.968 28.2451C242.388 28.2451 241.937 28.4268 241.614 28.79C241.298 29.1533 241.099 29.6455 241.017 30.2666H244.91ZM253.717 28.2891C252.867 28.2891 252.284 28.6494 251.968 29.3701C251.804 29.751 251.722 30.2373 251.722 30.8291V36.0146H249.226V26.4521H251.643V27.8496C251.965 27.3574 252.27 27.0029 252.557 26.7861C253.072 26.3994 253.726 26.2061 254.517 26.2061C255.507 26.2061 256.315 26.4668 256.942 26.9883C257.575 27.5039 257.892 28.3623 257.892 29.5635V36.0146H255.325V30.1875C255.325 29.6836 255.258 29.2969 255.123 29.0273C254.877 28.5352 254.408 28.2891 253.717 28.2891ZM265.582 27.4717C266.244 26.6279 267.381 26.2061 268.992 26.2061C270.041 26.2061 270.973 26.4141 271.787 26.8301C272.602 27.2461 273.009 28.0312 273.009 29.1855V33.5801C273.009 33.8848 273.015 34.2539 273.026 34.6875C273.044 35.0156 273.094 35.2383 273.176 35.3555C273.258 35.4727 273.381 35.5693 273.545 35.6455V36.0146H270.82C270.744 35.8213 270.691 35.6396 270.662 35.4697C270.633 35.2998 270.609 35.1064 270.592 34.8896C270.246 35.2646 269.848 35.584 269.396 35.8477C268.857 36.1582 268.248 36.3135 267.568 36.3135C266.701 36.3135 265.983 36.0674 265.415 35.5752C264.853 35.0771 264.571 34.374 264.571 33.4658C264.571 32.2881 265.025 31.4355 265.934 30.9082C266.432 30.6211 267.164 30.416 268.131 30.293L268.983 30.1875C269.446 30.1289 269.777 30.0557 269.977 29.9678C270.334 29.8154 270.513 29.5781 270.513 29.2559C270.513 28.8633 270.375 28.5938 270.1 28.4473C269.83 28.2949 269.432 28.2188 268.904 28.2188C268.312 28.2188 267.894 28.3652 267.647 28.6582C267.472 28.875 267.354 29.168 267.296 29.5371H264.879C264.932 28.6992 265.166 28.0107 265.582 27.4717ZM267.445 34.2041C267.68 34.3975 267.967 34.4941 268.307 34.4941C268.846 34.4941 269.341 34.3359 269.792 34.0195C270.249 33.7031 270.486 33.126 270.504 32.2881V31.3564C270.346 31.4561 270.185 31.5381 270.021 31.6025C269.862 31.6611 269.643 31.7168 269.361 31.7695L268.799 31.875C268.271 31.9688 267.894 32.083 267.665 32.2178C267.278 32.4463 267.085 32.8008 267.085 33.2812C267.085 33.709 267.205 34.0166 267.445 34.2041ZM279.732 22.9805V25.0195C279.592 25.002 279.354 24.9902 279.021 24.9844C278.692 24.9727 278.464 25.0459 278.335 25.2041C278.212 25.3564 278.15 25.5264 278.15 25.7139V26.5225H279.794V28.2891H278.15V36.0146H275.654V28.2891H274.257V26.5225H275.628V25.9072C275.628 24.8818 275.801 24.1758 276.146 23.7891C276.51 23.2148 277.386 22.9277 278.774 22.9277C278.933 22.9277 279.076 22.9336 279.205 22.9453C279.334 22.9512 279.51 22.9629 279.732 22.9805ZM294.964 23.0771V36.0146H292.529V34.6875C292.172 35.2559 291.765 35.6689 291.308 35.9268C290.851 36.1846 290.282 36.3135 289.603 36.3135C288.483 36.3135 287.54 35.8623 286.772 34.96C286.011 34.0518 285.63 32.8887 285.63 31.4707C285.63 29.8359 286.005 28.5498 286.755 27.6123C287.511 26.6748 288.519 26.2061 289.778 26.2061C290.358 26.2061 290.874 26.335 291.325 26.5928C291.776 26.8447 292.143 27.1963 292.424 27.6475V23.0771H294.964ZM288.214 31.2861C288.214 32.1709 288.39 32.877 288.741 33.4043C289.087 33.9375 289.614 34.2041 290.323 34.2041C291.032 34.2041 291.571 33.9404 291.94 33.4131C292.31 32.8857 292.494 32.2031 292.494 31.3652C292.494 30.1934 292.198 29.3555 291.606 28.8516C291.243 28.5469 290.821 28.3945 290.341 28.3945C289.608 28.3945 289.069 28.6729 288.724 29.2295C288.384 29.7803 288.214 30.4658 288.214 31.2861ZM297.609 27.4717C298.271 26.6279 299.408 26.2061 301.02 26.2061C302.068 26.2061 303 26.4141 303.814 26.8301C304.629 27.2461 305.036 28.0312 305.036 29.1855V33.5801C305.036 33.8848 305.042 34.2539 305.054 34.6875C305.071 35.0156 305.121 35.2383 305.203 35.3555C305.285 35.4727 305.408 35.5693 305.572 35.6455V36.0146H302.848C302.771 35.8213 302.719 35.6396 302.689 35.4697C302.66 35.2998 302.637 35.1064 302.619 34.8896C302.273 35.2646 301.875 35.584 301.424 35.8477C300.885 36.1582 300.275 36.3135 299.596 36.3135C298.729 36.3135 298.011 36.0674 297.442 35.5752C296.88 35.0771 296.599 34.374 296.599 33.4658C296.599 32.2881 297.053 31.4355 297.961 30.9082C298.459 30.6211 299.191 30.416 300.158 30.293L301.011 30.1875C301.474 30.1289 301.805 30.0557 302.004 29.9678C302.361 29.8154 302.54 29.5781 302.54 29.2559C302.54 28.8633 302.402 28.5938 302.127 28.4473C301.857 28.2949 301.459 28.2188 300.932 28.2188C300.34 28.2188 299.921 28.3652 299.675 28.6582C299.499 28.875 299.382 29.168 299.323 29.5371H296.906C296.959 28.6992 297.193 28.0107 297.609 27.4717ZM299.473 34.2041C299.707 34.3975 299.994 34.4941 300.334 34.4941C300.873 34.4941 301.368 34.3359 301.819 34.0195C302.276 33.7031 302.514 33.126 302.531 32.2881V31.3564C302.373 31.4561 302.212 31.5381 302.048 31.6025C301.89 31.6611 301.67 31.7168 301.389 31.7695L300.826 31.875C300.299 31.9688 299.921 32.083 299.692 32.2178C299.306 32.4463 299.112 32.8008 299.112 33.2812C299.112 33.709 299.232 34.0166 299.473 34.2041ZM311.654 34.2305V36.1025L310.468 36.1465C309.284 36.1875 308.476 35.9824 308.042 35.5312C307.761 35.2441 307.62 34.8018 307.62 34.2041V28.3066H306.284V26.5225H307.62V23.8506H310.099V26.5225H311.654V28.3066H310.099V33.3691C310.099 33.7617 310.148 34.0078 310.248 34.1074C310.348 34.2012 310.652 34.248 311.162 34.248C311.238 34.248 311.317 34.248 311.399 34.248C311.487 34.2422 311.572 34.2363 311.654 34.2305ZM313.623 27.4717C314.285 26.6279 315.422 26.2061 317.033 26.2061C318.082 26.2061 319.014 26.4141 319.828 26.8301C320.643 27.2461 321.05 28.0312 321.05 29.1855V33.5801C321.05 33.8848 321.056 34.2539 321.067 34.6875C321.085 35.0156 321.135 35.2383 321.217 35.3555C321.299 35.4727 321.422 35.5693 321.586 35.6455V36.0146H318.861C318.785 35.8213 318.732 35.6396 318.703 35.4697C318.674 35.2998 318.65 35.1064 318.633 34.8896C318.287 35.2646 317.889 35.584 317.438 35.8477C316.898 36.1582 316.289 36.3135 315.609 36.3135C314.742 36.3135 314.024 36.0674 313.456 35.5752C312.894 35.0771 312.612 34.374 312.612 33.4658C312.612 32.2881 313.066 31.4355 313.975 30.9082C314.473 30.6211 315.205 30.416 316.172 30.293L317.024 30.1875C317.487 30.1289 317.818 30.0557 318.018 29.9678C318.375 29.8154 318.554 29.5781 318.554 29.2559C318.554 28.8633 318.416 28.5938 318.141 28.4473C317.871 28.2949 317.473 28.2188 316.945 28.2188C316.354 28.2188 315.935 28.3652 315.688 28.6582C315.513 28.875 315.396 29.168 315.337 29.5371H312.92C312.973 28.6992 313.207 28.0107 313.623 27.4717ZM315.486 34.2041C315.721 34.3975 316.008 34.4941 316.348 34.4941C316.887 34.4941 317.382 34.3359 317.833 34.0195C318.29 33.7031 318.527 33.126 318.545 32.2881V31.3564C318.387 31.4561 318.226 31.5381 318.062 31.6025C317.903 31.6611 317.684 31.7168 317.402 31.7695L316.84 31.875C316.312 31.9688 315.935 32.083 315.706 32.2178C315.319 32.4463 315.126 32.8008 315.126 33.2812C315.126 33.709 315.246 34.0166 315.486 34.2041ZM330.867 26.4346V36.0146H328.327V26.4346H330.867ZM330.867 22.9805V25.292H328.327V22.9805H330.867ZM345.703 36.0146H337.433V34.0635L342.346 28.4736H337.767V26.4346H345.536V28.5176L340.676 33.958H345.703V36.0146ZM355.512 33.2021C355.447 33.7705 355.151 34.3477 354.624 34.9336C353.804 35.8652 352.655 36.3311 351.179 36.3311C349.96 36.3311 348.885 35.9385 347.953 35.1533C347.021 34.3682 346.556 33.0908 346.556 31.3213C346.556 29.6631 346.975 28.3916 347.812 27.5068C348.656 26.6221 349.749 26.1797 351.091 26.1797C351.888 26.1797 352.605 26.3291 353.244 26.6279C353.883 26.9268 354.41 27.3984 354.826 28.043C355.201 28.6113 355.444 29.2705 355.556 30.0205C355.62 30.46 355.646 31.0928 355.635 31.9189H349.078C349.113 32.8799 349.415 33.5537 349.983 33.9404C350.329 34.1807 350.745 34.3008 351.231 34.3008C351.747 34.3008 352.166 34.1543 352.488 33.8613C352.664 33.7031 352.819 33.4834 352.954 33.2021H355.512ZM353.033 30.2666C352.992 29.6045 352.79 29.1035 352.427 28.7637C352.069 28.418 351.624 28.2451 351.091 28.2451C350.511 28.2451 350.06 28.4268 349.737 28.79C349.421 29.1533 349.222 29.6455 349.14 30.2666H353.033ZM361.717 34.2305V36.1025L360.53 36.1465C359.347 36.1875 358.538 35.9824 358.104 35.5312C357.823 35.2441 357.683 34.8018 357.683 34.2041V28.3066H356.347V26.5225H357.683V23.8506H360.161V26.5225H361.717V28.3066H360.161V33.3691C360.161 33.7617 360.211 34.0078 360.311 34.1074C360.41 34.2012 360.715 34.248 361.225 34.248C361.301 34.248 361.38 34.248 361.462 34.248C361.55 34.2422 361.635 34.2363 361.717 34.2305ZM367.711 34.2305V36.1025L366.524 36.1465C365.341 36.1875 364.532 35.9824 364.099 35.5312C363.817 35.2441 363.677 34.8018 363.677 34.2041V28.3066H362.341V26.5225H363.677V23.8506H366.155V26.5225H367.711V28.3066H366.155V33.3691C366.155 33.7617 366.205 34.0078 366.305 34.1074C366.404 34.2012 366.709 34.248 367.219 34.248C367.295 34.248 367.374 34.248 367.456 34.248C367.544 34.2422 367.629 34.2363 367.711 34.2305ZM369.68 27.4717C370.342 26.6279 371.479 26.2061 373.09 26.2061C374.139 26.2061 375.07 26.4141 375.885 26.8301C376.699 27.2461 377.106 28.0312 377.106 29.1855V33.5801C377.106 33.8848 377.112 34.2539 377.124 34.6875C377.142 35.0156 377.191 35.2383 377.273 35.3555C377.355 35.4727 377.479 35.5693 377.643 35.6455V36.0146H374.918C374.842 35.8213 374.789 35.6396 374.76 35.4697C374.73 35.2998 374.707 35.1064 374.689 34.8896C374.344 35.2646 373.945 35.584 373.494 35.8477C372.955 36.1582 372.346 36.3135 371.666 36.3135C370.799 36.3135 370.081 36.0674 369.513 35.5752C368.95 35.0771 368.669 34.374 368.669 33.4658C368.669 32.2881 369.123 31.4355 370.031 30.9082C370.529 30.6211 371.262 30.416 372.229 30.293L373.081 30.1875C373.544 30.1289 373.875 30.0557 374.074 29.9678C374.432 29.8154 374.61 29.5781 374.61 29.2559C374.61 28.8633 374.473 28.5938 374.197 28.4473C373.928 28.2949 373.529 28.2188 373.002 28.2188C372.41 28.2188 371.991 28.3652 371.745 28.6582C371.569 28.875 371.452 29.168 371.394 29.5371H368.977C369.029 28.6992 369.264 28.0107 369.68 27.4717ZM371.543 34.2041C371.777 34.3975 372.064 34.4941 372.404 34.4941C372.943 34.4941 373.438 34.3359 373.89 34.0195C374.347 33.7031 374.584 33.126 374.602 32.2881V31.3564C374.443 31.4561 374.282 31.5381 374.118 31.6025C373.96 31.6611 373.74 31.7168 373.459 31.7695L372.896 31.875C372.369 31.9688 371.991 32.083 371.763 32.2178C371.376 32.4463 371.183 32.8008 371.183 33.2812C371.183 33.709 371.303 34.0166 371.543 34.2041ZM384.542 36.2695C383.751 36.2695 383.115 36.1113 382.635 35.7949C382.348 35.6074 382.037 35.2793 381.703 34.8105V36.0146H379.251V23.0771H381.747V27.6826C382.063 27.2373 382.412 26.8975 382.793 26.6631C383.244 26.3701 383.818 26.2236 384.516 26.2236C385.775 26.2236 386.76 26.6777 387.469 27.5859C388.184 28.4941 388.541 29.666 388.541 31.1016C388.541 32.5898 388.189 33.8232 387.486 34.8018C386.783 35.7803 385.802 36.2695 384.542 36.2695ZM385.913 31.3652C385.913 30.6855 385.825 30.123 385.649 29.6777C385.315 28.834 384.7 28.4121 383.804 28.4121C382.896 28.4121 382.271 28.8252 381.932 29.6514C381.756 30.0908 381.668 30.6592 381.668 31.3564C381.668 32.1768 381.85 32.8564 382.213 33.3955C382.576 33.9346 383.13 34.2041 383.874 34.2041C384.519 34.2041 385.02 33.9434 385.377 33.4219C385.734 32.9004 385.913 32.2148 385.913 31.3652ZM394.236 33.501L396.214 26.4346H398.877L395.59 35.8564C394.957 37.6729 394.456 38.7979 394.087 39.2314C393.718 39.6709 392.979 39.8906 391.872 39.8906C391.649 39.8906 391.471 39.8877 391.336 39.8818C391.201 39.8818 390.999 39.873 390.729 39.8555V37.8516L391.046 37.8691C391.292 37.8809 391.526 37.8721 391.749 37.8428C391.972 37.8135 392.159 37.7461 392.312 37.6406C392.458 37.541 392.593 37.333 392.716 37.0166C392.845 36.7002 392.897 36.5068 392.874 36.4365L389.358 26.4346H392.145L394.236 33.501ZM404.748 34.2305V36.1025L403.562 36.1465C402.378 36.1875 401.569 35.9824 401.136 35.5312C400.854 35.2441 400.714 34.8018 400.714 34.2041V28.3066H399.378V26.5225H400.714V23.8506H403.192V26.5225H404.748V28.3066H403.192V33.3691C403.192 33.7617 403.242 34.0078 403.342 34.1074C403.441 34.2012 403.746 34.248 404.256 34.248C404.332 34.248 404.411 34.248 404.493 34.248C404.581 34.2422 404.666 34.2363 404.748 34.2305ZM414.557 33.2021C414.492 33.7705 414.196 34.3477 413.669 34.9336C412.849 35.8652 411.7 36.3311 410.224 36.3311C409.005 36.3311 407.93 35.9385 406.998 35.1533C406.066 34.3682 405.601 33.0908 405.601 31.3213C405.601 29.6631 406.02 28.3916 406.857 27.5068C407.701 26.6221 408.794 26.1797 410.136 26.1797C410.933 26.1797 411.65 26.3291 412.289 26.6279C412.928 26.9268 413.455 27.3984 413.871 28.043C414.246 28.6113 414.489 29.2705 414.601 30.0205C414.665 30.46 414.691 31.0928 414.68 31.9189H408.123C408.158 32.8799 408.46 33.5537 409.028 33.9404C409.374 34.1807 409.79 34.3008 410.276 34.3008C410.792 34.3008 411.211 34.1543 411.533 33.8613C411.709 33.7031 411.864 33.4834 411.999 33.2021H414.557ZM412.078 30.2666C412.037 29.6045 411.835 29.1035 411.472 28.7637C411.114 28.418 410.669 28.2451 410.136 28.2451C409.556 28.2451 409.104 28.4268 408.782 28.79C408.466 29.1533 408.267 29.6455 408.185 30.2666H412.078Z" fill="#23483B"/>
<path d="M388.608 359.859H389.366V362.656L392.163 359.859H393.237L390.851 362.172L393.304 365.598H392.292L390.284 362.719L389.366 363.598V365.598H388.608V359.859ZM393.851 361.434H394.565V365.598H393.851V361.434ZM393.851 359.859H394.565V360.656H393.851V359.859ZM395.651 359.859H396.355V365.598H395.651V359.859ZM397.858 363.555C397.858 364.003 397.953 364.378 398.144 364.68C398.334 364.982 398.638 365.133 399.058 365.133C399.383 365.133 399.65 364.993 399.858 364.715C400.069 364.434 400.175 364.031 400.175 363.508C400.175 362.979 400.067 362.589 399.851 362.336C399.634 362.081 399.368 361.953 399.05 361.953C398.696 361.953 398.408 362.089 398.187 362.359C397.968 362.63 397.858 363.029 397.858 363.555ZM398.917 361.34C399.237 361.34 399.506 361.408 399.722 361.543C399.847 361.621 399.989 361.758 400.147 361.953V359.84H400.823V365.598H400.19V365.016C400.026 365.273 399.832 365.46 399.608 365.574C399.384 365.689 399.128 365.746 398.839 365.746C398.373 365.746 397.969 365.551 397.628 365.16C397.287 364.767 397.116 364.245 397.116 363.594C397.116 362.984 397.271 362.457 397.581 362.012C397.894 361.564 398.339 361.34 398.917 361.34ZM403.608 361.32C403.905 361.32 404.193 361.391 404.472 361.531C404.75 361.669 404.963 361.849 405.108 362.07C405.249 362.281 405.343 362.527 405.39 362.809C405.431 363.001 405.452 363.309 405.452 363.73H402.386C402.399 364.155 402.499 364.496 402.687 364.754C402.874 365.009 403.164 365.137 403.558 365.137C403.925 365.137 404.218 365.016 404.437 364.773C404.562 364.633 404.65 364.47 404.702 364.285H405.394C405.375 364.439 405.314 364.611 405.21 364.801C405.108 364.988 404.994 365.142 404.866 365.262C404.653 365.47 404.388 365.611 404.073 365.684C403.904 365.725 403.713 365.746 403.499 365.746C402.978 365.746 402.537 365.557 402.175 365.18C401.813 364.799 401.632 364.268 401.632 363.586C401.632 362.914 401.814 362.368 402.179 361.949C402.543 361.53 403.02 361.32 403.608 361.32ZM404.73 363.172C404.701 362.867 404.634 362.624 404.53 362.441C404.338 362.103 404.016 361.934 403.565 361.934C403.243 361.934 402.972 362.051 402.753 362.285C402.534 362.517 402.418 362.812 402.405 363.172H404.73ZM406.69 361.469H407.507V362.32H406.69V361.469ZM406.69 364.746H407.507V365.598H406.69V364.746ZM413.069 364.934C413.332 364.934 413.549 364.906 413.718 364.852C414.02 364.75 414.267 364.555 414.46 364.266C414.614 364.034 414.724 363.737 414.792 363.375C414.831 363.159 414.851 362.958 414.851 362.773C414.851 362.062 414.709 361.51 414.425 361.117C414.144 360.724 413.689 360.527 413.062 360.527H411.683V364.934H413.069ZM410.901 359.859H413.226C414.015 359.859 414.627 360.139 415.062 360.699C415.45 361.204 415.644 361.852 415.644 362.641C415.644 363.25 415.529 363.801 415.3 364.293C414.896 365.163 414.202 365.598 413.218 365.598H410.901V359.859ZM418.296 361.32C418.593 361.32 418.881 361.391 419.159 361.531C419.438 361.669 419.65 361.849 419.796 362.07C419.937 362.281 420.03 362.527 420.077 362.809C420.119 363.001 420.14 363.309 420.14 363.73H417.073C417.086 364.155 417.187 364.496 417.374 364.754C417.562 365.009 417.852 365.137 418.245 365.137C418.612 365.137 418.905 365.016 419.124 364.773C419.249 364.633 419.338 364.47 419.39 364.285H420.081C420.063 364.439 420.002 364.611 419.897 364.801C419.796 364.988 419.681 365.142 419.554 365.262C419.34 365.47 419.076 365.611 418.761 365.684C418.592 365.725 418.4 365.746 418.187 365.746C417.666 365.746 417.224 365.557 416.862 365.18C416.5 364.799 416.319 364.268 416.319 363.586C416.319 362.914 416.502 362.368 416.866 361.949C417.231 361.53 417.707 361.32 418.296 361.32ZM419.417 363.172C419.388 362.867 419.322 362.624 419.218 362.441C419.025 362.103 418.703 361.934 418.253 361.934C417.93 361.934 417.659 362.051 417.44 362.285C417.222 362.517 417.106 362.812 417.093 363.172H419.417ZM421.007 361.414H421.702V362.008C421.869 361.802 422.02 361.652 422.155 361.559C422.387 361.4 422.65 361.32 422.944 361.32C423.278 361.32 423.546 361.402 423.749 361.566C423.864 361.66 423.968 361.798 424.062 361.98C424.218 361.757 424.401 361.591 424.612 361.484C424.823 361.375 425.06 361.32 425.323 361.32C425.886 361.32 426.269 361.523 426.472 361.93C426.581 362.148 426.636 362.443 426.636 362.812V365.598H425.905V362.691C425.905 362.413 425.835 362.221 425.694 362.117C425.556 362.013 425.387 361.961 425.187 361.961C424.911 361.961 424.672 362.053 424.472 362.238C424.274 362.423 424.175 362.732 424.175 363.164V365.598H423.46V362.867C423.46 362.583 423.426 362.376 423.358 362.246C423.252 362.051 423.052 361.953 422.761 361.953C422.495 361.953 422.253 362.056 422.034 362.262C421.818 362.467 421.71 362.84 421.71 363.379V365.598H421.007V361.414ZM428.21 364.484C428.21 364.688 428.284 364.848 428.433 364.965C428.581 365.082 428.757 365.141 428.96 365.141C429.207 365.141 429.447 365.083 429.679 364.969C430.069 364.779 430.265 364.467 430.265 364.035V363.469C430.179 363.523 430.068 363.569 429.933 363.605C429.797 363.642 429.664 363.668 429.534 363.684L429.108 363.738C428.853 363.772 428.662 363.826 428.534 363.898C428.318 364.021 428.21 364.216 428.21 364.484ZM429.913 363.062C430.075 363.042 430.183 362.974 430.237 362.859C430.269 362.797 430.284 362.707 430.284 362.59C430.284 362.35 430.198 362.177 430.026 362.07C429.857 361.961 429.614 361.906 429.296 361.906C428.929 361.906 428.668 362.005 428.515 362.203C428.429 362.312 428.373 362.475 428.347 362.691H427.69C427.703 362.176 427.87 361.818 428.19 361.617C428.513 361.414 428.887 361.312 429.312 361.312C429.804 361.312 430.203 361.406 430.511 361.594C430.815 361.781 430.968 362.073 430.968 362.469V364.879C430.968 364.952 430.982 365.01 431.011 365.055C431.042 365.099 431.106 365.121 431.202 365.121C431.233 365.121 431.269 365.12 431.308 365.117C431.347 365.112 431.388 365.105 431.433 365.098V365.617C431.323 365.648 431.24 365.668 431.183 365.676C431.125 365.684 431.047 365.688 430.948 365.688C430.706 365.688 430.53 365.602 430.421 365.43C430.364 365.339 430.323 365.21 430.3 365.043C430.157 365.23 429.951 365.393 429.683 365.531C429.414 365.669 429.119 365.738 428.796 365.738C428.408 365.738 428.09 365.621 427.843 365.387C427.598 365.15 427.476 364.854 427.476 364.5C427.476 364.112 427.597 363.811 427.839 363.598C428.081 363.384 428.399 363.253 428.792 363.203L429.913 363.062ZM432.124 361.414H432.792V362.008C432.99 361.763 433.2 361.587 433.421 361.48C433.642 361.374 433.888 361.32 434.159 361.32C434.753 361.32 435.154 361.527 435.362 361.941C435.477 362.168 435.534 362.492 435.534 362.914V365.598H434.819V362.961C434.819 362.706 434.782 362.5 434.706 362.344C434.581 362.083 434.355 361.953 434.026 361.953C433.86 361.953 433.723 361.97 433.616 362.004C433.424 362.061 433.254 362.176 433.108 362.348C432.991 362.486 432.914 362.629 432.878 362.777C432.844 362.923 432.827 363.133 432.827 363.406V365.598H432.124V361.414ZM437.022 363.555C437.022 364.003 437.118 364.378 437.308 364.68C437.498 364.982 437.802 365.133 438.222 365.133C438.547 365.133 438.814 364.993 439.022 364.715C439.233 364.434 439.339 364.031 439.339 363.508C439.339 362.979 439.231 362.589 439.015 362.336C438.799 362.081 438.532 361.953 438.214 361.953C437.86 361.953 437.572 362.089 437.351 362.359C437.132 362.63 437.022 363.029 437.022 363.555ZM438.081 361.34C438.401 361.34 438.67 361.408 438.886 361.543C439.011 361.621 439.153 361.758 439.312 361.953V359.84H439.987V365.598H439.355V365.016C439.19 365.273 438.996 365.46 438.772 365.574C438.549 365.689 438.292 365.746 438.003 365.746C437.537 365.746 437.133 365.551 436.792 365.16C436.451 364.767 436.28 364.245 436.28 363.594C436.28 362.984 436.435 362.457 436.745 362.012C437.058 361.564 437.503 361.34 438.081 361.34ZM441.448 364.285C441.469 364.52 441.528 364.699 441.624 364.824C441.801 365.051 442.108 365.164 442.546 365.164C442.806 365.164 443.036 365.108 443.233 364.996C443.431 364.882 443.53 364.706 443.53 364.469C443.53 364.289 443.451 364.152 443.292 364.059C443.19 364.001 442.99 363.935 442.69 363.859L442.132 363.719C441.775 363.63 441.512 363.531 441.343 363.422C441.041 363.232 440.89 362.969 440.89 362.633C440.89 362.237 441.032 361.917 441.315 361.672C441.602 361.427 441.986 361.305 442.468 361.305C443.098 361.305 443.552 361.49 443.831 361.859C444.006 362.094 444.09 362.346 444.085 362.617H443.421C443.408 362.458 443.352 362.314 443.253 362.184C443.092 361.999 442.812 361.906 442.413 361.906C442.147 361.906 441.946 361.957 441.808 362.059C441.672 362.16 441.605 362.294 441.605 362.461C441.605 362.643 441.694 362.789 441.874 362.898C441.978 362.964 442.132 363.021 442.335 363.07L442.8 363.184C443.305 363.306 443.644 363.424 443.815 363.539C444.089 363.719 444.226 364.001 444.226 364.387C444.226 364.759 444.084 365.081 443.8 365.352C443.519 365.622 443.089 365.758 442.511 365.758C441.888 365.758 441.447 365.617 441.187 365.336C440.929 365.052 440.791 364.702 440.772 364.285H441.448ZM445.569 364.484C445.569 364.688 445.644 364.848 445.792 364.965C445.94 365.082 446.116 365.141 446.319 365.141C446.567 365.141 446.806 365.083 447.038 364.969C447.429 364.779 447.624 364.467 447.624 364.035V363.469C447.538 363.523 447.427 363.569 447.292 363.605C447.157 363.642 447.024 363.668 446.894 363.684L446.468 363.738C446.213 363.772 446.021 363.826 445.894 363.898C445.677 364.021 445.569 364.216 445.569 364.484ZM447.272 363.062C447.434 363.042 447.542 362.974 447.597 362.859C447.628 362.797 447.644 362.707 447.644 362.59C447.644 362.35 447.558 362.177 447.386 362.07C447.217 361.961 446.973 361.906 446.655 361.906C446.288 361.906 446.028 362.005 445.874 362.203C445.788 362.312 445.732 362.475 445.706 362.691H445.05C445.063 362.176 445.23 361.818 445.55 361.617C445.873 361.414 446.246 361.312 446.671 361.312C447.163 361.312 447.563 361.406 447.87 361.594C448.175 361.781 448.327 362.073 448.327 362.469V364.879C448.327 364.952 448.342 365.01 448.37 365.055C448.401 365.099 448.465 365.121 448.562 365.121C448.593 365.121 448.628 365.12 448.667 365.117C448.706 365.112 448.748 365.105 448.792 365.098V365.617C448.683 365.648 448.599 365.668 448.542 365.676C448.485 365.684 448.407 365.688 448.308 365.688C448.065 365.688 447.89 365.602 447.78 365.43C447.723 365.339 447.683 365.21 447.659 365.043C447.516 365.23 447.31 365.393 447.042 365.531C446.774 365.669 446.478 365.738 446.155 365.738C445.767 365.738 445.45 365.621 445.202 365.387C444.957 365.15 444.835 364.854 444.835 364.5C444.835 364.112 444.956 363.811 445.198 363.598C445.44 363.384 445.758 363.253 446.151 363.203L447.272 363.062ZM450.96 361.34C451.288 361.34 451.575 361.421 451.819 361.582C451.952 361.673 452.088 361.806 452.226 361.98V361.453H452.874V365.258C452.874 365.789 452.796 366.208 452.64 366.516C452.348 367.083 451.797 367.367 450.987 367.367C450.537 367.367 450.158 367.266 449.851 367.062C449.543 366.862 449.371 366.547 449.335 366.117H450.05C450.084 366.305 450.151 366.449 450.253 366.551C450.412 366.707 450.662 366.785 451.003 366.785C451.542 366.785 451.895 366.595 452.062 366.215C452.161 365.991 452.206 365.591 452.198 365.016C452.058 365.229 451.888 365.388 451.69 365.492C451.493 365.596 451.231 365.648 450.905 365.648C450.452 365.648 450.055 365.488 449.714 365.168C449.375 364.845 449.206 364.312 449.206 363.57C449.206 362.87 449.377 362.323 449.718 361.93C450.062 361.536 450.476 361.34 450.96 361.34ZM452.226 363.488C452.226 362.97 452.119 362.586 451.905 362.336C451.692 362.086 451.42 361.961 451.089 361.961C450.594 361.961 450.256 362.193 450.073 362.656C449.977 362.904 449.929 363.228 449.929 363.629C449.929 364.1 450.024 364.46 450.214 364.707C450.407 364.952 450.664 365.074 450.987 365.074C451.493 365.074 451.848 364.846 452.054 364.391C452.168 364.133 452.226 363.832 452.226 363.488ZM455.679 361.32C455.976 361.32 456.263 361.391 456.542 361.531C456.821 361.669 457.033 361.849 457.179 362.07C457.319 362.281 457.413 362.527 457.46 362.809C457.502 363.001 457.522 363.309 457.522 363.73H454.456C454.469 364.155 454.569 364.496 454.757 364.754C454.944 365.009 455.235 365.137 455.628 365.137C455.995 365.137 456.288 365.016 456.507 364.773C456.632 364.633 456.72 364.47 456.772 364.285H457.464C457.446 364.439 457.384 364.611 457.28 364.801C457.179 364.988 457.064 365.142 456.937 365.262C456.723 365.47 456.459 365.611 456.144 365.684C455.974 365.725 455.783 365.746 455.569 365.746C455.049 365.746 454.607 365.557 454.245 365.18C453.883 364.799 453.702 364.268 453.702 363.586C453.702 362.914 453.884 362.368 454.249 361.949C454.614 361.53 455.09 361.32 455.679 361.32ZM456.8 363.172C456.771 362.867 456.705 362.624 456.601 362.441C456.408 362.103 456.086 361.934 455.636 361.934C455.313 361.934 455.042 362.051 454.823 362.285C454.605 362.517 454.489 362.812 454.476 363.172H456.8Z" fill="#798E7F"/>
<path d="M39.8555 299.261C38.5931 299.261 37.7067 298.819 37.1963 297.935C36.6904 297.05 36.4375 295.79 36.4375 294.154C36.4375 292.518 36.6904 291.256 37.1963 290.367C37.7067 289.479 38.5931 289.034 39.8555 289.034C41.1178 289.034 42.0042 289.479 42.5146 290.367C43.0205 291.256 43.2734 292.518 43.2734 294.154C43.2734 295.79 43.0182 297.05 42.5078 297.935C42.002 298.819 41.1178 299.261 39.8555 299.261ZM40.9971 296.766C41.1748 296.164 41.2637 295.294 41.2637 294.154C41.2637 292.96 41.1725 292.076 40.9902 291.502C40.8125 290.928 40.4342 290.641 39.8555 290.641C39.2767 290.641 38.8939 290.928 38.707 291.502C38.5202 292.076 38.4268 292.96 38.4268 294.154C38.4268 295.294 38.5202 296.166 38.707 296.772C38.8939 297.374 39.2767 297.675 39.8555 297.675C40.4342 297.675 40.8148 297.372 40.9971 296.766Z" fill="#23483B"/>
<path d="M31.7324 236.093C31.4954 236.093 31.2904 236.122 31.1172 236.182C30.8118 236.291 30.5817 236.494 30.4268 236.79L28.6768 236.708L29.374 231.232H34.8359V232.887H30.7822L30.4268 235.054C30.7275 234.858 30.9622 234.728 31.1309 234.664C31.4134 234.559 31.7575 234.507 32.1631 234.507C32.9834 234.507 33.6989 234.783 34.3096 235.334C34.9202 235.885 35.2256 236.688 35.2256 237.74C35.2256 238.656 34.9316 239.474 34.3438 240.194C33.7559 240.914 32.8763 241.274 31.7051 241.274C30.7617 241.274 29.987 241.021 29.3809 240.516C28.7747 240.01 28.4375 239.292 28.3691 238.362H30.3105C30.388 238.786 30.5361 239.114 30.7549 239.347C30.9736 239.575 31.2926 239.688 31.7119 239.688C32.195 239.688 32.5618 239.52 32.8125 239.183C33.0677 238.841 33.1953 238.412 33.1953 237.897C33.1953 237.392 33.0768 236.965 32.8398 236.619C32.6029 236.268 32.2337 236.093 31.7324 236.093ZM39.6484 241.261C38.3861 241.261 37.4997 240.819 36.9893 239.935C36.4834 239.05 36.2305 237.79 36.2305 236.154C36.2305 234.518 36.4834 233.256 36.9893 232.367C37.4997 231.479 38.3861 231.034 39.6484 231.034C40.9108 231.034 41.7972 231.479 42.3076 232.367C42.8135 233.256 43.0664 234.518 43.0664 236.154C43.0664 237.79 42.8112 239.05 42.3008 239.935C41.7949 240.819 40.9108 241.261 39.6484 241.261ZM40.79 238.766C40.9678 238.164 41.0566 237.294 41.0566 236.154C41.0566 234.96 40.9655 234.076 40.7832 233.502C40.6055 232.928 40.2272 232.641 39.6484 232.641C39.0697 232.641 38.6868 232.928 38.5 233.502C38.3132 234.076 38.2197 234.96 38.2197 236.154C38.2197 237.294 38.3132 238.166 38.5 238.772C38.6868 239.374 39.0697 239.675 39.6484 239.675C40.2272 239.675 40.6077 239.372 40.79 238.766Z" fill="#23483B"/>
<path d="M60.1719 260.247C59.9727 260.009 59.6875 259.89 59.3164 259.89C58.8086 259.89 58.4629 260.079 58.2793 260.458C58.1738 260.677 58.1113 261.024 58.0918 261.501H56.4688C56.4961 260.778 56.627 260.194 56.8613 259.749C57.3066 258.901 58.0977 258.478 59.2344 258.478C60.1328 258.478 60.8477 258.728 61.3789 259.228C61.9102 259.724 62.1758 260.382 62.1758 261.202C62.1758 261.831 61.9883 262.39 61.6133 262.878C61.3672 263.202 60.9629 263.563 60.4004 263.962L59.7324 264.437C59.3145 264.733 59.0273 264.948 58.8711 265.081C58.7188 265.214 58.5898 265.368 58.4844 265.544H62.1934V267.015H56.375C56.3906 266.405 56.5215 265.849 56.7676 265.345C57.0059 264.778 57.5684 264.179 58.4551 263.546C59.2246 262.995 59.7227 262.601 59.9492 262.362C60.2969 261.991 60.4707 261.585 60.4707 261.144C60.4707 260.784 60.3711 260.485 60.1719 260.247ZM66.3477 261.501C67.1016 261.501 67.7188 261.757 68.1992 262.269C68.6836 262.78 68.9258 263.435 68.9258 264.231C68.9258 265.024 68.6895 265.724 68.2168 266.329C67.7441 266.935 67.0098 267.237 66.0137 267.237C64.9434 267.237 64.1543 266.79 63.6465 265.896C63.252 265.196 63.0547 264.294 63.0547 263.188C63.0547 262.54 63.082 262.013 63.1367 261.606C63.2344 260.884 63.4238 260.282 63.7051 259.802C63.9473 259.392 64.2637 259.062 64.6543 258.812C65.0488 258.562 65.5195 258.437 66.0664 258.437C66.8555 258.437 67.4844 258.64 67.9531 259.046C68.4219 259.448 68.6855 259.985 68.7441 260.657H67.0801C67.0801 260.521 67.0273 260.37 66.9219 260.206C66.7422 259.94 66.4707 259.808 66.1074 259.808C65.5645 259.808 65.1777 260.112 64.9473 260.722C64.8223 261.058 64.7363 261.554 64.6895 262.21C64.8965 261.964 65.1367 261.784 65.4102 261.671C65.6836 261.558 65.9961 261.501 66.3477 261.501ZM65.2227 263.095C64.8945 263.349 64.7305 263.759 64.7305 264.325C64.7305 264.782 64.8535 265.155 65.0996 265.444C65.3457 265.733 65.6582 265.878 66.0371 265.878C66.4082 265.878 66.6992 265.739 66.9102 265.462C67.125 265.181 67.2324 264.817 67.2324 264.372C67.2324 263.876 67.1113 263.497 66.8691 263.235C66.627 262.97 66.3301 262.837 65.9785 262.837C65.6934 262.837 65.4414 262.923 65.2227 263.095Z" fill="#23483B"/>
<path d="M113.297 254.212C113.109 254.462 113.02 254.796 113.027 255.214H111.469C111.484 254.792 111.557 254.392 111.686 254.013C111.822 253.681 112.037 253.374 112.33 253.093C112.549 252.894 112.809 252.741 113.109 252.636C113.41 252.53 113.779 252.478 114.217 252.478C115.029 252.478 115.684 252.688 116.18 253.11C116.68 253.528 116.93 254.091 116.93 254.798C116.93 255.298 116.781 255.72 116.484 256.063C116.297 256.278 116.102 256.425 115.898 256.503C116.051 256.503 116.27 256.634 116.555 256.896C116.98 257.29 117.193 257.829 117.193 258.513C117.193 259.231 116.943 259.864 116.443 260.411C115.947 260.954 115.211 261.226 114.234 261.226C113.031 261.226 112.195 260.833 111.727 260.048C111.48 259.63 111.344 259.083 111.316 258.407H112.957C112.957 258.747 113.012 259.028 113.121 259.251C113.324 259.661 113.693 259.866 114.229 259.866C114.557 259.866 114.842 259.755 115.084 259.532C115.33 259.306 115.453 258.981 115.453 258.56C115.453 258.001 115.227 257.628 114.773 257.44C114.516 257.335 114.109 257.282 113.555 257.282V256.087C114.098 256.079 114.477 256.026 114.691 255.929C115.062 255.765 115.248 255.433 115.248 254.933C115.248 254.608 115.152 254.345 114.961 254.142C114.773 253.938 114.508 253.837 114.164 253.837C113.77 253.837 113.48 253.962 113.297 254.212ZM119.977 254.212C119.789 254.462 119.699 254.796 119.707 255.214H118.148C118.164 254.792 118.236 254.392 118.365 254.013C118.502 253.681 118.717 253.374 119.01 253.093C119.229 252.894 119.488 252.741 119.789 252.636C120.09 252.53 120.459 252.478 120.896 252.478C121.709 252.478 122.363 252.688 122.859 253.11C123.359 253.528 123.609 254.091 123.609 254.798C123.609 255.298 123.461 255.72 123.164 256.063C122.977 256.278 122.781 256.425 122.578 256.503C122.73 256.503 122.949 256.634 123.234 256.896C123.66 257.29 123.873 257.829 123.873 258.513C123.873 259.231 123.623 259.864 123.123 260.411C122.627 260.954 121.891 261.226 120.914 261.226C119.711 261.226 118.875 260.833 118.406 260.048C118.16 259.63 118.023 259.083 117.996 258.407H119.637C119.637 258.747 119.691 259.028 119.801 259.251C120.004 259.661 120.373 259.866 120.908 259.866C121.236 259.866 121.521 259.755 121.764 259.532C122.01 259.306 122.133 258.981 122.133 258.56C122.133 258.001 121.906 257.628 121.453 257.44C121.195 257.335 120.789 257.282 120.234 257.282V256.087C120.777 256.079 121.156 256.026 121.371 255.929C121.742 255.765 121.928 255.433 121.928 254.933C121.928 254.608 121.832 254.345 121.641 254.142C121.453 253.938 121.188 253.837 120.844 253.837C120.449 253.837 120.16 253.962 119.977 254.212Z" fill="#23483B"/>
<path d="M168.275 241.88V243.187H167.314V245.015H165.68V243.187H162.316V241.728L165.439 236.571H167.314V241.88H168.275ZM163.553 241.88H165.68V238.212L163.553 241.88ZM173.221 245.015H171.51V239.155H169.512V238.019C170.039 237.995 170.408 237.96 170.619 237.913C170.955 237.839 171.229 237.69 171.439 237.468C171.584 237.315 171.693 237.112 171.768 236.858C171.811 236.706 171.832 236.593 171.832 236.519H173.221V245.015Z" fill="#23483B"/>
<path d="M220.668 216.501C221.422 216.501 222.039 216.757 222.52 217.269C223.004 217.78 223.246 218.435 223.246 219.231C223.246 220.024 223.01 220.724 222.537 221.329C222.064 221.935 221.33 222.237 220.334 222.237C219.264 222.237 218.475 221.79 217.967 220.896C217.572 220.196 217.375 219.294 217.375 218.188C217.375 217.54 217.402 217.013 217.457 216.606C217.555 215.884 217.744 215.282 218.025 214.802C218.268 214.392 218.584 214.062 218.975 213.812C219.369 213.562 219.84 213.437 220.387 213.437C221.176 213.437 221.805 213.64 222.273 214.046C222.742 214.448 223.006 214.985 223.064 215.657H221.4C221.4 215.521 221.348 215.37 221.242 215.206C221.062 214.94 220.791 214.808 220.428 214.808C219.885 214.808 219.498 215.112 219.268 215.722C219.143 216.058 219.057 216.554 219.01 217.21C219.217 216.964 219.457 216.784 219.73 216.671C220.004 216.558 220.316 216.501 220.668 216.501ZM219.543 218.095C219.215 218.349 219.051 218.759 219.051 219.325C219.051 219.782 219.174 220.155 219.42 220.444C219.666 220.733 219.979 220.878 220.357 220.878C220.729 220.878 221.02 220.739 221.23 220.462C221.445 220.181 221.553 219.817 221.553 219.372C221.553 218.876 221.432 218.497 221.189 218.235C220.947 217.97 220.65 217.837 220.299 217.837C220.014 217.837 219.762 217.923 219.543 218.095ZM229.955 218.88V220.187H228.994V222.015H227.359V220.187H223.996V218.728L227.119 213.571H228.994V218.88H229.955ZM225.232 218.88H227.359V215.212L225.232 218.88Z" fill="#23483B"/>
<path d="M280.285 198.249C279.84 198.882 279.467 199.534 279.166 200.206C278.928 200.733 278.713 201.378 278.521 202.14C278.33 202.901 278.234 203.526 278.234 204.015H276.5C276.551 202.491 277.051 200.907 278 199.263C278.613 198.243 279.127 197.532 279.541 197.13H275.305L275.328 195.63H281.328V196.937C281.078 197.183 280.73 197.62 280.285 198.249ZM284.797 204.261C284.16 204.261 283.588 204.073 283.08 203.698C282.572 203.319 282.281 202.769 282.207 202.046H283.871C283.91 202.296 284.016 202.499 284.188 202.655C284.359 202.812 284.588 202.89 284.873 202.89C285.424 202.89 285.811 202.585 286.033 201.976C286.154 201.64 286.23 201.149 286.262 200.505C286.109 200.696 285.947 200.843 285.775 200.944C285.463 201.132 285.078 201.226 284.621 201.226C283.945 201.226 283.346 200.993 282.822 200.528C282.299 200.06 282.037 199.386 282.037 198.507C282.037 197.597 282.299 196.86 282.822 196.298C283.35 195.731 284.033 195.448 284.873 195.448C286.166 195.448 287.053 196.021 287.533 197.165C287.807 197.813 287.943 198.667 287.943 199.726C287.943 200.753 287.812 201.61 287.551 202.298C287.051 203.606 286.133 204.261 284.797 204.261ZM284.211 197.083C283.891 197.333 283.73 197.757 283.73 198.354C283.73 198.858 283.832 199.237 284.035 199.491C284.242 199.741 284.559 199.866 284.984 199.866C285.215 199.866 285.432 199.8 285.635 199.667C286.014 199.425 286.203 199.005 286.203 198.407C286.203 197.927 286.09 197.546 285.863 197.265C285.641 196.983 285.334 196.843 284.943 196.843C284.658 196.843 284.414 196.923 284.211 197.083Z" fill="#23483B"/>
<path d="M333.117 182.261C332.48 182.261 331.908 182.073 331.4 181.698C330.893 181.319 330.602 180.769 330.527 180.046H332.191C332.23 180.296 332.336 180.499 332.508 180.655C332.68 180.812 332.908 180.89 333.193 180.89C333.744 180.89 334.131 180.585 334.354 179.976C334.475 179.64 334.551 179.149 334.582 178.505C334.43 178.696 334.268 178.843 334.096 178.944C333.783 179.132 333.398 179.226 332.941 179.226C332.266 179.226 331.666 178.993 331.143 178.528C330.619 178.06 330.357 177.386 330.357 176.507C330.357 175.597 330.619 174.86 331.143 174.298C331.67 173.731 332.354 173.448 333.193 173.448C334.486 173.448 335.373 174.021 335.854 175.165C336.127 175.813 336.264 176.667 336.264 177.726C336.264 178.753 336.133 179.61 335.871 180.298C335.371 181.606 334.453 182.261 333.117 182.261ZM332.531 175.083C332.211 175.333 332.051 175.757 332.051 176.354C332.051 176.858 332.152 177.237 332.355 177.491C332.562 177.741 332.879 177.866 333.305 177.866C333.535 177.866 333.752 177.8 333.955 177.667C334.334 177.425 334.523 177.005 334.523 176.407C334.523 175.927 334.41 175.546 334.184 175.265C333.961 174.983 333.654 174.843 333.264 174.843C332.979 174.843 332.734 174.923 332.531 175.083ZM341.965 176.249C341.52 176.882 341.146 177.534 340.846 178.206C340.607 178.733 340.393 179.378 340.201 180.14C340.01 180.901 339.914 181.526 339.914 182.015H338.18C338.23 180.491 338.73 178.907 339.68 177.263C340.293 176.243 340.807 175.532 341.221 175.13H336.984L337.008 173.63H343.008V174.937C342.758 175.183 342.41 175.62 341.965 176.249Z" fill="#23483B"/>
<path d="M388.541 156.015H386.83V150.155H384.832V149.019C385.359 148.995 385.729 148.96 385.939 148.913C386.275 148.839 386.549 148.69 386.76 148.468C386.904 148.315 387.014 148.112 387.088 147.858C387.131 147.706 387.152 147.593 387.152 147.519H388.541V156.015ZM394.852 149.247C394.652 149.009 394.367 148.89 393.996 148.89C393.488 148.89 393.143 149.079 392.959 149.458C392.854 149.677 392.791 150.024 392.771 150.501H391.148C391.176 149.778 391.307 149.194 391.541 148.749C391.986 147.901 392.777 147.478 393.914 147.478C394.812 147.478 395.527 147.728 396.059 148.228C396.59 148.724 396.855 149.382 396.855 150.202C396.855 150.831 396.668 151.39 396.293 151.878C396.047 152.202 395.643 152.563 395.08 152.962L394.412 153.437C393.994 153.733 393.707 153.948 393.551 154.081C393.398 154.214 393.27 154.368 393.164 154.544H396.873V156.015H391.055C391.07 155.405 391.201 154.849 391.447 154.345C391.686 153.778 392.248 153.179 393.135 152.546C393.904 151.995 394.402 151.601 394.629 151.362C394.977 150.991 395.15 150.585 395.15 150.144C395.15 149.784 395.051 149.485 394.852 149.247ZM400.664 156.226C399.582 156.226 398.822 155.847 398.385 155.089C397.951 154.331 397.734 153.251 397.734 151.849C397.734 150.446 397.951 149.364 398.385 148.603C398.822 147.841 399.582 147.46 400.664 147.46C401.746 147.46 402.506 147.841 402.943 148.603C403.377 149.364 403.594 150.446 403.594 151.849C403.594 153.251 403.375 154.331 402.938 155.089C402.504 155.847 401.746 156.226 400.664 156.226ZM401.643 154.087C401.795 153.571 401.871 152.825 401.871 151.849C401.871 150.825 401.793 150.067 401.637 149.575C401.484 149.083 401.16 148.837 400.664 148.837C400.168 148.837 399.84 149.083 399.68 149.575C399.52 150.067 399.439 150.825 399.439 151.849C399.439 152.825 399.52 153.573 399.68 154.093C399.84 154.608 400.168 154.866 400.664 154.866C401.16 154.866 401.486 154.606 401.643 154.087Z" fill="#23483B"/>
<path d="M442.541 126.015H440.83V120.155H438.832V119.019C439.359 118.995 439.729 118.96 439.939 118.913C440.275 118.839 440.549 118.69 440.76 118.468C440.904 118.315 441.014 118.112 441.088 117.858C441.131 117.706 441.152 117.593 441.152 117.519H442.541V126.015ZM450.955 122.88V124.187H449.994V126.015H448.359V124.187H444.996V122.728L448.119 117.571H449.994V122.88H450.955ZM446.232 122.88H448.359V119.212L446.232 122.88ZM456.645 120.249C456.199 120.882 455.826 121.534 455.525 122.206C455.287 122.733 455.072 123.378 454.881 124.14C454.689 124.901 454.594 125.526 454.594 126.015H452.859C452.91 124.491 453.41 122.907 454.359 121.263C454.973 120.243 455.486 119.532 455.9 119.13H451.664L451.688 117.63H457.688V118.937C457.438 119.183 457.09 119.62 456.645 120.249Z" fill="#BA6565"/>
<path d="M498.541 85.0146H496.83V79.1553H494.832V78.0186C495.359 77.9951 495.729 77.96 495.939 77.9131C496.275 77.8389 496.549 77.6904 496.76 77.4678C496.904 77.3154 497.014 77.1123 497.088 76.8584C497.131 76.7061 497.152 76.5928 497.152 76.5186H498.541V85.0146ZM501.729 84.4814C501.24 83.9814 500.996 83.374 500.996 82.6592C500.996 82.1826 501.104 81.751 501.318 81.3643C501.537 80.9775 501.855 80.6865 502.273 80.4912C501.863 80.2178 501.596 79.9229 501.471 79.6064C501.35 79.2861 501.289 78.9873 501.289 78.71C501.289 78.0928 501.521 77.5674 501.986 77.1338C502.451 76.6963 503.107 76.4775 503.955 76.4775C504.803 76.4775 505.459 76.6963 505.924 77.1338C506.389 77.5674 506.621 78.0928 506.621 78.71C506.621 78.9873 506.559 79.2861 506.434 79.6064C506.312 79.9229 506.047 80.1982 505.637 80.4326C506.055 80.667 506.369 80.9775 506.58 81.3643C506.791 81.751 506.896 82.1826 506.896 82.6592C506.896 83.374 506.631 83.9834 506.1 84.4873C505.572 84.9873 504.834 85.2373 503.885 85.2373C502.936 85.2373 502.217 84.9854 501.729 84.4814ZM502.73 82.5479C502.73 82.9658 502.838 83.29 503.053 83.5205C503.271 83.751 503.572 83.8662 503.955 83.8662C504.338 83.8662 504.637 83.751 504.852 83.5205C505.07 83.29 505.18 82.9658 505.18 82.5479C505.18 82.1143 505.068 81.7861 504.846 81.5635C504.627 81.3369 504.33 81.2236 503.955 81.2236C503.58 81.2236 503.281 81.3369 503.059 81.5635C502.84 81.7861 502.73 82.1143 502.73 82.5479ZM503.17 79.6533C503.357 79.8486 503.619 79.9463 503.955 79.9463C504.295 79.9463 504.557 79.8486 504.74 79.6533C504.928 79.458 505.021 79.2061 505.021 78.8975C505.021 78.5615 504.928 78.2998 504.74 78.1123C504.557 77.9209 504.295 77.8252 503.955 77.8252C503.619 77.8252 503.355 77.9209 503.164 78.1123C502.977 78.2998 502.883 78.5615 502.883 78.8975C502.883 79.2061 502.979 79.458 503.17 79.6533ZM511.9 85.0146H510.189V79.1553H508.191V78.0186C508.719 77.9951 509.088 77.96 509.299 77.9131C509.635 77.8389 509.908 77.6904 510.119 77.4678C510.264 77.3154 510.373 77.1123 510.447 76.8584C510.49 76.7061 510.512 76.5928 510.512 76.5186H511.9V85.0146Z" fill="#BA6565"/>
<path d="M25.2979 189.015H23.3018V182.179H20.9707V180.853C21.5859 180.825 22.0166 180.784 22.2627 180.729C22.6546 180.643 22.9736 180.47 23.2197 180.21C23.3883 180.032 23.516 179.795 23.6025 179.499C23.6527 179.321 23.6777 179.189 23.6777 179.103H25.2979V189.015ZM31.6484 189.261C30.3861 189.261 29.4997 188.819 28.9893 187.935C28.4834 187.05 28.2305 185.79 28.2305 184.154C28.2305 182.518 28.4834 181.256 28.9893 180.367C29.4997 179.479 30.3861 179.034 31.6484 179.034C32.9108 179.034 33.7972 179.479 34.3076 180.367C34.8135 181.256 35.0664 182.518 35.0664 184.154C35.0664 185.79 34.8112 187.05 34.3008 187.935C33.7949 188.819 32.9108 189.261 31.6484 189.261ZM32.79 186.766C32.9678 186.164 33.0566 185.294 33.0566 184.154C33.0566 182.96 32.9655 182.076 32.7832 181.502C32.6055 180.928 32.2272 180.641 31.6484 180.641C31.0697 180.641 30.6868 180.928 30.5 181.502C30.3132 182.076 30.2197 182.96 30.2197 184.154C30.2197 185.294 30.3132 186.166 30.5 186.772C30.6868 187.374 31.0697 187.675 31.6484 187.675C32.2272 187.675 32.6077 187.372 32.79 186.766ZM39.4414 189.261C38.179 189.261 37.2926 188.819 36.7822 187.935C36.2764 187.05 36.0234 185.79 36.0234 184.154C36.0234 182.518 36.2764 181.256 36.7822 180.367C37.2926 179.479 38.179 179.034 39.4414 179.034C40.7038 179.034 41.5902 179.479 42.1006 180.367C42.6064 181.256 42.8594 182.518 42.8594 184.154C42.8594 185.79 42.6042 187.05 42.0938 187.935C41.5879 188.819 40.7038 189.261 39.4414 189.261ZM40.583 186.766C40.7607 186.164 40.8496 185.294 40.8496 184.154C40.8496 182.96 40.7585 182.076 40.5762 181.502C40.3984 180.928 40.0202 180.641 39.4414 180.641C38.8626 180.641 38.4798 180.928 38.293 181.502C38.1061 182.076 38.0127 182.96 38.0127 184.154C38.0127 185.294 38.1061 186.166 38.293 186.772C38.4798 187.374 38.8626 187.675 39.4414 187.675C40.0202 187.675 40.4007 187.372 40.583 186.766Z" fill="#23483B"/>
<path d="M25.2979 132.015H23.3018V125.179H20.9707V123.853C21.5859 123.825 22.0166 123.784 22.2627 123.729C22.6546 123.643 22.9736 123.47 23.2197 123.21C23.3883 123.032 23.516 122.795 23.6025 122.499C23.6527 122.321 23.6777 122.189 23.6777 122.103H25.2979V132.015ZM31.5254 127.093C31.2884 127.093 31.0833 127.122 30.9102 127.182C30.6048 127.291 30.3747 127.494 30.2197 127.79L28.4697 127.708L29.167 122.232H34.6289V123.887H30.5752L30.2197 126.054C30.5205 125.858 30.7552 125.728 30.9238 125.664C31.2064 125.559 31.5505 125.507 31.9561 125.507C32.7764 125.507 33.4919 125.783 34.1025 126.334C34.7132 126.885 35.0186 127.688 35.0186 128.74C35.0186 129.656 34.7246 130.474 34.1367 131.194C33.5488 131.914 32.6693 132.274 31.498 132.274C30.5547 132.274 29.7799 132.021 29.1738 131.516C28.5677 131.01 28.2305 130.292 28.1621 129.362H30.1035C30.181 129.786 30.3291 130.114 30.5479 130.347C30.7666 130.575 31.0856 130.688 31.5049 130.688C31.988 130.688 32.3548 130.52 32.6055 130.183C32.8607 129.841 32.9883 129.412 32.9883 128.897C32.9883 128.392 32.8698 127.965 32.6328 127.619C32.3958 127.268 32.0267 127.093 31.5254 127.093ZM39.4414 132.261C38.179 132.261 37.2926 131.819 36.7822 130.935C36.2764 130.05 36.0234 128.79 36.0234 127.154C36.0234 125.518 36.2764 124.256 36.7822 123.367C37.2926 122.479 38.179 122.034 39.4414 122.034C40.7038 122.034 41.5902 122.479 42.1006 123.367C42.6064 124.256 42.8594 125.518 42.8594 127.154C42.8594 128.79 42.6042 130.05 42.0938 130.935C41.5879 131.819 40.7038 132.261 39.4414 132.261ZM40.583 129.766C40.7607 129.164 40.8496 128.294 40.8496 127.154C40.8496 125.96 40.7585 125.076 40.5762 124.502C40.3984 123.928 40.0202 123.641 39.4414 123.641C38.8626 123.641 38.4798 123.928 38.293 124.502C38.1061 125.076 38.0127 125.96 38.0127 127.154C38.0127 128.294 38.1061 129.166 38.293 129.772C38.4798 130.374 38.8626 130.675 39.4414 130.675C40.0202 130.675 40.4007 130.372 40.583 129.766Z" fill="#23483B"/>
<path d="M24.8672 63.1191C24.6348 62.8411 24.3021 62.7021 23.8691 62.7021C23.2767 62.7021 22.8734 62.9232 22.6592 63.3652C22.5361 63.6204 22.4632 64.026 22.4404 64.582H20.5469C20.5788 63.7389 20.7314 63.0576 21.0049 62.5381C21.5244 61.5492 22.4473 61.0547 23.7734 61.0547C24.8216 61.0547 25.6556 61.3464 26.2754 61.9297C26.8952 62.5085 27.2051 63.2764 27.2051 64.2334C27.2051 64.9671 26.9863 65.6188 26.5488 66.1885C26.2617 66.5667 25.79 66.9883 25.1338 67.4531L24.3545 68.0068C23.8669 68.3532 23.5319 68.6038 23.3496 68.7588C23.1719 68.9137 23.0215 69.0938 22.8984 69.2988H27.2256V71.0146H20.4375C20.4557 70.3037 20.6084 69.6543 20.8955 69.0664C21.1735 68.4056 21.8298 67.7061 22.8643 66.9678C23.762 66.3252 24.3431 65.8649 24.6074 65.5869C25.013 65.154 25.2158 64.68 25.2158 64.165C25.2158 63.7458 25.0996 63.3971 24.8672 63.1191ZM31.6484 71.2607C30.3861 71.2607 29.4997 70.8187 28.9893 69.9346C28.4834 69.0505 28.2305 67.7904 28.2305 66.1543C28.2305 64.5182 28.4834 63.2559 28.9893 62.3672C29.4997 61.4785 30.3861 61.0342 31.6484 61.0342C32.9108 61.0342 33.7972 61.4785 34.3076 62.3672C34.8135 63.2559 35.0664 64.5182 35.0664 66.1543C35.0664 67.7904 34.8112 69.0505 34.3008 69.9346C33.7949 70.8187 32.9108 71.2607 31.6484 71.2607ZM32.79 68.7656C32.9678 68.1641 33.0566 67.2936 33.0566 66.1543C33.0566 64.9603 32.9655 64.0762 32.7832 63.502C32.6055 62.9277 32.2272 62.6406 31.6484 62.6406C31.0697 62.6406 30.6868 62.9277 30.5 63.502C30.3132 64.0762 30.2197 64.9603 30.2197 66.1543C30.2197 67.2936 30.3132 68.1663 30.5 68.7725C30.6868 69.374 31.0697 69.6748 31.6484 69.6748C32.2272 69.6748 32.6077 69.3717 32.79 68.7656ZM39.4414 71.2607C38.179 71.2607 37.2926 70.8187 36.7822 69.9346C36.2764 69.0505 36.0234 67.7904 36.0234 66.1543C36.0234 64.5182 36.2764 63.2559 36.7822 62.3672C37.2926 61.4785 38.179 61.0342 39.4414 61.0342C40.7038 61.0342 41.5902 61.4785 42.1006 62.3672C42.6064 63.2559 42.8594 64.5182 42.8594 66.1543C42.8594 67.7904 42.6042 69.0505 42.0938 69.9346C41.5879 70.8187 40.7038 71.2607 39.4414 71.2607ZM40.583 68.7656C40.7607 68.1641 40.8496 67.2936 40.8496 66.1543C40.8496 64.9603 40.7585 64.0762 40.5762 63.502C40.3984 62.9277 40.0202 62.6406 39.4414 62.6406C38.8626 62.6406 38.4798 62.9277 38.293 63.502C38.1061 64.0762 38.0127 64.9603 38.0127 66.1543C38.0127 67.2936 38.1061 68.1663 38.293 68.7725C38.4798 69.374 38.8626 69.6748 39.4414 69.6748C40.0202 69.6748 40.4007 69.3717 40.583 68.7656Z" fill="#23483B"/>
<path d="M53.135 332.711C52.9026 332.433 52.5699 332.294 52.137 332.294C51.5445 332.294 51.1412 332.515 50.927 332.958C50.804 333.213 50.731 333.618 50.7083 334.174H48.8147C48.8466 333.331 48.9993 332.65 49.2727 332.13C49.7922 331.141 50.7151 330.647 52.0413 330.647C53.0894 330.647 53.9234 330.939 54.5432 331.522C55.163 332.101 55.4729 332.869 55.4729 333.826C55.4729 334.559 55.2542 335.211 54.8167 335.781C54.5295 336.159 54.0579 336.581 53.4016 337.045L52.6223 337.599C52.1347 337.945 51.7997 338.196 51.6174 338.351C51.4397 338.506 51.2893 338.686 51.1663 338.891H55.4934V340.607H48.7053C48.7236 339.896 48.8762 339.247 49.1633 338.659C49.4413 337.998 50.0976 337.298 51.1321 336.56C52.0299 335.917 52.6109 335.457 52.8752 335.179C53.2808 334.746 53.4836 334.272 53.4836 333.757C53.4836 333.338 53.3674 332.989 53.135 332.711ZM59.9163 340.853C58.6539 340.853 57.7675 340.411 57.2571 339.527C56.7512 338.643 56.4983 337.383 56.4983 335.747C56.4983 334.111 56.7512 332.848 57.2571 331.959C57.7675 331.071 58.6539 330.626 59.9163 330.626C61.1786 330.626 62.065 331.071 62.5754 331.959C63.0813 332.848 63.3342 334.111 63.3342 335.747C63.3342 337.383 63.079 338.643 62.5686 339.527C62.0627 340.411 61.1786 340.853 59.9163 340.853ZM61.0579 338.358C61.2356 337.756 61.3245 336.886 61.3245 335.747C61.3245 334.553 61.2333 333.668 61.051 333.094C60.8733 332.52 60.495 332.233 59.9163 332.233C59.3375 332.233 58.9547 332.52 58.7678 333.094C58.581 333.668 58.4875 334.553 58.4875 335.747C58.4875 336.886 58.581 337.759 58.7678 338.365C58.9547 338.966 59.3375 339.267 59.9163 339.267C60.495 339.267 60.8756 338.964 61.0579 338.358ZM69.1516 340.607H67.1555V333.771H64.8245V332.445C65.4397 332.417 65.8704 332.376 66.1165 332.322C66.5084 332.235 66.8274 332.062 67.0735 331.802C67.2421 331.625 67.3697 331.388 67.4563 331.091C67.5064 330.914 67.5315 330.781 67.5315 330.695H69.1516V340.607ZM77.8127 333.88C77.2932 334.619 76.858 335.38 76.5071 336.164C76.2291 336.779 75.9784 337.531 75.7551 338.419C75.5318 339.308 75.4202 340.037 75.4202 340.607H73.3967C73.456 338.83 74.0393 336.982 75.1467 335.063C75.8622 333.874 76.4615 333.044 76.9446 332.575H72.0022L72.0295 330.825H79.0295V332.349C78.7379 332.636 78.3323 333.147 77.8127 333.88Z" fill="#23483B"/>
<path d="M108.829 332.711C108.596 332.433 108.264 332.294 107.831 332.294C107.238 332.294 106.835 332.515 106.621 332.958C106.498 333.213 106.425 333.618 106.402 334.174H104.508C104.54 333.331 104.693 332.65 104.966 332.13C105.486 331.141 106.409 330.647 107.735 330.647C108.783 330.647 109.617 330.939 110.237 331.522C110.857 332.101 111.167 332.869 111.167 333.826C111.167 334.559 110.948 335.211 110.51 335.781C110.223 336.159 109.751 336.581 109.095 337.045L108.316 337.599C107.828 337.945 107.493 338.196 107.311 338.351C107.133 338.506 106.983 338.686 106.86 338.891H111.187V340.607H104.399C104.417 339.896 104.57 339.247 104.857 338.659C105.135 337.998 105.791 337.298 106.826 336.56C107.724 335.917 108.305 335.457 108.569 335.179C108.974 334.746 109.177 334.272 109.177 333.757C109.177 333.338 109.061 332.989 108.829 332.711ZM115.61 340.853C114.348 340.853 113.461 340.411 112.951 339.527C112.445 338.643 112.192 337.383 112.192 335.747C112.192 334.111 112.445 332.848 112.951 331.959C113.461 331.071 114.348 330.626 115.61 330.626C116.872 330.626 117.759 331.071 118.269 331.959C118.775 332.848 119.028 334.111 119.028 335.747C119.028 337.383 118.773 338.643 118.262 339.527C117.756 340.411 116.872 340.853 115.61 340.853ZM116.751 338.358C116.929 337.756 117.018 336.886 117.018 335.747C117.018 334.553 116.927 333.668 116.745 333.094C116.567 332.52 116.189 332.233 115.61 332.233C115.031 332.233 114.648 332.52 114.461 333.094C114.275 333.668 114.181 334.553 114.181 335.747C114.181 336.886 114.275 337.759 114.461 338.365C114.648 338.966 115.031 339.267 115.61 339.267C116.189 339.267 116.569 338.964 116.751 338.358ZM124.845 340.607H122.849V333.771H120.518V332.445C121.133 332.417 121.564 332.376 121.81 332.322C122.202 332.235 122.521 332.062 122.767 331.802C122.936 331.625 123.063 331.388 123.15 331.091C123.2 330.914 123.225 330.781 123.225 330.695H124.845V340.607ZM128.564 339.985C127.994 339.402 127.71 338.693 127.71 337.859C127.71 337.303 127.835 336.799 128.085 336.348C128.341 335.897 128.712 335.557 129.2 335.33C128.721 335.011 128.409 334.667 128.263 334.297C128.122 333.924 128.051 333.575 128.051 333.251C128.051 332.531 128.322 331.918 128.865 331.413C129.407 330.902 130.173 330.647 131.162 330.647C132.151 330.647 132.916 330.902 133.459 331.413C134.001 331.918 134.272 332.531 134.272 333.251C134.272 333.575 134.199 333.924 134.053 334.297C133.912 334.667 133.602 334.988 133.124 335.261C133.611 335.535 133.978 335.897 134.224 336.348C134.47 336.799 134.593 337.303 134.593 337.859C134.593 338.693 134.283 339.404 133.664 339.992C133.048 340.575 132.187 340.867 131.08 340.867C129.972 340.867 129.134 340.573 128.564 339.985ZM129.733 337.729C129.733 338.217 129.858 338.595 130.109 338.864C130.364 339.133 130.715 339.267 131.162 339.267C131.608 339.267 131.957 339.133 132.208 338.864C132.463 338.595 132.59 338.217 132.59 337.729C132.59 337.223 132.46 336.84 132.201 336.581C131.946 336.316 131.599 336.184 131.162 336.184C130.724 336.184 130.376 336.316 130.116 336.581C129.861 336.84 129.733 337.223 129.733 337.729ZM130.246 334.352C130.464 334.58 130.77 334.694 131.162 334.694C131.558 334.694 131.863 334.58 132.078 334.352C132.296 334.124 132.406 333.83 132.406 333.47C132.406 333.078 132.296 332.773 132.078 332.554C131.863 332.331 131.558 332.219 131.162 332.219C130.77 332.219 130.462 332.331 130.239 332.554C130.02 332.773 129.911 333.078 129.911 333.47C129.911 333.83 130.022 334.124 130.246 334.352Z" fill="#23483B"/>
<path d="M162.666 332.711C162.433 332.433 162.101 332.294 161.668 332.294C161.075 332.294 160.672 332.515 160.458 332.958C160.335 333.213 160.262 333.618 160.239 334.174H158.346C158.377 333.331 158.53 332.65 158.804 332.13C159.323 331.141 160.246 330.647 161.572 330.647C162.62 330.647 163.454 330.939 164.074 331.522C164.694 332.101 165.004 332.869 165.004 333.826C165.004 334.559 164.785 335.211 164.347 335.781C164.06 336.159 163.589 336.581 162.932 337.045L162.153 337.599C161.666 337.945 161.331 338.196 161.148 338.351C160.971 338.506 160.82 338.686 160.697 338.891H165.024V340.607H158.236C158.254 339.896 158.407 339.247 158.694 338.659C158.972 337.998 159.628 337.298 160.663 336.56C161.561 335.917 162.142 335.457 162.406 335.179C162.812 334.746 163.014 334.272 163.014 333.757C163.014 333.338 162.898 332.989 162.666 332.711ZM169.447 340.853C168.185 340.853 167.298 340.411 166.788 339.527C166.282 338.643 166.029 337.383 166.029 335.747C166.029 334.111 166.282 332.848 166.788 331.959C167.298 331.071 168.185 330.626 169.447 330.626C170.709 330.626 171.596 331.071 172.106 331.959C172.612 332.848 172.865 334.111 172.865 335.747C172.865 337.383 172.61 338.643 172.099 339.527C171.594 340.411 170.709 340.853 169.447 340.853ZM170.589 338.358C170.766 337.756 170.855 336.886 170.855 335.747C170.855 334.553 170.764 333.668 170.582 333.094C170.404 332.52 170.026 332.233 169.447 332.233C168.868 332.233 168.485 332.52 168.299 333.094C168.112 333.668 168.018 334.553 168.018 335.747C168.018 336.886 168.112 337.759 168.299 338.365C168.485 338.966 168.868 339.267 169.447 339.267C170.026 339.267 170.406 338.964 170.589 338.358ZM178.682 340.607H176.686V333.771H174.355V332.445C174.971 332.417 175.401 332.376 175.647 332.322C176.039 332.235 176.358 332.062 176.604 331.802C176.773 331.625 176.901 331.388 176.987 331.091C177.037 330.914 177.062 330.781 177.062 330.695H178.682V340.607ZM184.814 340.894C184.071 340.894 183.404 340.675 182.811 340.238C182.219 339.796 181.879 339.153 181.793 338.31H183.734C183.78 338.602 183.903 338.839 184.103 339.021C184.304 339.203 184.57 339.294 184.903 339.294C185.546 339.294 185.997 338.939 186.257 338.228C186.398 337.836 186.487 337.264 186.523 336.512C186.346 336.736 186.156 336.906 185.956 337.025C185.591 337.244 185.142 337.353 184.609 337.353C183.821 337.353 183.121 337.082 182.511 336.54C181.9 335.993 181.595 335.207 181.595 334.181C181.595 333.119 181.9 332.26 182.511 331.604C183.126 330.943 183.923 330.613 184.903 330.613C186.412 330.613 187.446 331.28 188.007 332.616C188.326 333.372 188.485 334.368 188.485 335.603C188.485 336.802 188.332 337.802 188.027 338.604C187.444 340.131 186.373 340.894 184.814 340.894ZM184.131 332.52C183.757 332.812 183.57 333.306 183.57 334.003C183.57 334.591 183.689 335.033 183.926 335.33C184.167 335.621 184.536 335.767 185.033 335.767C185.302 335.767 185.555 335.69 185.792 335.535C186.234 335.252 186.455 334.762 186.455 334.065C186.455 333.504 186.323 333.06 186.058 332.732C185.799 332.404 185.441 332.24 184.985 332.24C184.652 332.24 184.368 332.333 184.131 332.52Z" fill="#23483B"/>
<path d="M218.359 332.711C218.127 332.433 217.794 332.294 217.361 332.294C216.769 332.294 216.366 332.515 216.151 332.958C216.028 333.213 215.956 333.618 215.933 334.174H214.039C214.071 333.331 214.224 332.65 214.497 332.13C215.017 331.141 215.94 330.647 217.266 330.647C218.314 330.647 219.148 330.939 219.768 331.522C220.387 332.101 220.697 332.869 220.697 333.826C220.697 334.559 220.479 335.211 220.041 335.781C219.754 336.159 219.282 336.581 218.626 337.045L217.847 337.599C217.359 337.945 217.024 338.196 216.842 338.351C216.664 338.506 216.514 338.686 216.391 338.891H220.718V340.607H213.93C213.948 339.896 214.101 339.247 214.388 338.659C214.666 337.998 215.322 337.298 216.357 336.56C217.254 335.917 217.835 335.457 218.1 335.179C218.505 334.746 218.708 334.272 218.708 333.757C218.708 333.338 218.592 332.989 218.359 332.711ZM225.141 340.853C223.878 340.853 222.992 340.411 222.482 339.527C221.976 338.643 221.723 337.383 221.723 335.747C221.723 334.111 221.976 332.848 222.482 331.959C222.992 331.071 223.878 330.626 225.141 330.626C226.403 330.626 227.29 331.071 227.8 331.959C228.306 332.848 228.559 334.111 228.559 335.747C228.559 337.383 228.304 338.643 227.793 339.527C227.287 340.411 226.403 340.853 225.141 340.853ZM226.282 338.358C226.46 337.756 226.549 336.886 226.549 335.747C226.549 334.553 226.458 333.668 226.276 333.094C226.098 332.52 225.72 332.233 225.141 332.233C224.562 332.233 224.179 332.52 223.992 333.094C223.805 333.668 223.712 334.553 223.712 335.747C223.712 336.886 223.805 337.759 223.992 338.365C224.179 338.966 224.562 339.267 225.141 339.267C225.72 339.267 226.1 338.964 226.282 338.358ZM233.945 332.711C233.713 332.433 233.38 332.294 232.947 332.294C232.355 332.294 231.952 332.515 231.737 332.958C231.614 333.213 231.541 333.618 231.519 334.174H229.625C229.657 333.331 229.81 332.65 230.083 332.13C230.603 331.141 231.526 330.647 232.852 330.647C233.9 330.647 234.734 330.939 235.354 331.522C235.973 332.101 236.283 332.869 236.283 333.826C236.283 334.559 236.065 335.211 235.627 335.781C235.34 336.159 234.868 336.581 234.212 337.045L233.433 337.599C232.945 337.945 232.61 338.196 232.428 338.351C232.25 338.506 232.1 338.686 231.977 338.891H236.304V340.607H229.516C229.534 339.896 229.687 339.247 229.974 338.659C230.252 337.998 230.908 337.298 231.943 336.56C232.84 335.917 233.421 335.457 233.686 335.179C234.091 334.746 234.294 334.272 234.294 333.757C234.294 333.338 234.178 332.989 233.945 332.711ZM240.727 340.853C239.464 340.853 238.578 340.411 238.068 339.527C237.562 338.643 237.309 337.383 237.309 335.747C237.309 334.111 237.562 332.848 238.068 331.959C238.578 331.071 239.464 330.626 240.727 330.626C241.989 330.626 242.875 331.071 243.386 331.959C243.892 332.848 244.145 334.111 244.145 335.747C244.145 337.383 243.889 338.643 243.379 339.527C242.873 340.411 241.989 340.853 240.727 340.853ZM241.868 338.358C242.046 337.756 242.135 336.886 242.135 335.747C242.135 334.553 242.044 333.668 241.861 333.094C241.684 332.52 241.305 332.233 240.727 332.233C240.148 332.233 239.765 332.52 239.578 333.094C239.391 333.668 239.298 334.553 239.298 335.747C239.298 336.886 239.391 337.759 239.578 338.365C239.765 338.966 240.148 339.267 240.727 339.267C241.305 339.267 241.686 338.964 241.868 338.358Z" fill="#23483B"/>
<path d="M272.197 332.711C271.964 332.433 271.632 332.294 271.199 332.294C270.606 332.294 270.203 332.515 269.989 332.958C269.866 333.213 269.793 333.618 269.77 334.174H267.876C267.908 333.331 268.061 332.65 268.334 332.13C268.854 331.141 269.777 330.647 271.103 330.647C272.151 330.647 272.985 330.939 273.605 331.522C274.225 332.101 274.535 332.869 274.535 333.826C274.535 334.559 274.316 335.211 273.878 335.781C273.591 336.159 273.12 336.581 272.463 337.045L271.684 337.599C271.196 337.945 270.861 338.196 270.679 338.351C270.501 338.506 270.351 338.686 270.228 338.891H274.555V340.607H267.767C267.785 339.896 267.938 339.247 268.225 338.659C268.503 337.998 269.159 337.298 270.194 336.56C271.092 335.917 271.673 335.457 271.937 335.179C272.342 334.746 272.545 334.272 272.545 333.757C272.545 333.338 272.429 332.989 272.197 332.711ZM278.978 340.853C277.716 340.853 276.829 340.411 276.319 339.527C275.813 338.643 275.56 337.383 275.56 335.747C275.56 334.111 275.813 332.848 276.319 331.959C276.829 331.071 277.716 330.626 278.978 330.626C280.24 330.626 281.127 331.071 281.637 331.959C282.143 332.848 282.396 334.111 282.396 335.747C282.396 337.383 282.141 338.643 281.63 339.527C281.124 340.411 280.24 340.853 278.978 340.853ZM280.12 338.358C280.297 337.756 280.386 336.886 280.386 335.747C280.386 334.553 280.295 333.668 280.113 333.094C279.935 332.52 279.557 332.233 278.978 332.233C278.399 332.233 278.016 332.52 277.829 333.094C277.643 333.668 277.549 334.553 277.549 335.747C277.549 336.886 277.643 337.759 277.829 338.365C278.016 338.966 278.399 339.267 278.978 339.267C279.557 339.267 279.937 338.964 280.12 338.358ZM287.783 332.711C287.55 332.433 287.217 332.294 286.785 332.294C286.192 332.294 285.789 332.515 285.575 332.958C285.452 333.213 285.379 333.618 285.356 334.174H283.462C283.494 333.331 283.647 332.65 283.92 332.13C284.44 331.141 285.363 330.647 286.689 330.647C287.737 330.647 288.571 330.939 289.191 331.522C289.811 332.101 290.12 332.869 290.12 333.826C290.12 334.559 289.902 335.211 289.464 335.781C289.177 336.159 288.705 336.581 288.049 337.045L287.27 337.599C286.782 337.945 286.447 338.196 286.265 338.351C286.087 338.506 285.937 338.686 285.814 338.891H290.141V340.607H283.353C283.371 339.896 283.524 339.247 283.811 338.659C284.089 337.998 284.745 337.298 285.78 336.56C286.677 335.917 287.259 335.457 287.523 335.179C287.928 334.746 288.131 334.272 288.131 333.757C288.131 333.338 288.015 332.989 287.783 332.711ZM296.006 340.607H294.01V333.771H291.679V332.445C292.294 332.417 292.725 332.376 292.971 332.322C293.363 332.235 293.682 332.062 293.928 331.802C294.097 331.625 294.224 331.388 294.311 331.091C294.361 330.914 294.386 330.781 294.386 330.695H296.006V340.607Z" fill="#23483B"/>
<path d="M327.89 332.711C327.658 332.433 327.325 332.294 326.892 332.294C326.3 332.294 325.897 332.515 325.682 332.958C325.559 333.213 325.486 333.618 325.464 334.174H323.57C323.602 333.331 323.755 332.65 324.028 332.13C324.548 331.141 325.47 330.647 326.797 330.647C327.845 330.647 328.679 330.939 329.299 331.522C329.918 332.101 330.228 332.869 330.228 333.826C330.228 334.559 330.009 335.211 329.572 335.781C329.285 336.159 328.813 336.581 328.157 337.045L327.378 337.599C326.89 337.945 326.555 338.196 326.373 338.351C326.195 338.506 326.045 338.686 325.922 338.891H330.249V340.607H323.461C323.479 339.896 323.632 339.247 323.919 338.659C324.197 337.998 324.853 337.298 325.887 336.56C326.785 335.917 327.366 335.457 327.631 335.179C328.036 334.746 328.239 334.272 328.239 333.757C328.239 333.338 328.123 332.989 327.89 332.711ZM334.672 340.853C333.409 340.853 332.523 340.411 332.012 339.527C331.507 338.643 331.254 337.383 331.254 335.747C331.254 334.111 331.507 332.848 332.012 331.959C332.523 331.071 333.409 330.626 334.672 330.626C335.934 330.626 336.82 331.071 337.331 331.959C337.837 332.848 338.09 334.111 338.09 335.747C338.09 337.383 337.834 338.643 337.324 339.527C336.818 340.411 335.934 340.853 334.672 340.853ZM335.813 338.358C335.991 337.756 336.08 336.886 336.08 335.747C336.08 334.553 335.989 333.668 335.806 333.094C335.629 332.52 335.25 332.233 334.672 332.233C334.093 332.233 333.71 332.52 333.523 333.094C333.336 333.668 333.243 334.553 333.243 335.747C333.243 336.886 333.336 337.759 333.523 338.365C333.71 338.966 334.093 339.267 334.672 339.267C335.25 339.267 335.631 338.964 335.813 338.358ZM343.476 332.711C343.244 332.433 342.911 332.294 342.478 332.294C341.886 332.294 341.482 332.515 341.268 332.958C341.145 333.213 341.072 333.618 341.049 334.174H339.156C339.188 333.331 339.341 332.65 339.614 332.13C340.133 331.141 341.056 330.647 342.383 330.647C343.431 330.647 344.265 330.939 344.884 331.522C345.504 332.101 345.814 332.869 345.814 333.826C345.814 334.559 345.595 335.211 345.158 335.781C344.871 336.159 344.399 336.581 343.743 337.045L342.964 337.599C342.476 337.945 342.141 338.196 341.959 338.351C341.781 338.506 341.631 338.686 341.508 338.891H345.835V340.607H339.047C339.065 339.896 339.217 339.247 339.505 338.659C339.783 337.998 340.439 337.298 341.473 336.56C342.371 335.917 342.952 335.457 343.216 335.179C343.622 334.746 343.825 334.272 343.825 333.757C343.825 333.338 343.709 332.989 343.476 332.711ZM351.269 332.711C351.037 332.433 350.704 332.294 350.271 332.294C349.679 332.294 349.275 332.515 349.061 332.958C348.938 333.213 348.865 333.618 348.842 334.174H346.949C346.981 333.331 347.133 332.65 347.407 332.13C347.926 331.141 348.849 330.647 350.175 330.647C351.224 330.647 352.058 330.939 352.677 331.522C353.297 332.101 353.607 332.869 353.607 333.826C353.607 334.559 353.388 335.211 352.951 335.781C352.664 336.159 352.192 336.581 351.536 337.045L350.757 337.599C350.269 337.945 349.934 338.196 349.752 338.351C349.574 338.506 349.424 338.686 349.3 338.891H353.628V340.607H346.84C346.858 339.896 347.01 339.247 347.298 338.659C347.576 337.998 348.232 337.298 349.266 336.56C350.164 335.917 350.745 335.457 351.009 335.179C351.415 334.746 351.618 334.272 351.618 333.757C351.618 333.338 351.502 332.989 351.269 332.711Z" fill="#23483B"/>
<path d="M383.584 332.711C383.352 332.433 383.019 332.294 382.586 332.294C381.993 332.294 381.59 332.515 381.376 332.958C381.253 333.213 381.18 333.618 381.157 334.174H379.264C379.296 333.331 379.448 332.65 379.722 332.13C380.241 331.141 381.164 330.647 382.49 330.647C383.538 330.647 384.372 330.939 384.992 331.522C385.612 332.101 385.922 332.869 385.922 333.826C385.922 334.559 385.703 335.211 385.266 335.781C384.979 336.159 384.507 336.581 383.851 337.045L383.071 337.599C382.584 337.945 382.249 338.196 382.066 338.351C381.889 338.506 381.738 338.686 381.615 338.891H385.942V340.607H379.154C379.173 339.896 379.325 339.247 379.612 338.659C379.89 337.998 380.547 337.298 381.581 336.56C382.479 335.917 383.06 335.457 383.324 335.179C383.73 334.746 383.933 334.272 383.933 333.757C383.933 333.338 383.816 332.989 383.584 332.711ZM390.365 340.853C389.103 340.853 388.216 340.411 387.706 339.527C387.2 338.643 386.947 337.383 386.947 335.747C386.947 334.111 387.2 332.848 387.706 331.959C388.216 331.071 389.103 330.626 390.365 330.626C391.628 330.626 392.514 331.071 393.024 331.959C393.53 332.848 393.783 334.111 393.783 335.747C393.783 337.383 393.528 338.643 393.018 339.527C392.512 340.411 391.628 340.853 390.365 340.853ZM391.507 338.358C391.685 337.756 391.773 336.886 391.773 335.747C391.773 334.553 391.682 333.668 391.5 333.094C391.322 332.52 390.944 332.233 390.365 332.233C389.786 332.233 389.404 332.52 389.217 333.094C389.03 333.668 388.937 334.553 388.937 335.747C388.937 336.886 389.03 337.759 389.217 338.365C389.404 338.966 389.786 339.267 390.365 339.267C390.944 339.267 391.325 338.964 391.507 338.358ZM399.17 332.711C398.938 332.433 398.605 332.294 398.172 332.294C397.579 332.294 397.176 332.515 396.962 332.958C396.839 333.213 396.766 333.618 396.743 334.174H394.85C394.882 333.331 395.034 332.65 395.308 332.13C395.827 331.141 396.75 330.647 398.076 330.647C399.124 330.647 399.958 330.939 400.578 331.522C401.198 332.101 401.508 332.869 401.508 333.826C401.508 334.559 401.289 335.211 400.852 335.781C400.564 336.159 400.093 336.581 399.437 337.045L398.657 337.599C398.17 337.945 397.835 338.196 397.652 338.351C397.475 338.506 397.324 338.686 397.201 338.891H401.528V340.607H394.74C394.758 339.896 394.911 339.247 395.198 338.659C395.476 337.998 396.132 337.298 397.167 336.56C398.065 335.917 398.646 335.457 398.91 335.179C399.316 334.746 399.519 334.272 399.519 333.757C399.519 333.338 399.402 332.989 399.17 332.711ZM404.775 332.67C404.557 332.962 404.452 333.352 404.461 333.839H402.643C402.661 333.347 402.745 332.88 402.896 332.438C403.055 332.051 403.306 331.693 403.647 331.365C403.903 331.132 404.206 330.955 404.557 330.832C404.908 330.708 405.338 330.647 405.849 330.647C406.797 330.647 407.56 330.893 408.139 331.385C408.722 331.873 409.014 332.529 409.014 333.354C409.014 333.937 408.84 334.43 408.494 334.831C408.275 335.081 408.048 335.252 407.811 335.343C407.988 335.343 408.243 335.496 408.576 335.801C409.073 336.262 409.321 336.89 409.321 337.688C409.321 338.527 409.03 339.265 408.446 339.903C407.868 340.536 407.008 340.853 405.869 340.853C404.465 340.853 403.49 340.395 402.943 339.479C402.656 338.991 402.497 338.353 402.465 337.565H404.379C404.379 337.961 404.443 338.29 404.57 338.549C404.807 339.028 405.238 339.267 405.862 339.267C406.245 339.267 406.578 339.137 406.86 338.877C407.147 338.613 407.291 338.235 407.291 337.743C407.291 337.091 407.027 336.656 406.498 336.437C406.197 336.314 405.723 336.252 405.076 336.252V334.858C405.71 334.849 406.152 334.787 406.402 334.673C406.835 334.482 407.052 334.095 407.052 333.511C407.052 333.133 406.94 332.825 406.717 332.588C406.498 332.351 406.188 332.233 405.787 332.233C405.327 332.233 404.99 332.379 404.775 332.67Z" fill="#23483B"/>
<path d="M437.421 332.711C437.189 332.433 436.856 332.294 436.423 332.294C435.831 332.294 435.427 332.515 435.213 332.958C435.09 333.213 435.017 333.618 434.994 334.174H433.101C433.133 333.331 433.285 332.65 433.559 332.13C434.078 331.141 435.001 330.647 436.327 330.647C437.376 330.647 438.21 330.939 438.829 331.522C439.449 332.101 439.759 332.869 439.759 333.826C439.759 334.559 439.54 335.211 439.103 335.781C438.816 336.159 438.344 336.581 437.688 337.045L436.908 337.599C436.421 337.945 436.086 338.196 435.904 338.351C435.726 338.506 435.575 338.686 435.452 338.891H439.78V340.607H432.991C433.01 339.896 433.162 339.247 433.449 338.659C433.727 337.998 434.384 337.298 435.418 336.56C436.316 335.917 436.897 335.457 437.161 335.179C437.567 334.746 437.77 334.272 437.77 333.757C437.77 333.338 437.654 332.989 437.421 332.711ZM444.202 340.853C442.94 340.853 442.054 340.411 441.543 339.527C441.037 338.643 440.784 337.383 440.784 335.747C440.784 334.111 441.037 332.848 441.543 331.959C442.054 331.071 442.94 330.626 444.202 330.626C445.465 330.626 446.351 331.071 446.862 331.959C447.367 332.848 447.62 334.111 447.62 335.747C447.62 337.383 447.365 338.643 446.855 339.527C446.349 340.411 445.465 340.853 444.202 340.853ZM445.344 338.358C445.522 337.756 445.611 336.886 445.611 335.747C445.611 334.553 445.519 333.668 445.337 333.094C445.159 332.52 444.781 332.233 444.202 332.233C443.624 332.233 443.241 332.52 443.054 333.094C442.867 333.668 442.774 334.553 442.774 335.747C442.774 336.886 442.867 337.759 443.054 338.365C443.241 338.966 443.624 339.267 444.202 339.267C444.781 339.267 445.162 338.964 445.344 338.358ZM453.007 332.711C452.775 332.433 452.442 332.294 452.009 332.294C451.417 332.294 451.013 332.515 450.799 332.958C450.676 333.213 450.603 333.618 450.58 334.174H448.687C448.719 333.331 448.871 332.65 449.145 332.13C449.664 331.141 450.587 330.647 451.913 330.647C452.962 330.647 453.795 330.939 454.415 331.522C455.035 332.101 455.345 332.869 455.345 333.826C455.345 334.559 455.126 335.211 454.689 335.781C454.402 336.159 453.93 336.581 453.274 337.045L452.494 337.599C452.007 337.945 451.672 338.196 451.49 338.351C451.312 338.506 451.161 338.686 451.038 338.891H455.365V340.607H448.577C448.596 339.896 448.748 339.247 449.035 338.659C449.313 337.998 449.97 337.298 451.004 336.56C451.902 335.917 452.483 335.457 452.747 335.179C453.153 334.746 453.356 334.272 453.356 333.757C453.356 333.338 453.24 332.989 453.007 332.711ZM463.254 336.95V338.474H462.133V340.607H460.226V338.474H456.302V336.772L459.946 330.756H462.133V336.95H463.254ZM457.744 336.95H460.226V332.67L457.744 336.95Z" fill="#BA6565"/>
<path d="M493.115 332.711C492.882 332.433 492.55 332.294 492.117 332.294C491.524 332.294 491.121 332.515 490.907 332.958C490.784 333.213 490.711 333.618 490.688 334.174H488.794C488.826 333.331 488.979 332.65 489.253 332.13C489.772 331.141 490.695 330.647 492.021 330.647C493.069 330.647 493.903 330.939 494.523 331.522C495.143 332.101 495.453 332.869 495.453 333.826C495.453 334.559 495.234 335.211 494.796 335.781C494.509 336.159 494.038 336.581 493.381 337.045L492.602 337.599C492.114 337.945 491.78 338.196 491.597 338.351C491.419 338.506 491.269 338.686 491.146 338.891H495.473V340.607H488.685C488.703 339.896 488.856 339.247 489.143 338.659C489.421 337.998 490.077 337.298 491.112 336.56C492.01 335.917 492.591 335.457 492.855 335.179C493.261 334.746 493.463 334.272 493.463 333.757C493.463 333.338 493.347 332.989 493.115 332.711ZM499.896 340.853C498.634 340.853 497.747 340.411 497.237 339.527C496.731 338.643 496.478 337.383 496.478 335.747C496.478 334.111 496.731 332.848 497.237 331.959C497.747 331.071 498.634 330.626 499.896 330.626C501.158 330.626 502.045 331.071 502.555 331.959C503.061 332.848 503.314 334.111 503.314 335.747C503.314 337.383 503.059 338.643 502.548 339.527C502.043 340.411 501.158 340.853 499.896 340.853ZM501.038 338.358C501.215 337.756 501.304 336.886 501.304 335.747C501.304 334.553 501.213 333.668 501.031 333.094C500.853 332.52 500.475 332.233 499.896 332.233C499.317 332.233 498.934 332.52 498.748 333.094C498.561 333.668 498.467 334.553 498.467 335.747C498.467 336.886 498.561 337.759 498.748 338.365C498.934 338.966 499.317 339.267 499.896 339.267C500.475 339.267 500.855 338.964 501.038 338.358ZM508.701 332.711C508.468 332.433 508.136 332.294 507.703 332.294C507.11 332.294 506.707 332.515 506.493 332.958C506.37 333.213 506.297 333.618 506.274 334.174H504.38C504.412 333.331 504.565 332.65 504.838 332.13C505.358 331.141 506.281 330.647 507.607 330.647C508.655 330.647 509.489 330.939 510.109 331.522C510.729 332.101 511.039 332.869 511.039 333.826C511.039 334.559 510.82 335.211 510.382 335.781C510.095 336.159 509.624 336.581 508.967 337.045L508.188 337.599C507.7 337.945 507.365 338.196 507.183 338.351C507.005 338.506 506.855 338.686 506.732 338.891H511.059V340.607H504.271C504.289 339.896 504.442 339.247 504.729 338.659C505.007 337.998 505.663 337.298 506.698 336.56C507.596 335.917 508.177 335.457 508.441 335.179C508.847 334.746 509.049 334.272 509.049 333.757C509.049 333.338 508.933 332.989 508.701 332.711ZM515.359 335.685C515.122 335.685 514.917 335.715 514.744 335.774C514.438 335.883 514.208 336.086 514.053 336.382L512.303 336.3L513.001 330.825H518.462V332.479H514.409L514.053 334.646C514.354 334.45 514.589 334.32 514.757 334.256C515.04 334.152 515.384 334.099 515.79 334.099C516.61 334.099 517.325 334.375 517.936 334.926C518.547 335.478 518.852 336.28 518.852 337.333C518.852 338.249 518.558 339.067 517.97 339.787C517.382 340.507 516.503 340.867 515.332 340.867C514.388 340.867 513.614 340.614 513.007 340.108C512.401 339.602 512.064 338.884 511.996 337.955H513.937C514.015 338.378 514.163 338.707 514.381 338.939C514.6 339.167 514.919 339.281 515.338 339.281C515.822 339.281 516.188 339.112 516.439 338.775C516.694 338.433 516.822 338.005 516.822 337.49C516.822 336.984 516.703 336.558 516.466 336.211C516.229 335.861 515.86 335.685 515.359 335.685Z" fill="#BA6565"/>
<rect x="48.2678" y="57.5649" width="469.683" height="250.621" fill="#798E7F" fill-opacity="0.5"/>
<line x1="48.2678" y1="251.742" x2="517.951" y2="251.742" stroke="white" stroke-width="1.5"/>
<line x1="48.2678" y1="192.336" x2="517.951" y2="192.336" stroke="white" stroke-width="1.5"/>
<line x1="48.2678" y1="132.929" x2="517.951" y2="132.929" stroke="white" stroke-width="1.5"/>
<line x1="48.2678" y1="73.5225" x2="517.951" y2="73.5225" stroke="white" stroke-width="1.5"/>
<path d="M48.2678 280.339L112.238 270.047L166.801 260.691L229.83 230.75L283.452 210.165L347.422 191.452L397.281 163.383" stroke="#23483B" stroke-width="1.5"/>
<path d="M400.066 162.454L452.047 135.536L509.597 90.0527" stroke="#BA6565" stroke-width="1.5" stroke-dasharray="3 3"/>
<line x1="393.818" y1="168.952" x2="393.818" y2="308.186" stroke="white" stroke-width="0.5"/>
<line x1="447.656" y1="142.961" x2="447.656" y2="308.186" stroke="white" stroke-width="0.5"/>
<line x1="501.493" y1="103.976" x2="501.493" y2="308.186" stroke="white" stroke-width="0.5"/>
</svg>
