<svg width="296" height="206" viewBox="0 0 296 206" fill="none" xmlns="http://www.w3.org/2000/svg">
<rect width="296" height="206" fill="#F7F7F5"/>
<path d="M66.0322 12.958H67.9805L70.8652 21.4482L73.7295 12.958H75.6572V23H74.3652V17.0732C74.3652 16.8682 74.3698 16.5286 74.3789 16.0547C74.388 15.5807 74.3926 15.0726 74.3926 14.5303L71.5283 23H70.1816L67.2969 14.5303V14.8379C67.2969 15.084 67.3014 15.46 67.3105 15.9658C67.3242 16.4671 67.3311 16.8363 67.3311 17.0732V23H66.0322V12.958ZM87.21 18.7549C87.1963 18.0394 86.998 17.4993 86.6152 17.1348C86.237 16.7656 85.7744 16.5811 85.2275 16.5811C84.6807 16.5811 84.209 16.7656 83.8125 17.1348C83.416 17.4993 83.1973 18.0394 83.1562 18.7549H87.21ZM82.0078 19.2744C81.8939 19.3519 81.7822 19.4134 81.6729 19.459C81.5635 19.5 81.3698 19.5433 81.0918 19.5889L80.0459 19.7461C79.54 19.8281 79.1777 19.9307 78.959 20.0537C78.599 20.2633 78.4189 20.5915 78.4189 21.0381C78.4189 21.4209 78.5625 21.7148 78.8496 21.9199C79.1413 22.125 79.4831 22.2275 79.875 22.2275C80.0983 22.2275 80.3581 22.1706 80.6543 22.0566C80.9505 21.9427 81.224 21.7673 81.4746 21.5303C81.6979 21.3206 81.8438 21.1064 81.9121 20.8877C81.9531 20.751 81.985 20.5208 82.0078 20.1973V19.2744ZM81.3447 18.5635C81.5771 18.5316 81.7503 18.4495 81.8643 18.3174C81.9782 18.1852 82.0352 17.9984 82.0352 17.7568C82.0352 17.3649 81.9076 17.0664 81.6523 16.8613C81.3971 16.6562 80.9893 16.5537 80.4287 16.5537C79.973 16.5537 79.6084 16.6266 79.335 16.7725C78.8792 17.0413 78.6514 17.4287 78.6514 17.9346H77.4688C77.5143 16.9046 77.9176 16.2005 78.6787 15.8223C79.1162 15.6081 79.7178 15.501 80.4834 15.501C81.0895 15.501 81.609 15.6126 82.042 15.8359C82.4066 16.0319 82.6846 16.2871 82.876 16.6016C83.1449 16.2507 83.4798 15.9795 83.8809 15.7881C84.2865 15.5967 84.7422 15.501 85.248 15.501C85.7812 15.501 86.2734 15.5967 86.7246 15.7881C87.1758 15.9749 87.5518 16.2894 87.8525 16.7314C88.1214 17.096 88.2992 17.5176 88.3857 17.9961C88.4769 18.4701 88.5225 19.0488 88.5225 19.7324H83.1426C83.1654 20.4889 83.3522 21.0882 83.7031 21.5303C84.054 21.9723 84.5462 22.1934 85.1797 22.1934C85.7721 22.1934 86.2233 22.0635 86.5332 21.8037C86.8431 21.5439 87.0573 21.1771 87.1758 20.7031H88.4199C88.3789 21.0677 88.2262 21.4437 87.9619 21.8311C87.6976 22.2139 87.4196 22.501 87.1279 22.6924C86.8089 22.902 86.4831 23.0456 86.1504 23.123C85.8223 23.2051 85.4827 23.2461 85.1318 23.2461C84.4619 23.2461 83.8695 23.0729 83.3545 22.7266C82.8805 22.3757 82.5775 22.0293 82.4453 21.6875C82.0716 22.2389 81.6455 22.6377 81.167 22.8838C80.693 23.1253 80.1781 23.2461 79.6221 23.2461C78.8382 23.2461 78.2321 23.0501 77.8037 22.6582C77.3753 22.2663 77.1611 21.7604 77.1611 21.1406C77.1611 20.3294 77.4368 19.7233 77.9883 19.3223C78.3392 19.0671 78.8086 18.9007 79.3965 18.8232L81.3447 18.5635ZM90.0195 15.6787H91.1885V16.7178C91.5348 16.2894 91.9017 15.9818 92.2891 15.7949C92.6764 15.6081 93.1071 15.5146 93.5811 15.5146C94.6201 15.5146 95.3219 15.877 95.6865 16.6016C95.887 16.998 95.9873 17.5654 95.9873 18.3037V23H94.7363V18.3857C94.7363 17.9391 94.6702 17.5791 94.5381 17.3057C94.3193 16.8499 93.9229 16.6221 93.3486 16.6221C93.057 16.6221 92.8177 16.6517 92.6309 16.7109C92.2936 16.8112 91.9974 17.0117 91.7422 17.3125C91.5371 17.554 91.4027 17.8047 91.3389 18.0645C91.2796 18.3197 91.25 18.6865 91.25 19.165V23H90.0195V15.6787ZM100.396 15.5488C100.971 15.5488 101.472 15.6901 101.9 15.9727C102.133 16.1322 102.37 16.3646 102.611 16.6699V15.7471H103.746V22.4053C103.746 23.335 103.609 24.0687 103.336 24.6064C102.826 25.5999 101.862 26.0967 100.444 26.0967C99.6559 26.0967 98.9928 25.9189 98.4551 25.5635C97.9173 25.2126 97.6165 24.6611 97.5527 23.9092H98.8037C98.863 24.2373 98.9814 24.4902 99.1592 24.668C99.4372 24.9414 99.8747 25.0781 100.472 25.0781C101.415 25.0781 102.033 24.7454 102.324 24.0801C102.497 23.6882 102.577 22.9886 102.563 21.9814C102.317 22.3551 102.021 22.6331 101.675 22.8154C101.328 22.9977 100.87 23.0889 100.301 23.0889C99.5078 23.0889 98.8128 22.8086 98.2158 22.248C97.6234 21.6829 97.3271 20.751 97.3271 19.4521C97.3271 18.2262 97.6257 17.2692 98.2227 16.5811C98.8242 15.8929 99.5488 15.5488 100.396 15.5488ZM102.611 19.3086C102.611 18.4017 102.424 17.7295 102.051 17.292C101.677 16.8545 101.201 16.6357 100.622 16.6357C99.7562 16.6357 99.1637 17.0413 98.8447 17.8525C98.6761 18.2855 98.5918 18.8529 98.5918 19.5547C98.5918 20.3796 98.7581 21.0085 99.0908 21.4414C99.4281 21.8698 99.8792 22.084 100.444 22.084C101.328 22.084 101.951 21.6852 102.311 20.8877C102.511 20.4365 102.611 19.9102 102.611 19.3086ZM106.385 19.4248C106.385 20.2087 106.551 20.8649 106.884 21.3936C107.216 21.9222 107.75 22.1865 108.483 22.1865C109.053 22.1865 109.52 21.9427 109.885 21.4551C110.254 20.9629 110.438 20.2588 110.438 19.3428C110.438 18.4176 110.249 17.734 109.871 17.292C109.493 16.8454 109.026 16.6221 108.47 16.6221C107.85 16.6221 107.346 16.859 106.959 17.333C106.576 17.807 106.385 18.5042 106.385 19.4248ZM108.237 15.5488C108.798 15.5488 109.267 15.6673 109.646 15.9043C109.864 16.041 110.113 16.2803 110.391 16.6221V12.9238H111.573V23H110.466V21.9814C110.179 22.4326 109.839 22.7585 109.447 22.959C109.055 23.1595 108.606 23.2598 108.101 23.2598C107.285 23.2598 106.578 22.918 105.981 22.2344C105.384 21.5462 105.086 20.6325 105.086 19.4932C105.086 18.4268 105.357 17.5039 105.899 16.7246C106.446 15.9408 107.226 15.5488 108.237 15.5488ZM116.447 15.5146C116.967 15.5146 117.47 15.6377 117.958 15.8838C118.446 16.1253 118.817 16.4398 119.072 16.8271C119.318 17.1963 119.482 17.627 119.564 18.1191C119.637 18.4564 119.674 18.9941 119.674 19.7324H114.308C114.33 20.4753 114.506 21.0723 114.834 21.5234C115.162 21.9701 115.67 22.1934 116.358 22.1934C117.001 22.1934 117.514 21.9814 117.896 21.5576C118.115 21.3115 118.27 21.0267 118.361 20.7031H119.571C119.539 20.972 119.432 21.2728 119.25 21.6055C119.072 21.9336 118.872 22.2025 118.648 22.4121C118.275 22.7767 117.812 23.0228 117.261 23.1504C116.965 23.2233 116.63 23.2598 116.256 23.2598C115.344 23.2598 114.572 22.9294 113.938 22.2686C113.305 21.6032 112.988 20.6735 112.988 19.4795C112.988 18.3037 113.307 17.349 113.945 16.6152C114.583 15.8815 115.417 15.5146 116.447 15.5146ZM118.409 18.7549C118.359 18.2217 118.243 17.7956 118.061 17.4766C117.723 16.8841 117.16 16.5879 116.372 16.5879C115.807 16.5879 115.333 16.793 114.95 17.2031C114.567 17.6087 114.365 18.126 114.342 18.7549H118.409ZM121.191 15.6787H122.36V16.7178C122.707 16.2894 123.074 15.9818 123.461 15.7949C123.848 15.6081 124.279 15.5146 124.753 15.5146C125.792 15.5146 126.494 15.877 126.858 16.6016C127.059 16.998 127.159 17.5654 127.159 18.3037V23H125.908V18.3857C125.908 17.9391 125.842 17.5791 125.71 17.3057C125.491 16.8499 125.095 16.6221 124.521 16.6221C124.229 16.6221 123.99 16.6517 123.803 16.7109C123.465 16.8112 123.169 17.0117 122.914 17.3125C122.709 17.554 122.575 17.8047 122.511 18.0645C122.451 18.3197 122.422 18.6865 122.422 19.165V23H121.191V15.6787ZM133.824 21.0518C133.824 21.4072 133.954 21.6875 134.214 21.8926C134.474 22.0977 134.781 22.2002 135.137 22.2002C135.57 22.2002 135.989 22.0999 136.395 21.8994C137.078 21.5667 137.42 21.0221 137.42 20.2656V19.2744C137.27 19.3701 137.076 19.4499 136.839 19.5137C136.602 19.5775 136.369 19.623 136.142 19.6504L135.396 19.7461C134.95 19.8053 134.615 19.8988 134.392 20.0264C134.013 20.2406 133.824 20.5824 133.824 21.0518ZM136.805 18.5635C137.087 18.527 137.276 18.4085 137.372 18.208C137.427 18.0986 137.454 17.9414 137.454 17.7363C137.454 17.3171 137.304 17.014 137.003 16.8271C136.707 16.6357 136.281 16.54 135.725 16.54C135.082 16.54 134.626 16.7132 134.357 17.0596C134.207 17.251 134.109 17.5358 134.063 17.9141H132.915C132.938 17.0117 133.229 16.3851 133.79 16.0342C134.355 15.6787 135.009 15.501 135.752 15.501C136.613 15.501 137.313 15.665 137.851 15.9932C138.384 16.3213 138.65 16.8317 138.65 17.5244V21.7422C138.65 21.8698 138.675 21.9723 138.726 22.0498C138.78 22.1273 138.892 22.166 139.061 22.166C139.115 22.166 139.177 22.1637 139.245 22.1592C139.313 22.1501 139.386 22.1387 139.464 22.125V23.0342C139.272 23.0889 139.127 23.123 139.026 23.1367C138.926 23.1504 138.789 23.1572 138.616 23.1572C138.192 23.1572 137.885 23.0068 137.693 22.7061C137.593 22.5465 137.522 22.321 137.481 22.0293C137.231 22.3574 136.871 22.6423 136.401 22.8838C135.932 23.1253 135.415 23.2461 134.85 23.2461C134.171 23.2461 133.615 23.041 133.182 22.6309C132.753 22.2161 132.539 21.6989 132.539 21.0791C132.539 20.4001 132.751 19.8737 133.175 19.5C133.599 19.1263 134.155 18.8962 134.843 18.8096L136.805 18.5635ZM140.981 14.5645C141 14.054 141.089 13.6803 141.248 13.4434C141.535 13.0241 142.089 12.8145 142.909 12.8145C142.987 12.8145 143.066 12.8167 143.148 12.8213C143.23 12.8258 143.324 12.8327 143.429 12.8418V13.9629C143.301 13.9538 143.208 13.9492 143.148 13.9492C143.094 13.9447 143.041 13.9424 142.991 13.9424C142.618 13.9424 142.394 14.0404 142.321 14.2363C142.248 14.4277 142.212 14.9199 142.212 15.7129H143.429V16.6836H142.198V23H140.981V16.6836H139.963V15.7129H140.981V14.5645ZM149.246 19.4248C149.246 20.2087 149.412 20.8649 149.745 21.3936C150.078 21.9222 150.611 22.1865 151.345 22.1865C151.914 22.1865 152.382 21.9427 152.746 21.4551C153.115 20.9629 153.3 20.2588 153.3 19.3428C153.3 18.4176 153.111 17.734 152.732 17.292C152.354 16.8454 151.887 16.6221 151.331 16.6221C150.711 16.6221 150.208 16.859 149.82 17.333C149.438 17.807 149.246 18.5042 149.246 19.4248ZM151.099 15.5488C151.659 15.5488 152.129 15.6673 152.507 15.9043C152.726 16.041 152.974 16.2803 153.252 16.6221V12.9238H154.435V23H153.327V21.9814C153.04 22.4326 152.701 22.7585 152.309 22.959C151.917 23.1595 151.468 23.2598 150.962 23.2598C150.146 23.2598 149.44 22.918 148.843 22.2344C148.246 21.5462 147.947 20.6325 147.947 19.4932C147.947 18.4268 148.218 17.5039 148.761 16.7246C149.308 15.9408 150.087 15.5488 151.099 15.5488ZM157.203 21.0518C157.203 21.4072 157.333 21.6875 157.593 21.8926C157.853 22.0977 158.16 22.2002 158.516 22.2002C158.949 22.2002 159.368 22.0999 159.773 21.8994C160.457 21.5667 160.799 21.0221 160.799 20.2656V19.2744C160.648 19.3701 160.455 19.4499 160.218 19.5137C159.981 19.5775 159.748 19.623 159.521 19.6504L158.775 19.7461C158.329 19.8053 157.994 19.8988 157.771 20.0264C157.392 20.2406 157.203 20.5824 157.203 21.0518ZM160.184 18.5635C160.466 18.527 160.655 18.4085 160.751 18.208C160.806 18.0986 160.833 17.9414 160.833 17.7363C160.833 17.3171 160.683 17.014 160.382 16.8271C160.086 16.6357 159.66 16.54 159.104 16.54C158.461 16.54 158.005 16.7132 157.736 17.0596C157.586 17.251 157.488 17.5358 157.442 17.9141H156.294C156.317 17.0117 156.608 16.3851 157.169 16.0342C157.734 15.6787 158.388 15.501 159.131 15.501C159.992 15.501 160.692 15.665 161.229 15.9932C161.763 16.3213 162.029 16.8317 162.029 17.5244V21.7422C162.029 21.8698 162.054 21.9723 162.104 22.0498C162.159 22.1273 162.271 22.166 162.439 22.166C162.494 22.166 162.556 22.1637 162.624 22.1592C162.692 22.1501 162.765 22.1387 162.843 22.125V23.0342C162.651 23.0889 162.506 23.123 162.405 23.1367C162.305 23.1504 162.168 23.1572 161.995 23.1572C161.571 23.1572 161.264 23.0068 161.072 22.7061C160.972 22.5465 160.901 22.321 160.86 22.0293C160.61 22.3574 160.25 22.6423 159.78 22.8838C159.311 23.1253 158.794 23.2461 158.229 23.2461C157.549 23.2461 156.993 23.041 156.561 22.6309C156.132 22.2161 155.918 21.6989 155.918 21.0791C155.918 20.4001 156.13 19.8737 156.554 19.5C156.978 19.1263 157.534 18.8962 158.222 18.8096L160.184 18.5635ZM164.299 13.6348H165.543V15.6787H166.712V16.6836H165.543V21.4619C165.543 21.7171 165.63 21.888 165.803 21.9746C165.898 22.0247 166.058 22.0498 166.281 22.0498C166.34 22.0498 166.404 22.0498 166.473 22.0498C166.541 22.0452 166.621 22.0384 166.712 22.0293V23C166.571 23.041 166.423 23.0706 166.268 23.0889C166.117 23.1071 165.953 23.1162 165.775 23.1162C165.201 23.1162 164.812 22.9704 164.606 22.6787C164.401 22.3825 164.299 21.9997 164.299 21.5303V16.6836H163.308V15.6787H164.299V13.6348ZM168.893 21.0518C168.893 21.4072 169.022 21.6875 169.282 21.8926C169.542 22.0977 169.85 22.2002 170.205 22.2002C170.638 22.2002 171.057 22.0999 171.463 21.8994C172.146 21.5667 172.488 21.0221 172.488 20.2656V19.2744C172.338 19.3701 172.144 19.4499 171.907 19.5137C171.67 19.5775 171.438 19.623 171.21 19.6504L170.465 19.7461C170.018 19.8053 169.683 19.8988 169.46 20.0264C169.082 20.2406 168.893 20.5824 168.893 21.0518ZM171.873 18.5635C172.156 18.527 172.345 18.4085 172.44 18.208C172.495 18.0986 172.522 17.9414 172.522 17.7363C172.522 17.3171 172.372 17.014 172.071 16.8271C171.775 16.6357 171.349 16.54 170.793 16.54C170.15 16.54 169.695 16.7132 169.426 17.0596C169.275 17.251 169.177 17.5358 169.132 17.9141H167.983C168.006 17.0117 168.298 16.3851 168.858 16.0342C169.424 15.6787 170.077 15.501 170.82 15.501C171.682 15.501 172.381 15.665 172.919 15.9932C173.452 16.3213 173.719 16.8317 173.719 17.5244V21.7422C173.719 21.8698 173.744 21.9723 173.794 22.0498C173.849 22.1273 173.96 22.166 174.129 22.166C174.184 22.166 174.245 22.1637 174.313 22.1592C174.382 22.1501 174.455 22.1387 174.532 22.125V23.0342C174.341 23.0889 174.195 23.123 174.095 23.1367C173.994 23.1504 173.858 23.1572 173.685 23.1572C173.261 23.1572 172.953 23.0068 172.762 22.7061C172.661 22.5465 172.591 22.321 172.55 22.0293C172.299 22.3574 171.939 22.6423 171.47 22.8838C171 23.1253 170.483 23.2461 169.918 23.2461C169.239 23.2461 168.683 23.041 168.25 22.6309C167.822 22.2161 167.607 21.6989 167.607 21.0791C167.607 20.4001 167.819 19.8737 168.243 19.5C168.667 19.1263 169.223 18.8962 169.911 18.8096L171.873 18.5635ZM179.639 15.7129H180.89V23H179.639V15.7129ZM179.639 12.958H180.89V14.3525H179.639V12.958ZM186.105 22.0293L190.446 16.7793H186.427V15.6787H192.101V16.6836L187.787 21.8994H192.23V23H186.105V22.0293ZM196.701 15.5146C197.221 15.5146 197.724 15.6377 198.212 15.8838C198.7 16.1253 199.071 16.4398 199.326 16.8271C199.572 17.1963 199.736 17.627 199.818 18.1191C199.891 18.4564 199.928 18.9941 199.928 19.7324H194.562C194.584 20.4753 194.76 21.0723 195.088 21.5234C195.416 21.9701 195.924 22.1934 196.612 22.1934C197.255 22.1934 197.768 21.9814 198.15 21.5576C198.369 21.3115 198.524 21.0267 198.615 20.7031H199.825C199.793 20.972 199.686 21.2728 199.504 21.6055C199.326 21.9336 199.126 22.2025 198.902 22.4121C198.529 22.7767 198.066 23.0228 197.515 23.1504C197.218 23.2233 196.883 23.2598 196.51 23.2598C195.598 23.2598 194.826 22.9294 194.192 22.2686C193.559 21.6032 193.242 20.6735 193.242 19.4795C193.242 18.3037 193.561 17.349 194.199 16.6152C194.837 15.8815 195.671 15.5146 196.701 15.5146ZM198.663 18.7549C198.613 18.2217 198.497 17.7956 198.314 17.4766C197.977 16.8841 197.414 16.5879 196.626 16.5879C196.061 16.5879 195.587 16.793 195.204 17.2031C194.821 17.6087 194.618 18.126 194.596 18.7549H198.663ZM201.691 13.6348H202.936V15.6787H204.104V16.6836H202.936V21.4619C202.936 21.7171 203.022 21.888 203.195 21.9746C203.291 22.0247 203.451 22.0498 203.674 22.0498C203.733 22.0498 203.797 22.0498 203.865 22.0498C203.934 22.0452 204.013 22.0384 204.104 22.0293V23C203.963 23.041 203.815 23.0706 203.66 23.0889C203.51 23.1071 203.346 23.1162 203.168 23.1162C202.594 23.1162 202.204 22.9704 201.999 22.6787C201.794 22.3825 201.691 21.9997 201.691 21.5303V16.6836H200.7V15.6787H201.691V13.6348ZM205.588 13.6348H206.832V15.6787H208.001V16.6836H206.832V21.4619C206.832 21.7171 206.919 21.888 207.092 21.9746C207.188 22.0247 207.347 22.0498 207.57 22.0498C207.63 22.0498 207.693 22.0498 207.762 22.0498C207.83 22.0452 207.91 22.0384 208.001 22.0293V23C207.86 23.041 207.712 23.0706 207.557 23.0889C207.406 23.1071 207.242 23.1162 207.064 23.1162C206.49 23.1162 206.101 22.9704 205.896 22.6787C205.69 22.3825 205.588 21.9997 205.588 21.5303V16.6836H204.597V15.6787H205.588V13.6348ZM210.182 21.0518C210.182 21.4072 210.312 21.6875 210.571 21.8926C210.831 22.0977 211.139 22.2002 211.494 22.2002C211.927 22.2002 212.346 22.0999 212.752 21.8994C213.436 21.5667 213.777 21.0221 213.777 20.2656V19.2744C213.627 19.3701 213.433 19.4499 213.196 19.5137C212.959 19.5775 212.727 19.623 212.499 19.6504L211.754 19.7461C211.307 19.8053 210.972 19.8988 210.749 20.0264C210.371 20.2406 210.182 20.5824 210.182 21.0518ZM213.162 18.5635C213.445 18.527 213.634 18.4085 213.729 18.208C213.784 18.0986 213.812 17.9414 213.812 17.7363C213.812 17.3171 213.661 17.014 213.36 16.8271C213.064 16.6357 212.638 16.54 212.082 16.54C211.439 16.54 210.984 16.7132 210.715 17.0596C210.564 17.251 210.466 17.5358 210.421 17.9141H209.272C209.295 17.0117 209.587 16.3851 210.147 16.0342C210.713 15.6787 211.367 15.501 212.109 15.501C212.971 15.501 213.67 15.665 214.208 15.9932C214.741 16.3213 215.008 16.8317 215.008 17.5244V21.7422C215.008 21.8698 215.033 21.9723 215.083 22.0498C215.138 22.1273 215.249 22.166 215.418 22.166C215.473 22.166 215.534 22.1637 215.603 22.1592C215.671 22.1501 215.744 22.1387 215.821 22.125V23.0342C215.63 23.0889 215.484 23.123 215.384 23.1367C215.284 23.1504 215.147 23.1572 214.974 23.1572C214.55 23.1572 214.242 23.0068 214.051 22.7061C213.951 22.5465 213.88 22.321 213.839 22.0293C213.588 22.3574 213.228 22.6423 212.759 22.8838C212.289 23.1253 211.772 23.2461 211.207 23.2461C210.528 23.2461 209.972 23.041 209.539 22.6309C209.111 22.2161 208.896 21.6989 208.896 21.0791C208.896 20.4001 209.108 19.8737 209.532 19.5C209.956 19.1263 210.512 18.8962 211.2 18.8096L213.162 18.5635ZM216.936 12.9238H218.132V16.5674C218.401 16.2165 218.722 15.9499 219.096 15.7676C219.469 15.5807 219.875 15.4873 220.312 15.4873C221.224 15.4873 221.962 15.8018 222.527 16.4307C223.097 17.055 223.382 17.9779 223.382 19.1992C223.382 20.3568 223.102 21.3184 222.541 22.084C221.98 22.8496 221.203 23.2324 220.21 23.2324C219.654 23.2324 219.185 23.098 218.802 22.8291C218.574 22.6696 218.33 22.4144 218.07 22.0635V23H216.936V12.9238ZM220.135 22.1455C220.8 22.1455 221.297 21.8812 221.625 21.3525C221.958 20.8239 222.124 20.1266 222.124 19.2607C222.124 18.4906 221.958 17.8525 221.625 17.3467C221.297 16.8408 220.812 16.5879 220.169 16.5879C219.608 16.5879 219.116 16.7952 218.692 17.21C218.273 17.6247 218.063 18.3083 218.063 19.2607C218.063 19.9489 218.15 20.5072 218.323 20.9355C218.647 21.7422 219.251 22.1455 220.135 22.1455ZM229.397 15.6787H230.758C230.585 16.1481 230.2 17.2191 229.603 18.8916C229.156 20.1494 228.782 21.1748 228.481 21.9678C227.771 23.8363 227.269 24.9756 226.978 25.3857C226.686 25.7959 226.185 26.001 225.474 26.001C225.3 26.001 225.166 25.9941 225.07 25.9805C224.979 25.9668 224.865 25.9417 224.729 25.9053V24.7842C224.943 24.8434 225.098 24.8799 225.193 24.8936C225.289 24.9072 225.373 24.9141 225.446 24.9141C225.674 24.9141 225.84 24.8753 225.945 24.7979C226.055 24.7249 226.146 24.6338 226.219 24.5244C226.242 24.488 226.324 24.3011 226.465 23.9639C226.606 23.6266 226.709 23.376 226.772 23.2119L224.065 15.6787H225.46L227.422 21.6396L229.397 15.6787ZM232.07 13.6348H233.314V15.6787H234.483V16.6836H233.314V21.4619C233.314 21.7171 233.401 21.888 233.574 21.9746C233.67 22.0247 233.829 22.0498 234.053 22.0498C234.112 22.0498 234.176 22.0498 234.244 22.0498C234.312 22.0452 234.392 22.0384 234.483 22.0293V23C234.342 23.041 234.194 23.0706 234.039 23.0889C233.889 23.1071 233.725 23.1162 233.547 23.1162C232.973 23.1162 232.583 22.9704 232.378 22.6787C232.173 22.3825 232.07 21.9997 232.07 21.5303V16.6836H231.079V15.6787H232.07V13.6348ZM238.77 15.5146C239.289 15.5146 239.793 15.6377 240.28 15.8838C240.768 16.1253 241.139 16.4398 241.395 16.8271C241.641 17.1963 241.805 17.627 241.887 18.1191C241.96 18.4564 241.996 18.9941 241.996 19.7324H236.63C236.653 20.4753 236.828 21.0723 237.156 21.5234C237.484 21.9701 237.993 22.1934 238.681 22.1934C239.323 22.1934 239.836 21.9814 240.219 21.5576C240.438 21.3115 240.592 21.0267 240.684 20.7031H241.894C241.862 20.972 241.755 21.2728 241.572 21.6055C241.395 21.9336 241.194 22.2025 240.971 22.4121C240.597 22.7767 240.134 23.0228 239.583 23.1504C239.287 23.2233 238.952 23.2598 238.578 23.2598C237.667 23.2598 236.894 22.9294 236.261 22.2686C235.627 21.6032 235.311 20.6735 235.311 19.4795C235.311 18.3037 235.63 17.349 236.268 16.6152C236.906 15.8815 237.74 15.5146 238.77 15.5146ZM240.731 18.7549C240.681 18.2217 240.565 17.7956 240.383 17.4766C240.046 16.8841 239.483 16.5879 238.694 16.5879C238.129 16.5879 237.655 16.793 237.272 17.2031C236.89 17.6087 236.687 18.126 236.664 18.7549H240.731Z" fill="#23483B"/>
<path d="M209.609 192.262H210.367V195.059L213.164 192.262H214.238L211.852 194.574L214.305 198H213.293L211.285 195.121L210.367 196V198H209.609V192.262ZM214.852 193.836H215.566V198H214.852V193.836ZM214.852 192.262H215.566V193.059H214.852V192.262ZM216.652 192.262H217.355V198H216.652V192.262ZM218.859 195.957C218.859 196.405 218.954 196.78 219.145 197.082C219.335 197.384 219.639 197.535 220.059 197.535C220.384 197.535 220.651 197.396 220.859 197.117C221.07 196.836 221.176 196.434 221.176 195.91C221.176 195.382 221.068 194.991 220.852 194.738C220.635 194.483 220.368 194.355 220.051 194.355C219.697 194.355 219.409 194.491 219.188 194.762C218.969 195.033 218.859 195.431 218.859 195.957ZM219.918 193.742C220.238 193.742 220.507 193.81 220.723 193.945C220.848 194.023 220.99 194.16 221.148 194.355V192.242H221.824V198H221.191V197.418C221.027 197.676 220.833 197.862 220.609 197.977C220.385 198.091 220.129 198.148 219.84 198.148C219.374 198.148 218.97 197.953 218.629 197.562C218.288 197.169 218.117 196.647 218.117 195.996C218.117 195.387 218.272 194.859 218.582 194.414C218.895 193.966 219.34 193.742 219.918 193.742ZM224.609 193.723C224.906 193.723 225.194 193.793 225.473 193.934C225.751 194.072 225.964 194.251 226.109 194.473C226.25 194.684 226.344 194.93 226.391 195.211C226.432 195.404 226.453 195.711 226.453 196.133H223.387C223.4 196.557 223.5 196.898 223.688 197.156C223.875 197.411 224.165 197.539 224.559 197.539C224.926 197.539 225.219 197.418 225.438 197.176C225.562 197.035 225.651 196.872 225.703 196.688H226.395C226.376 196.841 226.315 197.013 226.211 197.203C226.109 197.391 225.995 197.544 225.867 197.664C225.654 197.872 225.389 198.013 225.074 198.086C224.905 198.128 224.714 198.148 224.5 198.148C223.979 198.148 223.538 197.96 223.176 197.582C222.814 197.202 222.633 196.671 222.633 195.988C222.633 195.316 222.815 194.771 223.18 194.352C223.544 193.932 224.021 193.723 224.609 193.723ZM225.73 195.574C225.702 195.27 225.635 195.026 225.531 194.844C225.339 194.505 225.017 194.336 224.566 194.336C224.243 194.336 223.973 194.453 223.754 194.688C223.535 194.919 223.419 195.215 223.406 195.574H225.73ZM227.691 193.871H228.508V194.723H227.691V193.871ZM227.691 197.148H228.508V198H227.691V197.148ZM234.07 197.336C234.333 197.336 234.549 197.309 234.719 197.254C235.021 197.152 235.268 196.957 235.461 196.668C235.615 196.436 235.725 196.139 235.793 195.777C235.832 195.561 235.852 195.361 235.852 195.176C235.852 194.465 235.71 193.913 235.426 193.52C235.145 193.126 234.69 192.93 234.062 192.93H232.684V197.336H234.07ZM231.902 192.262H234.227C235.016 192.262 235.628 192.542 236.062 193.102C236.451 193.607 236.645 194.254 236.645 195.043C236.645 195.652 236.53 196.203 236.301 196.695C235.897 197.565 235.203 198 234.219 198H231.902V192.262ZM239.297 193.723C239.594 193.723 239.882 193.793 240.16 193.934C240.439 194.072 240.651 194.251 240.797 194.473C240.938 194.684 241.031 194.93 241.078 195.211C241.12 195.404 241.141 195.711 241.141 196.133H238.074C238.087 196.557 238.188 196.898 238.375 197.156C238.562 197.411 238.853 197.539 239.246 197.539C239.613 197.539 239.906 197.418 240.125 197.176C240.25 197.035 240.339 196.872 240.391 196.688H241.082C241.064 196.841 241.003 197.013 240.898 197.203C240.797 197.391 240.682 197.544 240.555 197.664C240.341 197.872 240.077 198.013 239.762 198.086C239.592 198.128 239.401 198.148 239.188 198.148C238.667 198.148 238.225 197.96 237.863 197.582C237.501 197.202 237.32 196.671 237.32 195.988C237.32 195.316 237.503 194.771 237.867 194.352C238.232 193.932 238.708 193.723 239.297 193.723ZM240.418 195.574C240.389 195.27 240.323 195.026 240.219 194.844C240.026 194.505 239.704 194.336 239.254 194.336C238.931 194.336 238.66 194.453 238.441 194.688C238.223 194.919 238.107 195.215 238.094 195.574H240.418ZM242.008 193.816H242.703V194.41C242.87 194.204 243.021 194.055 243.156 193.961C243.388 193.802 243.651 193.723 243.945 193.723C244.279 193.723 244.547 193.805 244.75 193.969C244.865 194.062 244.969 194.201 245.062 194.383C245.219 194.159 245.402 193.993 245.613 193.887C245.824 193.777 246.061 193.723 246.324 193.723C246.887 193.723 247.27 193.926 247.473 194.332C247.582 194.551 247.637 194.845 247.637 195.215V198H246.906V195.094C246.906 194.815 246.836 194.624 246.695 194.52C246.557 194.415 246.388 194.363 246.188 194.363C245.911 194.363 245.673 194.456 245.473 194.641C245.275 194.826 245.176 195.134 245.176 195.566V198H244.461V195.27C244.461 194.986 244.427 194.779 244.359 194.648C244.253 194.453 244.053 194.355 243.762 194.355C243.496 194.355 243.254 194.458 243.035 194.664C242.819 194.87 242.711 195.242 242.711 195.781V198H242.008V193.816ZM249.211 196.887C249.211 197.09 249.285 197.25 249.434 197.367C249.582 197.484 249.758 197.543 249.961 197.543C250.208 197.543 250.448 197.486 250.68 197.371C251.07 197.181 251.266 196.87 251.266 196.438V195.871C251.18 195.926 251.069 195.971 250.934 196.008C250.798 196.044 250.665 196.07 250.535 196.086L250.109 196.141C249.854 196.174 249.663 196.228 249.535 196.301C249.319 196.423 249.211 196.618 249.211 196.887ZM250.914 195.465C251.076 195.444 251.184 195.376 251.238 195.262C251.27 195.199 251.285 195.109 251.285 194.992C251.285 194.753 251.199 194.579 251.027 194.473C250.858 194.363 250.615 194.309 250.297 194.309C249.93 194.309 249.669 194.408 249.516 194.605C249.43 194.715 249.374 194.878 249.348 195.094H248.691C248.704 194.578 248.871 194.22 249.191 194.02C249.514 193.816 249.888 193.715 250.312 193.715C250.805 193.715 251.204 193.809 251.512 193.996C251.816 194.184 251.969 194.475 251.969 194.871V197.281C251.969 197.354 251.983 197.413 252.012 197.457C252.043 197.501 252.107 197.523 252.203 197.523C252.234 197.523 252.27 197.522 252.309 197.52C252.348 197.514 252.389 197.508 252.434 197.5V198.02C252.324 198.051 252.241 198.07 252.184 198.078C252.126 198.086 252.048 198.09 251.949 198.09C251.707 198.09 251.531 198.004 251.422 197.832C251.365 197.741 251.324 197.612 251.301 197.445C251.158 197.633 250.952 197.796 250.684 197.934C250.415 198.072 250.12 198.141 249.797 198.141C249.409 198.141 249.091 198.023 248.844 197.789C248.599 197.552 248.477 197.257 248.477 196.902C248.477 196.514 248.598 196.214 248.84 196C249.082 195.786 249.4 195.655 249.793 195.605L250.914 195.465ZM253.125 193.816H253.793V194.41C253.991 194.165 254.201 193.99 254.422 193.883C254.643 193.776 254.889 193.723 255.16 193.723C255.754 193.723 256.155 193.93 256.363 194.344C256.478 194.57 256.535 194.895 256.535 195.316V198H255.82V195.363C255.82 195.108 255.783 194.902 255.707 194.746C255.582 194.486 255.355 194.355 255.027 194.355C254.861 194.355 254.724 194.372 254.617 194.406C254.424 194.464 254.255 194.578 254.109 194.75C253.992 194.888 253.915 195.031 253.879 195.18C253.845 195.326 253.828 195.535 253.828 195.809V198H253.125V193.816ZM258.023 195.957C258.023 196.405 258.118 196.78 258.309 197.082C258.499 197.384 258.803 197.535 259.223 197.535C259.548 197.535 259.815 197.396 260.023 197.117C260.234 196.836 260.34 196.434 260.34 195.91C260.34 195.382 260.232 194.991 260.016 194.738C259.799 194.483 259.533 194.355 259.215 194.355C258.861 194.355 258.573 194.491 258.352 194.762C258.133 195.033 258.023 195.431 258.023 195.957ZM259.082 193.742C259.402 193.742 259.671 193.81 259.887 193.945C260.012 194.023 260.154 194.16 260.312 194.355V192.242H260.988V198H260.355V197.418C260.191 197.676 259.997 197.862 259.773 197.977C259.549 198.091 259.293 198.148 259.004 198.148C258.538 198.148 258.134 197.953 257.793 197.562C257.452 197.169 257.281 196.647 257.281 195.996C257.281 195.387 257.436 194.859 257.746 194.414C258.059 193.966 258.504 193.742 259.082 193.742ZM262.449 196.688C262.47 196.922 262.529 197.102 262.625 197.227C262.802 197.453 263.109 197.566 263.547 197.566C263.807 197.566 264.036 197.51 264.234 197.398C264.432 197.284 264.531 197.108 264.531 196.871C264.531 196.691 264.452 196.555 264.293 196.461C264.191 196.404 263.991 196.337 263.691 196.262L263.133 196.121C262.776 196.033 262.513 195.934 262.344 195.824C262.042 195.634 261.891 195.371 261.891 195.035C261.891 194.639 262.033 194.319 262.316 194.074C262.603 193.829 262.987 193.707 263.469 193.707C264.099 193.707 264.553 193.892 264.832 194.262C265.007 194.496 265.091 194.749 265.086 195.02H264.422C264.409 194.861 264.353 194.716 264.254 194.586C264.092 194.401 263.812 194.309 263.414 194.309C263.148 194.309 262.947 194.359 262.809 194.461C262.673 194.562 262.605 194.697 262.605 194.863C262.605 195.046 262.695 195.191 262.875 195.301C262.979 195.366 263.133 195.423 263.336 195.473L263.801 195.586C264.306 195.708 264.645 195.827 264.816 195.941C265.09 196.121 265.227 196.404 265.227 196.789C265.227 197.161 265.085 197.483 264.801 197.754C264.52 198.025 264.09 198.16 263.512 198.16C262.889 198.16 262.448 198.02 262.188 197.738C261.93 197.454 261.792 197.104 261.773 196.688H262.449ZM266.57 196.887C266.57 197.09 266.645 197.25 266.793 197.367C266.941 197.484 267.117 197.543 267.32 197.543C267.568 197.543 267.807 197.486 268.039 197.371C268.43 197.181 268.625 196.87 268.625 196.438V195.871C268.539 195.926 268.428 195.971 268.293 196.008C268.158 196.044 268.025 196.07 267.895 196.086L267.469 196.141C267.214 196.174 267.022 196.228 266.895 196.301C266.678 196.423 266.57 196.618 266.57 196.887ZM268.273 195.465C268.435 195.444 268.543 195.376 268.598 195.262C268.629 195.199 268.645 195.109 268.645 194.992C268.645 194.753 268.559 194.579 268.387 194.473C268.217 194.363 267.974 194.309 267.656 194.309C267.289 194.309 267.029 194.408 266.875 194.605C266.789 194.715 266.733 194.878 266.707 195.094H266.051C266.064 194.578 266.23 194.22 266.551 194.02C266.874 193.816 267.247 193.715 267.672 193.715C268.164 193.715 268.564 193.809 268.871 193.996C269.176 194.184 269.328 194.475 269.328 194.871V197.281C269.328 197.354 269.342 197.413 269.371 197.457C269.402 197.501 269.466 197.523 269.562 197.523C269.594 197.523 269.629 197.522 269.668 197.52C269.707 197.514 269.749 197.508 269.793 197.5V198.02C269.684 198.051 269.6 198.07 269.543 198.078C269.486 198.086 269.408 198.09 269.309 198.09C269.066 198.09 268.891 198.004 268.781 197.832C268.724 197.741 268.684 197.612 268.66 197.445C268.517 197.633 268.311 197.796 268.043 197.934C267.775 198.072 267.479 198.141 267.156 198.141C266.768 198.141 266.451 198.023 266.203 197.789C265.958 197.552 265.836 197.257 265.836 196.902C265.836 196.514 265.957 196.214 266.199 196C266.441 195.786 266.759 195.655 267.152 195.605L268.273 195.465ZM271.961 193.742C272.289 193.742 272.576 193.823 272.82 193.984C272.953 194.076 273.089 194.208 273.227 194.383V193.855H273.875V197.66C273.875 198.191 273.797 198.611 273.641 198.918C273.349 199.486 272.798 199.77 271.988 199.77C271.538 199.77 271.159 199.668 270.852 199.465C270.544 199.264 270.372 198.949 270.336 198.52H271.051C271.085 198.707 271.152 198.852 271.254 198.953C271.413 199.109 271.663 199.188 272.004 199.188C272.543 199.188 272.896 198.997 273.062 198.617C273.161 198.393 273.207 197.993 273.199 197.418C273.059 197.632 272.889 197.79 272.691 197.895C272.493 197.999 272.232 198.051 271.906 198.051C271.453 198.051 271.056 197.891 270.715 197.57C270.376 197.247 270.207 196.715 270.207 195.973C270.207 195.272 270.378 194.725 270.719 194.332C271.062 193.939 271.477 193.742 271.961 193.742ZM273.227 195.891C273.227 195.372 273.12 194.988 272.906 194.738C272.693 194.488 272.421 194.363 272.09 194.363C271.595 194.363 271.257 194.595 271.074 195.059C270.978 195.306 270.93 195.63 270.93 196.031C270.93 196.503 271.025 196.862 271.215 197.109C271.408 197.354 271.665 197.477 271.988 197.477C272.493 197.477 272.849 197.249 273.055 196.793C273.169 196.535 273.227 196.234 273.227 195.891ZM276.68 193.723C276.977 193.723 277.264 193.793 277.543 193.934C277.822 194.072 278.034 194.251 278.18 194.473C278.32 194.684 278.414 194.93 278.461 195.211C278.503 195.404 278.523 195.711 278.523 196.133H275.457C275.47 196.557 275.57 196.898 275.758 197.156C275.945 197.411 276.236 197.539 276.629 197.539C276.996 197.539 277.289 197.418 277.508 197.176C277.633 197.035 277.721 196.872 277.773 196.688H278.465C278.447 196.841 278.385 197.013 278.281 197.203C278.18 197.391 278.065 197.544 277.938 197.664C277.724 197.872 277.46 198.013 277.145 198.086C276.975 198.128 276.784 198.148 276.57 198.148C276.049 198.148 275.608 197.96 275.246 197.582C274.884 197.202 274.703 196.671 274.703 195.988C274.703 195.316 274.885 194.771 275.25 194.352C275.615 193.932 276.091 193.723 276.68 193.723ZM277.801 195.574C277.772 195.27 277.706 195.026 277.602 194.844C277.409 194.505 277.087 194.336 276.637 194.336C276.314 194.336 276.043 194.453 275.824 194.688C275.605 194.919 275.49 195.215 275.477 195.574H277.801Z" fill="#798E7F"/>
<path d="M15.9277 161.123C15.2965 161.123 14.8534 160.902 14.5981 160.46C14.3452 160.018 14.2188 159.388 14.2188 158.57C14.2188 157.752 14.3452 157.121 14.5981 156.676C14.8534 156.232 15.2965 156.01 15.9277 156.01C16.5589 156.01 17.0021 156.232 17.2573 156.676C17.5103 157.121 17.6367 157.752 17.6367 158.57C17.6367 159.388 17.5091 160.018 17.2539 160.46C17.001 160.902 16.5589 161.123 15.9277 161.123ZM16.4985 159.875C16.5874 159.575 16.6318 159.139 16.6318 158.57C16.6318 157.973 16.5863 157.531 16.4951 157.244C16.4062 156.957 16.2171 156.813 15.9277 156.813C15.6383 156.813 15.4469 156.957 15.3535 157.244C15.2601 157.531 15.2134 157.973 15.2134 158.57C15.2134 159.139 15.2601 159.576 15.3535 159.879C15.4469 160.18 15.6383 160.33 15.9277 160.33C16.2171 160.33 16.4074 160.179 16.4985 159.875Z" fill="#23483B"/>
<path d="M11.8662 127.539C11.7477 127.539 11.6452 127.554 11.5586 127.583C11.4059 127.638 11.2909 127.74 11.2134 127.888L10.3384 127.847L10.687 125.109H13.418V125.936H11.3911L11.2134 127.02C11.3638 126.922 11.4811 126.857 11.5654 126.825C11.7067 126.772 11.8787 126.746 12.0815 126.746C12.4917 126.746 12.8494 126.884 13.1548 127.16C13.4601 127.435 13.6128 127.836 13.6128 128.363C13.6128 128.821 13.4658 129.23 13.1719 129.59C12.8779 129.95 12.4382 130.13 11.8525 130.13C11.3809 130.13 10.9935 130.003 10.6904 129.75C10.3874 129.498 10.2188 129.139 10.1846 128.674H11.1553C11.194 128.886 11.2681 129.05 11.3774 129.166C11.4868 129.28 11.6463 129.337 11.856 129.337C12.0975 129.337 12.2809 129.253 12.4062 129.084C12.5339 128.913 12.5977 128.699 12.5977 128.441C12.5977 128.188 12.5384 127.975 12.4199 127.802C12.3014 127.627 12.1169 127.539 11.8662 127.539ZM15.8242 130.123C15.193 130.123 14.7498 129.902 14.4946 129.46C14.2417 129.018 14.1152 128.388 14.1152 127.57C14.1152 126.752 14.2417 126.121 14.4946 125.676C14.7498 125.232 15.193 125.01 15.8242 125.01C16.4554 125.01 16.8986 125.232 17.1538 125.676C17.4067 126.121 17.5332 126.752 17.5332 127.57C17.5332 128.388 17.4056 129.018 17.1504 129.46C16.8975 129.902 16.4554 130.123 15.8242 130.123ZM16.395 128.875C16.4839 128.575 16.5283 128.139 16.5283 127.57C16.5283 126.973 16.4827 126.531 16.3916 126.244C16.3027 125.957 16.1136 125.813 15.8242 125.813C15.5348 125.813 15.3434 125.957 15.25 126.244C15.1566 126.531 15.1099 126.973 15.1099 127.57C15.1099 128.139 15.1566 128.576 15.25 128.879C15.3434 129.18 15.5348 129.33 15.8242 129.33C16.1136 129.33 16.3039 129.179 16.395 128.875Z" fill="#23483B"/>
<path d="M32.4336 140.052C32.3174 139.913 32.151 139.844 31.9346 139.844C31.6383 139.844 31.4367 139.954 31.3296 140.175C31.2681 140.303 31.2316 140.506 31.2202 140.784H30.2734C30.2894 140.362 30.3657 140.021 30.5024 139.762C30.7622 139.267 31.2236 139.02 31.8867 139.02C32.4108 139.02 32.8278 139.166 33.1377 139.458C33.4476 139.747 33.6025 140.131 33.6025 140.609C33.6025 140.976 33.4932 141.302 33.2744 141.587C33.1309 141.776 32.895 141.987 32.5669 142.219L32.1772 142.496C31.9334 142.669 31.766 142.795 31.6748 142.872C31.5859 142.95 31.5107 143.04 31.4492 143.142H33.6128V144H30.2188C30.2279 143.645 30.3042 143.32 30.4478 143.026C30.5868 142.695 30.9149 142.346 31.4321 141.977C31.881 141.655 32.1715 141.425 32.3037 141.286C32.5065 141.07 32.6079 140.833 32.6079 140.575C32.6079 140.366 32.5498 140.191 32.4336 140.052ZM36.0361 140.784C36.4759 140.784 36.8359 140.933 37.1162 141.231C37.3988 141.53 37.54 141.912 37.54 142.376C37.54 142.839 37.4022 143.247 37.1265 143.6C36.8507 143.953 36.4224 144.13 35.8413 144.13C35.217 144.13 34.7567 143.869 34.4604 143.347C34.2303 142.939 34.1152 142.413 34.1152 141.768C34.1152 141.39 34.1312 141.082 34.1631 140.845C34.2201 140.424 34.3306 140.073 34.4946 139.792C34.6359 139.553 34.8205 139.361 35.0483 139.215C35.2785 139.069 35.5531 138.996 35.8721 138.996C36.3324 138.996 36.6992 139.115 36.9727 139.352C37.2461 139.586 37.3999 139.9 37.4341 140.292H36.4634C36.4634 140.212 36.4326 140.124 36.3711 140.028C36.2663 139.873 36.1079 139.796 35.896 139.796C35.5793 139.796 35.3537 139.974 35.2192 140.329C35.1463 140.525 35.0962 140.814 35.0688 141.197C35.1896 141.054 35.3298 140.949 35.4893 140.883C35.6488 140.817 35.8311 140.784 36.0361 140.784ZM35.3799 141.713C35.1885 141.861 35.0928 142.101 35.0928 142.431C35.0928 142.698 35.1646 142.915 35.3081 143.084C35.4517 143.253 35.634 143.337 35.855 143.337C36.0715 143.337 36.2412 143.256 36.3643 143.094C36.4896 142.93 36.5522 142.718 36.5522 142.458C36.5522 142.169 36.4816 141.948 36.3403 141.795C36.1991 141.64 36.0259 141.563 35.8208 141.563C35.6545 141.563 35.5075 141.613 35.3799 141.713Z" fill="#23483B"/>
<path d="M61.3398 137.032C61.2305 137.178 61.1781 137.372 61.1826 137.616H60.2734C60.2826 137.37 60.3247 137.137 60.3999 136.916C60.4797 136.722 60.605 136.543 60.7759 136.379C60.9035 136.263 61.055 136.174 61.2305 136.112C61.4059 136.051 61.6213 136.02 61.8765 136.02C62.3504 136.02 62.7321 136.143 63.0215 136.389C63.3132 136.633 63.459 136.961 63.459 137.374C63.459 137.665 63.3724 137.911 63.1992 138.112C63.0898 138.237 62.9759 138.323 62.8574 138.368C62.9463 138.368 63.0739 138.444 63.2402 138.597C63.4886 138.827 63.6128 139.142 63.6128 139.541C63.6128 139.96 63.467 140.329 63.1753 140.648C62.8859 140.965 62.4564 141.123 61.8867 141.123C61.1849 141.123 60.6973 140.894 60.4238 140.436C60.2803 140.192 60.2005 139.873 60.1846 139.479H61.1416C61.1416 139.677 61.1735 139.841 61.2373 139.971C61.3558 140.21 61.5711 140.33 61.8833 140.33C62.0747 140.33 62.241 140.265 62.3823 140.135C62.5259 140.003 62.5977 139.814 62.5977 139.568C62.5977 139.242 62.4655 139.024 62.2012 138.915C62.0508 138.854 61.8138 138.823 61.4902 138.823V138.125C61.807 138.121 62.028 138.09 62.1533 138.033C62.3698 137.938 62.478 137.744 62.478 137.452C62.478 137.263 62.4222 137.109 62.3105 136.991C62.2012 136.872 62.0462 136.813 61.8457 136.813C61.6156 136.813 61.4469 136.886 61.3398 137.032ZM65.2363 137.032C65.127 137.178 65.0745 137.372 65.0791 137.616H64.1699C64.179 137.37 64.2212 137.137 64.2964 136.916C64.3761 136.722 64.5015 136.543 64.6724 136.379C64.8 136.263 64.9515 136.174 65.127 136.112C65.3024 136.051 65.5177 136.02 65.7729 136.02C66.2469 136.02 66.6286 136.143 66.918 136.389C67.2096 136.633 67.3555 136.961 67.3555 137.374C67.3555 137.665 67.2689 137.911 67.0957 138.112C66.9863 138.237 66.8724 138.323 66.7539 138.368C66.8428 138.368 66.9704 138.444 67.1367 138.597C67.3851 138.827 67.5093 139.142 67.5093 139.541C67.5093 139.96 67.3634 140.329 67.0718 140.648C66.7824 140.965 66.3529 141.123 65.7832 141.123C65.0814 141.123 64.5938 140.894 64.3203 140.436C64.1768 140.192 64.097 139.873 64.0811 139.479H65.0381C65.0381 139.677 65.07 139.841 65.1338 139.971C65.2523 140.21 65.4676 140.33 65.7798 140.33C65.9712 140.33 66.1375 140.265 66.2788 140.135C66.4224 140.003 66.4941 139.814 66.4941 139.568C66.4941 139.242 66.362 139.024 66.0977 138.915C65.9473 138.854 65.7103 138.823 65.3867 138.823V138.125C65.7035 138.121 65.9245 138.09 66.0498 138.033C66.2663 137.938 66.3745 137.744 66.3745 137.452C66.3745 137.263 66.3187 137.109 66.207 136.991C66.0977 136.872 65.9427 136.813 65.7422 136.813C65.512 136.813 65.3434 136.886 65.2363 137.032Z" fill="#23483B"/>
<path d="M90.6606 130.171V130.934H90.1001V132H89.1465V130.934H87.1846V130.083L89.0063 127.075H90.1001V130.171H90.6606ZM87.9058 130.171H89.1465V128.032L87.9058 130.171ZM93.5454 132H92.5474V128.582H91.3818V127.919C91.6895 127.905 91.9048 127.885 92.0278 127.857C92.2238 127.814 92.3833 127.728 92.5063 127.598C92.5907 127.509 92.6545 127.39 92.6978 127.242C92.7228 127.153 92.7354 127.087 92.7354 127.044H93.5454V132Z" fill="#23483B"/>
<path d="M119.14 116.784C119.579 116.784 119.939 116.933 120.22 117.231C120.502 117.53 120.644 117.912 120.644 118.376C120.644 118.839 120.506 119.247 120.23 119.6C119.954 119.953 119.526 120.13 118.945 120.13C118.32 120.13 117.86 119.869 117.564 119.347C117.334 118.939 117.219 118.413 117.219 117.768C117.219 117.39 117.235 117.082 117.267 116.845C117.324 116.424 117.434 116.073 117.598 115.792C117.739 115.553 117.924 115.361 118.152 115.215C118.382 115.069 118.657 114.996 118.976 114.996C119.436 114.996 119.803 115.115 120.076 115.352C120.35 115.586 120.503 115.9 120.538 116.292H119.567C119.567 116.212 119.536 116.124 119.475 116.028C119.37 115.873 119.211 115.796 119 115.796C118.683 115.796 118.457 115.974 118.323 116.329C118.25 116.525 118.2 116.814 118.172 117.197C118.293 117.054 118.433 116.949 118.593 116.883C118.752 116.817 118.935 116.784 119.14 116.784ZM118.483 117.713C118.292 117.861 118.196 118.101 118.196 118.431C118.196 118.698 118.268 118.915 118.412 119.084C118.555 119.253 118.737 119.337 118.958 119.337C119.175 119.337 119.345 119.256 119.468 119.094C119.593 118.93 119.656 118.718 119.656 118.458C119.656 118.169 119.585 117.948 119.444 117.795C119.303 117.64 119.129 117.563 118.924 117.563C118.758 117.563 118.611 117.613 118.483 117.713ZM124.557 118.171V118.934H123.997V120H123.043V118.934H121.081V118.083L122.903 115.075H123.997V118.171H124.557ZM121.802 118.171H123.043V116.032L121.802 118.171Z" fill="#23483B"/>
<path d="M151.083 106.637C150.823 107.006 150.606 107.386 150.43 107.778C150.291 108.086 150.166 108.462 150.054 108.906C149.943 109.351 149.887 109.715 149.887 110H148.875C148.905 109.111 149.196 108.187 149.75 107.228C150.108 106.633 150.407 106.219 150.649 105.984H148.178L148.191 105.109H151.691V105.871C151.546 106.015 151.343 106.27 151.083 106.637ZM153.715 110.144C153.343 110.144 153.01 110.034 152.713 109.815C152.417 109.594 152.247 109.273 152.204 108.852H153.175C153.198 108.997 153.259 109.116 153.359 109.207C153.46 109.298 153.593 109.344 153.759 109.344C154.081 109.344 154.306 109.166 154.436 108.811C154.507 108.615 154.551 108.329 154.569 107.953C154.48 108.064 154.386 108.15 154.286 108.209C154.103 108.318 153.879 108.373 153.612 108.373C153.218 108.373 152.868 108.237 152.563 107.966C152.258 107.693 152.105 107.3 152.105 106.787C152.105 106.256 152.258 105.827 152.563 105.499C152.871 105.168 153.269 105.003 153.759 105.003C154.514 105.003 155.031 105.337 155.311 106.004C155.471 106.383 155.55 106.881 155.55 107.498C155.55 108.097 155.474 108.597 155.321 108.999C155.03 109.762 154.494 110.144 153.715 110.144ZM153.373 105.957C153.186 106.102 153.093 106.35 153.093 106.698C153.093 106.992 153.152 107.213 153.271 107.361C153.391 107.507 153.576 107.58 153.824 107.58C153.959 107.58 154.085 107.541 154.204 107.464C154.425 107.323 154.535 107.078 154.535 106.729C154.535 106.449 154.469 106.227 154.337 106.062C154.207 105.898 154.028 105.816 153.8 105.816C153.634 105.816 153.492 105.863 153.373 105.957Z" fill="#23483B"/>
<path d="M179.818 98.1436C179.447 98.1436 179.113 98.0342 178.817 97.8154C178.521 97.5944 178.351 97.2731 178.308 96.8516H179.278C179.301 96.9974 179.363 97.1159 179.463 97.207C179.563 97.2982 179.696 97.3438 179.863 97.3438C180.184 97.3438 180.41 97.166 180.54 96.8105C180.61 96.6146 180.655 96.3286 180.673 95.9526C180.584 96.0643 180.489 96.1497 180.389 96.209C180.207 96.3184 179.982 96.373 179.716 96.373C179.322 96.373 178.972 96.2375 178.667 95.9663C178.361 95.6929 178.208 95.2998 178.208 94.7871C178.208 94.2562 178.361 93.8267 178.667 93.4985C178.974 93.1681 179.373 93.0029 179.863 93.0029C180.617 93.0029 181.134 93.3368 181.415 94.0044C181.574 94.3826 181.654 94.8805 181.654 95.498C181.654 96.0973 181.577 96.5975 181.425 96.9985C181.133 97.7619 180.598 98.1436 179.818 98.1436ZM179.477 93.9565C179.29 94.1024 179.196 94.3496 179.196 94.6982C179.196 94.9922 179.256 95.2132 179.374 95.3613C179.495 95.5072 179.679 95.5801 179.928 95.5801C180.062 95.5801 180.189 95.5413 180.307 95.4639C180.528 95.3226 180.639 95.0776 180.639 94.729C180.639 94.4487 180.573 94.2266 180.44 94.0625C180.311 93.8984 180.132 93.8164 179.904 93.8164C179.737 93.8164 179.595 93.8631 179.477 93.9565ZM184.979 94.6367C184.72 95.0059 184.502 95.3864 184.327 95.7783C184.188 96.0859 184.062 96.4619 183.951 96.9062C183.839 97.3506 183.783 97.7152 183.783 98H182.771C182.801 97.1113 183.093 96.1873 183.646 95.228C184.004 94.6333 184.304 94.2186 184.545 93.9839H182.074L182.088 93.1089H185.588V93.8711C185.442 94.0146 185.239 94.2699 184.979 94.6367Z" fill="#23483B"/>
<path d="M209.649 84H208.651V80.582H207.485V79.9189C207.793 79.9053 208.008 79.8848 208.131 79.8574C208.327 79.8141 208.487 79.7275 208.61 79.5977C208.694 79.5088 208.758 79.3903 208.801 79.2422C208.826 79.1533 208.839 79.0872 208.839 79.0439H209.649V84ZM213.33 80.0522C213.214 79.9132 213.048 79.8438 212.831 79.8438C212.535 79.8438 212.333 79.9543 212.226 80.1753C212.165 80.3029 212.128 80.5057 212.117 80.7837H211.17C211.186 80.3621 211.262 80.0215 211.399 79.7617C211.659 79.2673 212.12 79.02 212.783 79.02C213.307 79.02 213.724 79.1659 214.034 79.4575C214.344 79.7469 214.499 80.1309 214.499 80.6094C214.499 80.9762 214.39 81.3021 214.171 81.5869C214.027 81.776 213.792 81.9868 213.463 82.2192L213.074 82.4961C212.83 82.6693 212.662 82.7946 212.571 82.8721C212.482 82.9495 212.407 83.0396 212.346 83.1421H214.509V84H211.115C211.124 83.6445 211.201 83.3198 211.344 83.0259C211.483 82.6955 211.811 82.3457 212.329 81.9766C212.778 81.6553 213.068 81.4251 213.2 81.2861C213.403 81.0697 213.504 80.8327 213.504 80.5752C213.504 80.3656 213.446 80.1912 213.33 80.0522ZM216.721 84.123C216.09 84.123 215.646 83.902 215.391 83.46C215.138 83.0179 215.012 82.3879 215.012 81.5698C215.012 80.7518 215.138 80.1206 215.391 79.6763C215.646 79.2319 216.09 79.0098 216.721 79.0098C217.352 79.0098 217.795 79.2319 218.05 79.6763C218.303 80.1206 218.43 80.7518 218.43 81.5698C218.43 82.3879 218.302 83.0179 218.047 83.46C217.794 83.902 217.352 84.123 216.721 84.123ZM217.292 82.8755C217.38 82.5747 217.425 82.1395 217.425 81.5698C217.425 80.9728 217.379 80.5308 217.288 80.2437C217.199 79.9565 217.01 79.813 216.721 79.813C216.431 79.813 216.24 79.9565 216.146 80.2437C216.053 80.5308 216.006 80.9728 216.006 81.5698C216.006 82.1395 216.053 82.5758 216.146 82.8789C216.24 83.1797 216.431 83.3301 216.721 83.3301C217.01 83.3301 217.2 83.1785 217.292 82.8755Z" fill="#23483B"/>
<path d="M238.649 68H237.651V64.582H236.485V63.9189C236.793 63.9053 237.008 63.8848 237.131 63.8574C237.327 63.8141 237.487 63.7275 237.61 63.5977C237.694 63.5088 237.758 63.3903 237.801 63.2422C237.826 63.1533 237.839 63.0872 237.839 63.0439H238.649V68ZM243.557 66.1714V66.9336H242.997V68H242.043V66.9336H240.081V66.0825L241.903 63.0747H242.997V66.1714H243.557ZM240.802 66.1714H242.043V64.0317L240.802 66.1714ZM246.876 64.6367C246.616 65.0059 246.399 65.3864 246.223 65.7783C246.084 66.0859 245.959 66.4619 245.847 66.9062C245.736 67.3506 245.68 67.7152 245.68 68H244.668C244.698 67.1113 244.989 66.1873 245.543 65.228C245.901 64.6333 246.2 64.2186 246.442 63.9839H243.971L243.984 63.1089H247.484V63.8711C247.339 64.0146 247.136 64.2699 246.876 64.6367Z" fill="#BA6565"/>
<path d="M268.649 46H267.651V42.582H266.485V41.9189C266.793 41.9053 267.008 41.8848 267.131 41.8574C267.327 41.8141 267.487 41.7275 267.61 41.5977C267.694 41.5088 267.758 41.3903 267.801 41.2422C267.826 41.1533 267.839 41.0872 267.839 41.0439H268.649V46ZM270.508 45.689C270.223 45.3973 270.081 45.043 270.081 44.626C270.081 44.348 270.144 44.0962 270.269 43.8706C270.397 43.645 270.582 43.4753 270.826 43.3613C270.587 43.2018 270.431 43.0298 270.358 42.8452C270.287 42.6584 270.252 42.484 270.252 42.3223C270.252 41.9622 270.388 41.6558 270.659 41.4028C270.93 41.1476 271.313 41.02 271.807 41.02C272.302 41.02 272.684 41.1476 272.956 41.4028C273.227 41.6558 273.362 41.9622 273.362 42.3223C273.362 42.484 273.326 42.6584 273.253 42.8452C273.182 43.0298 273.027 43.1904 272.788 43.3271C273.032 43.4639 273.215 43.645 273.338 43.8706C273.461 44.0962 273.523 44.348 273.523 44.626C273.523 45.043 273.368 45.3984 273.058 45.6924C272.75 45.984 272.32 46.1299 271.766 46.1299C271.212 46.1299 270.793 45.9829 270.508 45.689ZM271.093 44.561C271.093 44.8049 271.155 44.994 271.281 45.1284C271.408 45.2629 271.584 45.3301 271.807 45.3301C272.03 45.3301 272.205 45.2629 272.33 45.1284C272.458 44.994 272.521 44.8049 272.521 44.561C272.521 44.3081 272.457 44.1167 272.327 43.9868C272.199 43.8547 272.026 43.7886 271.807 43.7886C271.588 43.7886 271.414 43.8547 271.284 43.9868C271.157 44.1167 271.093 44.3081 271.093 44.561ZM271.349 42.8726C271.458 42.9865 271.611 43.0435 271.807 43.0435C272.005 43.0435 272.158 42.9865 272.265 42.8726C272.375 42.7586 272.429 42.6117 272.429 42.4316C272.429 42.2357 272.375 42.083 272.265 41.9736C272.158 41.862 272.005 41.8062 271.807 41.8062C271.611 41.8062 271.457 41.862 271.346 41.9736C271.236 42.083 271.182 42.2357 271.182 42.4316C271.182 42.6117 271.237 42.7586 271.349 42.8726ZM276.442 46H275.444V42.582H274.278V41.9189C274.586 41.9053 274.801 41.8848 274.924 41.8574C275.12 41.8141 275.28 41.7275 275.403 41.5977C275.487 41.5088 275.551 41.3903 275.594 41.2422C275.619 41.1533 275.632 41.0872 275.632 41.0439H276.442V46Z" fill="#BA6565"/>
<path d="M8.64893 102H7.65088V98.582H6.48535V97.9189C6.79297 97.9053 7.0083 97.8848 7.13135 97.8574C7.32731 97.8141 7.48682 97.7275 7.60986 97.5977C7.69417 97.5088 7.75798 97.3903 7.80127 97.2422C7.82633 97.1533 7.83887 97.0872 7.83887 97.0439H8.64893V102ZM11.8242 102.123C11.193 102.123 10.7498 101.902 10.4946 101.46C10.2417 101.018 10.1152 100.388 10.1152 99.5698C10.1152 98.7518 10.2417 98.1206 10.4946 97.6763C10.7498 97.2319 11.193 97.0098 11.8242 97.0098C12.4554 97.0098 12.8986 97.2319 13.1538 97.6763C13.4067 98.1206 13.5332 98.7518 13.5332 99.5698C13.5332 100.388 13.4056 101.018 13.1504 101.46C12.8975 101.902 12.4554 102.123 11.8242 102.123ZM12.395 100.875C12.4839 100.575 12.5283 100.139 12.5283 99.5698C12.5283 98.9728 12.4827 98.5308 12.3916 98.2437C12.3027 97.9565 12.1136 97.813 11.8242 97.813C11.5348 97.813 11.3434 97.9565 11.25 98.2437C11.1566 98.5308 11.1099 98.9728 11.1099 99.5698C11.1099 100.139 11.1566 100.576 11.25 100.879C11.3434 101.18 11.5348 101.33 11.8242 101.33C12.1136 101.33 12.3039 101.179 12.395 100.875ZM15.7207 102.123C15.0895 102.123 14.6463 101.902 14.3911 101.46C14.1382 101.018 14.0117 100.388 14.0117 99.5698C14.0117 98.7518 14.1382 98.1206 14.3911 97.6763C14.6463 97.2319 15.0895 97.0098 15.7207 97.0098C16.3519 97.0098 16.7951 97.2319 17.0503 97.6763C17.3032 98.1206 17.4297 98.7518 17.4297 99.5698C17.4297 100.388 17.3021 101.018 17.0469 101.46C16.7939 101.902 16.3519 102.123 15.7207 102.123ZM16.2915 100.875C16.3804 100.575 16.4248 100.139 16.4248 99.5698C16.4248 98.9728 16.3792 98.5308 16.2881 98.2437C16.1992 97.9565 16.0101 97.813 15.7207 97.813C15.4313 97.813 15.2399 97.9565 15.1465 98.2437C15.0531 98.5308 15.0063 98.9728 15.0063 99.5698C15.0063 100.139 15.0531 100.576 15.1465 100.879C15.2399 101.18 15.4313 101.33 15.7207 101.33C16.0101 101.33 16.2004 101.179 16.2915 100.875Z" fill="#23483B"/>
<path d="M8.64893 71H7.65088V67.582H6.48535V66.9189C6.79297 66.9053 7.0083 66.8848 7.13135 66.8574C7.32731 66.8141 7.48682 66.7275 7.60986 66.5977C7.69417 66.5088 7.75798 66.3903 7.80127 66.2422C7.82633 66.1533 7.83887 66.0872 7.83887 66.0439H8.64893V71ZM11.7627 68.5391C11.6442 68.5391 11.5417 68.5539 11.4551 68.5835C11.3024 68.6382 11.1873 68.7396 11.1099 68.8877L10.2349 68.8467L10.5835 66.1089H13.3145V66.936H11.2876L11.1099 68.0195C11.2603 67.9215 11.3776 67.8566 11.4619 67.8247C11.6032 67.7723 11.7752 67.7461 11.978 67.7461C12.3882 67.7461 12.7459 67.884 13.0513 68.1597C13.3566 68.4354 13.5093 68.8364 13.5093 69.3628C13.5093 69.8208 13.3623 70.2298 13.0684 70.5898C12.7744 70.9499 12.3346 71.1299 11.749 71.1299C11.2773 71.1299 10.89 71.0034 10.5869 70.7505C10.2839 70.4976 10.1152 70.1387 10.0811 69.6738H11.0518C11.0905 69.8857 11.1646 70.0498 11.2739 70.166C11.3833 70.2799 11.5428 70.3369 11.7524 70.3369C11.994 70.3369 12.1774 70.2526 12.3027 70.084C12.4303 69.9131 12.4941 69.6989 12.4941 69.4414C12.4941 69.1885 12.4349 68.9754 12.3164 68.8022C12.1979 68.6268 12.0133 68.5391 11.7627 68.5391ZM15.7207 71.123C15.0895 71.123 14.6463 70.902 14.3911 70.46C14.1382 70.0179 14.0117 69.3879 14.0117 68.5698C14.0117 67.7518 14.1382 67.1206 14.3911 66.6763C14.6463 66.2319 15.0895 66.0098 15.7207 66.0098C16.3519 66.0098 16.7951 66.2319 17.0503 66.6763C17.3032 67.1206 17.4297 67.7518 17.4297 68.5698C17.4297 69.3879 17.3021 70.0179 17.0469 70.46C16.7939 70.902 16.3519 71.123 15.7207 71.123ZM16.2915 69.8755C16.3804 69.5747 16.4248 69.1395 16.4248 68.5698C16.4248 67.9728 16.3792 67.5308 16.2881 67.2437C16.1992 66.9565 16.0101 66.813 15.7207 66.813C15.4313 66.813 15.2399 66.9565 15.1465 67.2437C15.0531 67.5308 15.0063 67.9728 15.0063 68.5698C15.0063 69.1395 15.0531 69.5758 15.1465 69.8789C15.2399 70.1797 15.4313 70.3301 15.7207 70.3301C16.0101 70.3301 16.2004 70.1785 16.2915 69.8755Z" fill="#23483B"/>
<path d="M8.43359 34.0522C8.31738 33.9132 8.15104 33.8438 7.93457 33.8438C7.63835 33.8438 7.43669 33.9543 7.32959 34.1753C7.26807 34.3029 7.23161 34.5057 7.22021 34.7837H6.27344C6.28939 34.3621 6.36572 34.0215 6.50244 33.7617C6.76221 33.2673 7.22363 33.02 7.88672 33.02C8.41081 33.02 8.8278 33.1659 9.1377 33.4575C9.44759 33.7469 9.60254 34.1309 9.60254 34.6094C9.60254 34.9762 9.49316 35.3021 9.27441 35.5869C9.13086 35.776 8.89502 35.9868 8.56689 36.2192L8.17725 36.4961C7.93343 36.6693 7.76595 36.7946 7.6748 36.8721C7.58594 36.9495 7.51074 37.0396 7.44922 37.1421H9.61279V38H6.21875C6.22786 37.6445 6.3042 37.3198 6.44775 37.0259C6.58675 36.6955 6.91488 36.3457 7.43213 35.9766C7.88102 35.6553 8.17155 35.4251 8.30371 35.2861C8.50651 35.0697 8.60791 34.8327 8.60791 34.5752C8.60791 34.3656 8.5498 34.1912 8.43359 34.0522ZM11.8242 38.123C11.193 38.123 10.7498 37.902 10.4946 37.46C10.2417 37.0179 10.1152 36.3879 10.1152 35.5698C10.1152 34.7518 10.2417 34.1206 10.4946 33.6763C10.7498 33.2319 11.193 33.0098 11.8242 33.0098C12.4554 33.0098 12.8986 33.2319 13.1538 33.6763C13.4067 34.1206 13.5332 34.7518 13.5332 35.5698C13.5332 36.3879 13.4056 37.0179 13.1504 37.46C12.8975 37.902 12.4554 38.123 11.8242 38.123ZM12.395 36.8755C12.4839 36.5747 12.5283 36.1395 12.5283 35.5698C12.5283 34.9728 12.4827 34.5308 12.3916 34.2437C12.3027 33.9565 12.1136 33.813 11.8242 33.813C11.5348 33.813 11.3434 33.9565 11.25 34.2437C11.1566 34.5308 11.1099 34.9728 11.1099 35.5698C11.1099 36.1395 11.1566 36.5758 11.25 36.8789C11.3434 37.1797 11.5348 37.3301 11.8242 37.3301C12.1136 37.3301 12.3039 37.1785 12.395 36.8755ZM15.7207 38.123C15.0895 38.123 14.6463 37.902 14.3911 37.46C14.1382 37.0179 14.0117 36.3879 14.0117 35.5698C14.0117 34.7518 14.1382 34.1206 14.3911 33.6763C14.6463 33.2319 15.0895 33.0098 15.7207 33.0098C16.3519 33.0098 16.7951 33.2319 17.0503 33.6763C17.3032 34.1206 17.4297 34.7518 17.4297 35.5698C17.4297 36.3879 17.3021 37.0179 17.0469 37.46C16.7939 37.902 16.3519 38.123 15.7207 38.123ZM16.2915 36.8755C16.3804 36.5747 16.4248 36.1395 16.4248 35.5698C16.4248 34.9728 16.3792 34.5308 16.2881 34.2437C16.1992 33.9565 16.0101 33.813 15.7207 33.813C15.4313 33.813 15.2399 33.9565 15.1465 34.2437C15.0531 34.5308 15.0063 34.9728 15.0063 35.5698C15.0063 36.1395 15.0531 36.5758 15.1465 36.8789C15.2399 37.1797 15.4313 37.3301 15.7207 37.3301C16.0101 37.3301 16.2004 37.1785 16.2915 36.8755Z" fill="#23483B"/>
<path d="M28.4336 179.052C28.3174 178.913 28.151 178.844 27.9346 178.844C27.6383 178.844 27.4367 178.954 27.3296 179.175C27.2681 179.303 27.2316 179.506 27.2202 179.784H26.2734C26.2894 179.362 26.3657 179.021 26.5024 178.762C26.7622 178.267 27.2236 178.02 27.8867 178.02C28.4108 178.02 28.8278 178.166 29.1377 178.458C29.4476 178.747 29.6025 179.131 29.6025 179.609C29.6025 179.976 29.4932 180.302 29.2744 180.587C29.1309 180.776 28.895 180.987 28.5669 181.219L28.1772 181.496C27.9334 181.669 27.766 181.795 27.6748 181.872C27.5859 181.95 27.5107 182.04 27.4492 182.142H29.6128V183H26.2188C26.2279 182.645 26.3042 182.32 26.4478 182.026C26.5868 181.695 26.9149 181.346 27.4321 180.977C27.881 180.655 28.1715 180.425 28.3037 180.286C28.5065 180.07 28.6079 179.833 28.6079 179.575C28.6079 179.366 28.5498 179.191 28.4336 179.052ZM31.8242 183.123C31.193 183.123 30.7498 182.902 30.4946 182.46C30.2417 182.018 30.1152 181.388 30.1152 180.57C30.1152 179.752 30.2417 179.121 30.4946 178.676C30.7498 178.232 31.193 178.01 31.8242 178.01C32.4554 178.01 32.8986 178.232 33.1538 178.676C33.4067 179.121 33.5332 179.752 33.5332 180.57C33.5332 181.388 33.4056 182.018 33.1504 182.46C32.8975 182.902 32.4554 183.123 31.8242 183.123ZM32.395 181.875C32.4839 181.575 32.5283 181.139 32.5283 180.57C32.5283 179.973 32.4827 179.531 32.3916 179.244C32.3027 178.957 32.1136 178.813 31.8242 178.813C31.5348 178.813 31.3434 178.957 31.25 179.244C31.1566 179.531 31.1099 179.973 31.1099 180.57C31.1099 181.139 31.1566 181.576 31.25 181.879C31.3434 182.18 31.5348 182.33 31.8242 182.33C32.1136 182.33 32.3039 182.179 32.395 181.875ZM36.4419 183H35.4438V179.582H34.2783V178.919C34.5859 178.905 34.8013 178.885 34.9243 178.857C35.1203 178.814 35.2798 178.728 35.4028 178.598C35.4871 178.509 35.5509 178.39 35.5942 178.242C35.6193 178.153 35.6318 178.087 35.6318 178.044H36.4419V183ZM40.7725 179.637C40.5127 180.006 40.2951 180.386 40.1196 180.778C39.9806 181.086 39.8553 181.462 39.7437 181.906C39.632 182.351 39.5762 182.715 39.5762 183H38.5645C38.5941 182.111 38.8857 181.187 39.4395 180.228C39.7972 179.633 40.0968 179.219 40.3384 178.984H37.8672L37.8809 178.109H41.3809V178.871C41.235 179.015 41.0322 179.27 40.7725 179.637Z" fill="#23483B"/>
<path d="M58.4336 179.052C58.3174 178.913 58.151 178.844 57.9346 178.844C57.6383 178.844 57.4367 178.954 57.3296 179.175C57.2681 179.303 57.2316 179.506 57.2202 179.784H56.2734C56.2894 179.362 56.3657 179.021 56.5024 178.762C56.7622 178.267 57.2236 178.02 57.8867 178.02C58.4108 178.02 58.8278 178.166 59.1377 178.458C59.4476 178.747 59.6025 179.131 59.6025 179.609C59.6025 179.976 59.4932 180.302 59.2744 180.587C59.1309 180.776 58.895 180.987 58.5669 181.219L58.1772 181.496C57.9334 181.669 57.766 181.795 57.6748 181.872C57.5859 181.95 57.5107 182.04 57.4492 182.142H59.6128V183H56.2188C56.2279 182.645 56.3042 182.32 56.4478 182.026C56.5868 181.695 56.9149 181.346 57.4321 180.977C57.881 180.655 58.1715 180.425 58.3037 180.286C58.5065 180.07 58.6079 179.833 58.6079 179.575C58.6079 179.366 58.5498 179.191 58.4336 179.052ZM61.8242 183.123C61.193 183.123 60.7498 182.902 60.4946 182.46C60.2417 182.018 60.1152 181.388 60.1152 180.57C60.1152 179.752 60.2417 179.121 60.4946 178.676C60.7498 178.232 61.193 178.01 61.8242 178.01C62.4554 178.01 62.8986 178.232 63.1538 178.676C63.4067 179.121 63.5332 179.752 63.5332 180.57C63.5332 181.388 63.4056 182.018 63.1504 182.46C62.8975 182.902 62.4554 183.123 61.8242 183.123ZM62.395 181.875C62.4839 181.575 62.5283 181.139 62.5283 180.57C62.5283 179.973 62.4827 179.531 62.3916 179.244C62.3027 178.957 62.1136 178.813 61.8242 178.813C61.5348 178.813 61.3434 178.957 61.25 179.244C61.1566 179.531 61.1099 179.973 61.1099 180.57C61.1099 181.139 61.1566 181.576 61.25 181.879C61.3434 182.18 61.5348 182.33 61.8242 182.33C62.1136 182.33 62.3039 182.179 62.395 181.875ZM66.4419 183H65.4438V179.582H64.2783V178.919C64.5859 178.905 64.8013 178.885 64.9243 178.857C65.1203 178.814 65.2798 178.728 65.4028 178.598C65.4871 178.509 65.5509 178.39 65.5942 178.242C65.6193 178.153 65.6318 178.087 65.6318 178.044H66.4419V183ZM68.3013 182.689C68.0164 182.397 67.874 182.043 67.874 181.626C67.874 181.348 67.9367 181.096 68.062 180.871C68.1896 180.645 68.3753 180.475 68.6191 180.361C68.3799 180.202 68.2238 180.03 68.1509 179.845C68.0802 179.658 68.0449 179.484 68.0449 179.322C68.0449 178.962 68.1805 178.656 68.4517 178.403C68.7228 178.148 69.1056 178.02 69.6001 178.02C70.0946 178.02 70.4774 178.148 70.7485 178.403C71.0197 178.656 71.1553 178.962 71.1553 179.322C71.1553 179.484 71.1188 179.658 71.0459 179.845C70.9753 180.03 70.8203 180.19 70.5811 180.327C70.8249 180.464 71.0083 180.645 71.1313 180.871C71.2544 181.096 71.3159 181.348 71.3159 181.626C71.3159 182.043 71.161 182.398 70.8511 182.692C70.5435 182.984 70.1128 183.13 69.5591 183.13C69.0054 183.13 68.5861 182.983 68.3013 182.689ZM68.8857 181.561C68.8857 181.805 68.9484 181.994 69.0737 182.128C69.2013 182.263 69.3768 182.33 69.6001 182.33C69.8234 182.33 69.9977 182.263 70.123 182.128C70.2507 181.994 70.3145 181.805 70.3145 181.561C70.3145 181.308 70.2495 181.117 70.1196 180.987C69.992 180.855 69.8188 180.789 69.6001 180.789C69.3813 180.789 69.207 180.855 69.0771 180.987C68.9495 181.117 68.8857 181.308 68.8857 181.561ZM69.1421 179.873C69.2515 179.986 69.4041 180.043 69.6001 180.043C69.7983 180.043 69.951 179.986 70.0581 179.873C70.1675 179.759 70.2222 179.612 70.2222 179.432C70.2222 179.236 70.1675 179.083 70.0581 178.974C69.951 178.862 69.7983 178.806 69.6001 178.806C69.4041 178.806 69.2503 178.862 69.1387 178.974C69.0293 179.083 68.9746 179.236 68.9746 179.432C68.9746 179.612 69.0304 179.759 69.1421 179.873Z" fill="#23483B"/>
<path d="M87.4336 179.052C87.3174 178.913 87.151 178.844 86.9346 178.844C86.6383 178.844 86.4367 178.954 86.3296 179.175C86.2681 179.303 86.2316 179.506 86.2202 179.784H85.2734C85.2894 179.362 85.3657 179.021 85.5024 178.762C85.7622 178.267 86.2236 178.02 86.8867 178.02C87.4108 178.02 87.8278 178.166 88.1377 178.458C88.4476 178.747 88.6025 179.131 88.6025 179.609C88.6025 179.976 88.4932 180.302 88.2744 180.587C88.1309 180.776 87.895 180.987 87.5669 181.219L87.1772 181.496C86.9334 181.669 86.766 181.795 86.6748 181.872C86.5859 181.95 86.5107 182.04 86.4492 182.142H88.6128V183H85.2188C85.2279 182.645 85.3042 182.32 85.4478 182.026C85.5868 181.695 85.9149 181.346 86.4321 180.977C86.881 180.655 87.1715 180.425 87.3037 180.286C87.5065 180.07 87.6079 179.833 87.6079 179.575C87.6079 179.366 87.5498 179.191 87.4336 179.052ZM90.8242 183.123C90.193 183.123 89.7498 182.902 89.4946 182.46C89.2417 182.018 89.1152 181.388 89.1152 180.57C89.1152 179.752 89.2417 179.121 89.4946 178.676C89.7498 178.232 90.193 178.01 90.8242 178.01C91.4554 178.01 91.8986 178.232 92.1538 178.676C92.4067 179.121 92.5332 179.752 92.5332 180.57C92.5332 181.388 92.4056 182.018 92.1504 182.46C91.8975 182.902 91.4554 183.123 90.8242 183.123ZM91.395 181.875C91.4839 181.575 91.5283 181.139 91.5283 180.57C91.5283 179.973 91.4827 179.531 91.3916 179.244C91.3027 178.957 91.1136 178.813 90.8242 178.813C90.5348 178.813 90.3434 178.957 90.25 179.244C90.1566 179.531 90.1099 179.973 90.1099 180.57C90.1099 181.139 90.1566 181.576 90.25 181.879C90.3434 182.18 90.5348 182.33 90.8242 182.33C91.1136 182.33 91.3039 182.179 91.395 181.875ZM95.4419 183H94.4438V179.582H93.2783V178.919C93.5859 178.905 93.8013 178.885 93.9243 178.857C94.1203 178.814 94.2798 178.728 94.4028 178.598C94.4871 178.509 94.5509 178.39 94.5942 178.242C94.6193 178.153 94.6318 178.087 94.6318 178.044H95.4419V183ZM98.5078 183.144C98.1364 183.144 97.8026 183.034 97.5063 182.815C97.2101 182.594 97.0404 182.273 96.9971 181.852H97.9678C97.9906 181.997 98.0521 182.116 98.1523 182.207C98.2526 182.298 98.3859 182.344 98.5522 182.344C98.8735 182.344 99.0991 182.166 99.229 181.811C99.2996 181.615 99.3441 181.329 99.3623 180.953C99.2734 181.064 99.1789 181.15 99.0786 181.209C98.8963 181.318 98.6719 181.373 98.4053 181.373C98.0111 181.373 97.6613 181.237 97.356 180.966C97.0506 180.693 96.8979 180.3 96.8979 179.787C96.8979 179.256 97.0506 178.827 97.356 178.499C97.6636 178.168 98.0623 178.003 98.5522 178.003C99.3065 178.003 99.8237 178.337 100.104 179.004C100.264 179.383 100.343 179.881 100.343 180.498C100.343 181.097 100.267 181.597 100.114 181.999C99.8226 182.762 99.2871 183.144 98.5078 183.144ZM98.166 178.957C97.9792 179.102 97.8857 179.35 97.8857 179.698C97.8857 179.992 97.945 180.213 98.0635 180.361C98.1842 180.507 98.3688 180.58 98.6172 180.58C98.7516 180.58 98.8781 180.541 98.9966 180.464C99.2176 180.323 99.3281 180.078 99.3281 179.729C99.3281 179.449 99.262 179.227 99.1299 179.062C99 178.898 98.8211 178.816 98.5933 178.816C98.4269 178.816 98.2845 178.863 98.166 178.957Z" fill="#23483B"/>
<path d="M117.434 179.052C117.317 178.913 117.151 178.844 116.935 178.844C116.638 178.844 116.437 178.954 116.33 179.175C116.268 179.303 116.232 179.506 116.22 179.784H115.273C115.289 179.362 115.366 179.021 115.502 178.762C115.762 178.267 116.224 178.02 116.887 178.02C117.411 178.02 117.828 178.166 118.138 178.458C118.448 178.747 118.603 179.131 118.603 179.609C118.603 179.976 118.493 180.302 118.274 180.587C118.131 180.776 117.895 180.987 117.567 181.219L117.177 181.496C116.933 181.669 116.766 181.795 116.675 181.872C116.586 181.95 116.511 182.04 116.449 182.142H118.613V183H115.219C115.228 182.645 115.304 182.32 115.448 182.026C115.587 181.695 115.915 181.346 116.432 180.977C116.881 180.655 117.172 180.425 117.304 180.286C117.507 180.07 117.608 179.833 117.608 179.575C117.608 179.366 117.55 179.191 117.434 179.052ZM120.824 183.123C120.193 183.123 119.75 182.902 119.495 182.46C119.242 182.018 119.115 181.388 119.115 180.57C119.115 179.752 119.242 179.121 119.495 178.676C119.75 178.232 120.193 178.01 120.824 178.01C121.455 178.01 121.899 178.232 122.154 178.676C122.407 179.121 122.533 179.752 122.533 180.57C122.533 181.388 122.406 182.018 122.15 182.46C121.897 182.902 121.455 183.123 120.824 183.123ZM121.395 181.875C121.484 181.575 121.528 181.139 121.528 180.57C121.528 179.973 121.483 179.531 121.392 179.244C121.303 178.957 121.114 178.813 120.824 178.813C120.535 178.813 120.343 178.957 120.25 179.244C120.157 179.531 120.11 179.973 120.11 180.57C120.11 181.139 120.157 181.576 120.25 181.879C120.343 182.18 120.535 182.33 120.824 182.33C121.114 182.33 121.304 182.179 121.395 181.875ZM125.227 179.052C125.11 178.913 124.944 178.844 124.728 178.844C124.431 178.844 124.23 178.954 124.123 179.175C124.061 179.303 124.025 179.506 124.013 179.784H123.066C123.082 179.362 123.159 179.021 123.295 178.762C123.555 178.267 124.017 178.02 124.68 178.02C125.204 178.02 125.621 178.166 125.931 178.458C126.241 178.747 126.396 179.131 126.396 179.609C126.396 179.976 126.286 180.302 126.067 180.587C125.924 180.776 125.688 180.987 125.36 181.219L124.97 181.496C124.726 181.669 124.559 181.795 124.468 181.872C124.379 181.95 124.304 182.04 124.242 182.142H126.406V183H123.012C123.021 182.645 123.097 182.32 123.241 182.026C123.38 181.695 123.708 181.346 124.225 180.977C124.674 180.655 124.965 180.425 125.097 180.286C125.299 180.07 125.401 179.833 125.401 179.575C125.401 179.366 125.343 179.191 125.227 179.052ZM128.617 183.123C127.986 183.123 127.543 182.902 127.288 182.46C127.035 182.018 126.908 181.388 126.908 180.57C126.908 179.752 127.035 179.121 127.288 178.676C127.543 178.232 127.986 178.01 128.617 178.01C129.248 178.01 129.692 178.232 129.947 178.676C130.2 179.121 130.326 179.752 130.326 180.57C130.326 181.388 130.199 182.018 129.943 182.46C129.69 182.902 129.248 183.123 128.617 183.123ZM129.188 181.875C129.277 181.575 129.321 181.139 129.321 180.57C129.321 179.973 129.276 179.531 129.185 179.244C129.096 178.957 128.907 178.813 128.617 178.813C128.328 178.813 128.136 178.957 128.043 179.244C127.95 179.531 127.903 179.973 127.903 180.57C127.903 181.139 127.95 181.576 128.043 181.879C128.136 182.18 128.328 182.33 128.617 182.33C128.907 182.33 129.097 182.179 129.188 181.875Z" fill="#23483B"/>
<path d="M146.434 179.052C146.317 178.913 146.151 178.844 145.935 178.844C145.638 178.844 145.437 178.954 145.33 179.175C145.268 179.303 145.232 179.506 145.22 179.784H144.273C144.289 179.362 144.366 179.021 144.502 178.762C144.762 178.267 145.224 178.02 145.887 178.02C146.411 178.02 146.828 178.166 147.138 178.458C147.448 178.747 147.603 179.131 147.603 179.609C147.603 179.976 147.493 180.302 147.274 180.587C147.131 180.776 146.895 180.987 146.567 181.219L146.177 181.496C145.933 181.669 145.766 181.795 145.675 181.872C145.586 181.95 145.511 182.04 145.449 182.142H147.613V183H144.219C144.228 182.645 144.304 182.32 144.448 182.026C144.587 181.695 144.915 181.346 145.432 180.977C145.881 180.655 146.172 180.425 146.304 180.286C146.507 180.07 146.608 179.833 146.608 179.575C146.608 179.366 146.55 179.191 146.434 179.052ZM149.824 183.123C149.193 183.123 148.75 182.902 148.495 182.46C148.242 182.018 148.115 181.388 148.115 180.57C148.115 179.752 148.242 179.121 148.495 178.676C148.75 178.232 149.193 178.01 149.824 178.01C150.455 178.01 150.899 178.232 151.154 178.676C151.407 179.121 151.533 179.752 151.533 180.57C151.533 181.388 151.406 182.018 151.15 182.46C150.897 182.902 150.455 183.123 149.824 183.123ZM150.395 181.875C150.484 181.575 150.528 181.139 150.528 180.57C150.528 179.973 150.483 179.531 150.392 179.244C150.303 178.957 150.114 178.813 149.824 178.813C149.535 178.813 149.343 178.957 149.25 179.244C149.157 179.531 149.11 179.973 149.11 180.57C149.11 181.139 149.157 181.576 149.25 181.879C149.343 182.18 149.535 182.33 149.824 182.33C150.114 182.33 150.304 182.179 150.395 181.875ZM154.227 179.052C154.11 178.913 153.944 178.844 153.728 178.844C153.431 178.844 153.23 178.954 153.123 179.175C153.061 179.303 153.025 179.506 153.013 179.784H152.066C152.082 179.362 152.159 179.021 152.295 178.762C152.555 178.267 153.017 178.02 153.68 178.02C154.204 178.02 154.621 178.166 154.931 178.458C155.241 178.747 155.396 179.131 155.396 179.609C155.396 179.976 155.286 180.302 155.067 180.587C154.924 180.776 154.688 180.987 154.36 181.219L153.97 181.496C153.726 181.669 153.559 181.795 153.468 181.872C153.379 181.95 153.304 182.04 153.242 182.142H155.406V183H152.012C152.021 182.645 152.097 182.32 152.241 182.026C152.38 181.695 152.708 181.346 153.225 180.977C153.674 180.655 153.965 180.425 154.097 180.286C154.299 180.07 154.401 179.833 154.401 179.575C154.401 179.366 154.343 179.191 154.227 179.052ZM158.338 183H157.34V179.582H156.175V178.919C156.482 178.905 156.698 178.885 156.821 178.857C157.017 178.814 157.176 178.728 157.299 178.598C157.384 178.509 157.447 178.39 157.491 178.242C157.516 178.153 157.528 178.087 157.528 178.044H158.338V183Z" fill="#23483B"/>
<path d="M176.434 179.052C176.317 178.913 176.151 178.844 175.935 178.844C175.638 178.844 175.437 178.954 175.33 179.175C175.268 179.303 175.232 179.506 175.22 179.784H174.273C174.289 179.362 174.366 179.021 174.502 178.762C174.762 178.267 175.224 178.02 175.887 178.02C176.411 178.02 176.828 178.166 177.138 178.458C177.448 178.747 177.603 179.131 177.603 179.609C177.603 179.976 177.493 180.302 177.274 180.587C177.131 180.776 176.895 180.987 176.567 181.219L176.177 181.496C175.933 181.669 175.766 181.795 175.675 181.872C175.586 181.95 175.511 182.04 175.449 182.142H177.613V183H174.219C174.228 182.645 174.304 182.32 174.448 182.026C174.587 181.695 174.915 181.346 175.432 180.977C175.881 180.655 176.172 180.425 176.304 180.286C176.507 180.07 176.608 179.833 176.608 179.575C176.608 179.366 176.55 179.191 176.434 179.052ZM179.824 183.123C179.193 183.123 178.75 182.902 178.495 182.46C178.242 182.018 178.115 181.388 178.115 180.57C178.115 179.752 178.242 179.121 178.495 178.676C178.75 178.232 179.193 178.01 179.824 178.01C180.455 178.01 180.899 178.232 181.154 178.676C181.407 179.121 181.533 179.752 181.533 180.57C181.533 181.388 181.406 182.018 181.15 182.46C180.897 182.902 180.455 183.123 179.824 183.123ZM180.395 181.875C180.484 181.575 180.528 181.139 180.528 180.57C180.528 179.973 180.483 179.531 180.392 179.244C180.303 178.957 180.114 178.813 179.824 178.813C179.535 178.813 179.343 178.957 179.25 179.244C179.157 179.531 179.11 179.973 179.11 180.57C179.11 181.139 179.157 181.576 179.25 181.879C179.343 182.18 179.535 182.33 179.824 182.33C180.114 182.33 180.304 182.179 180.395 181.875ZM184.227 179.052C184.11 178.913 183.944 178.844 183.728 178.844C183.431 178.844 183.23 178.954 183.123 179.175C183.061 179.303 183.025 179.506 183.013 179.784H182.066C182.082 179.362 182.159 179.021 182.295 178.762C182.555 178.267 183.017 178.02 183.68 178.02C184.204 178.02 184.621 178.166 184.931 178.458C185.241 178.747 185.396 179.131 185.396 179.609C185.396 179.976 185.286 180.302 185.067 180.587C184.924 180.776 184.688 180.987 184.36 181.219L183.97 181.496C183.726 181.669 183.559 181.795 183.468 181.872C183.379 181.95 183.304 182.04 183.242 182.142H185.406V183H182.012C182.021 182.645 182.097 182.32 182.241 182.026C182.38 181.695 182.708 181.346 183.225 180.977C183.674 180.655 183.965 180.425 184.097 180.286C184.299 180.07 184.401 179.833 184.401 179.575C184.401 179.366 184.343 179.191 184.227 179.052ZM188.123 179.052C188.007 178.913 187.84 178.844 187.624 178.844C187.328 178.844 187.126 178.954 187.019 179.175C186.958 179.303 186.921 179.506 186.91 179.784H185.963C185.979 179.362 186.055 179.021 186.192 178.762C186.452 178.267 186.913 178.02 187.576 178.02C188.1 178.02 188.517 178.166 188.827 178.458C189.137 178.747 189.292 179.131 189.292 179.609C189.292 179.976 189.183 180.302 188.964 180.587C188.82 180.776 188.584 180.987 188.256 181.219L187.867 181.496C187.623 181.669 187.455 181.795 187.364 181.872C187.275 181.95 187.2 182.04 187.139 182.142H189.302V183H185.908C185.917 182.645 185.994 182.32 186.137 182.026C186.276 181.695 186.604 181.346 187.122 180.977C187.57 180.655 187.861 180.425 187.993 180.286C188.196 180.07 188.297 179.833 188.297 179.575C188.297 179.366 188.239 179.191 188.123 179.052Z" fill="#23483B"/>
<path d="M206.434 179.052C206.317 178.913 206.151 178.844 205.935 178.844C205.638 178.844 205.437 178.954 205.33 179.175C205.268 179.303 205.232 179.506 205.22 179.784H204.273C204.289 179.362 204.366 179.021 204.502 178.762C204.762 178.267 205.224 178.02 205.887 178.02C206.411 178.02 206.828 178.166 207.138 178.458C207.448 178.747 207.603 179.131 207.603 179.609C207.603 179.976 207.493 180.302 207.274 180.587C207.131 180.776 206.895 180.987 206.567 181.219L206.177 181.496C205.933 181.669 205.766 181.795 205.675 181.872C205.586 181.95 205.511 182.04 205.449 182.142H207.613V183H204.219C204.228 182.645 204.304 182.32 204.448 182.026C204.587 181.695 204.915 181.346 205.432 180.977C205.881 180.655 206.172 180.425 206.304 180.286C206.507 180.07 206.608 179.833 206.608 179.575C206.608 179.366 206.55 179.191 206.434 179.052ZM209.824 183.123C209.193 183.123 208.75 182.902 208.495 182.46C208.242 182.018 208.115 181.388 208.115 180.57C208.115 179.752 208.242 179.121 208.495 178.676C208.75 178.232 209.193 178.01 209.824 178.01C210.455 178.01 210.899 178.232 211.154 178.676C211.407 179.121 211.533 179.752 211.533 180.57C211.533 181.388 211.406 182.018 211.15 182.46C210.897 182.902 210.455 183.123 209.824 183.123ZM210.395 181.875C210.484 181.575 210.528 181.139 210.528 180.57C210.528 179.973 210.483 179.531 210.392 179.244C210.303 178.957 210.114 178.813 209.824 178.813C209.535 178.813 209.343 178.957 209.25 179.244C209.157 179.531 209.11 179.973 209.11 180.57C209.11 181.139 209.157 181.576 209.25 181.879C209.343 182.18 209.535 182.33 209.824 182.33C210.114 182.33 210.304 182.179 210.395 181.875ZM214.227 179.052C214.11 178.913 213.944 178.844 213.728 178.844C213.431 178.844 213.23 178.954 213.123 179.175C213.061 179.303 213.025 179.506 213.013 179.784H212.066C212.082 179.362 212.159 179.021 212.295 178.762C212.555 178.267 213.017 178.02 213.68 178.02C214.204 178.02 214.621 178.166 214.931 178.458C215.241 178.747 215.396 179.131 215.396 179.609C215.396 179.976 215.286 180.302 215.067 180.587C214.924 180.776 214.688 180.987 214.36 181.219L213.97 181.496C213.726 181.669 213.559 181.795 213.468 181.872C213.379 181.95 213.304 182.04 213.242 182.142H215.406V183H212.012C212.021 182.645 212.097 182.32 212.241 182.026C212.38 181.695 212.708 181.346 213.225 180.977C213.674 180.655 213.965 180.425 214.097 180.286C214.299 180.07 214.401 179.833 214.401 179.575C214.401 179.366 214.343 179.191 214.227 179.052ZM217.029 179.032C216.92 179.178 216.868 179.372 216.872 179.616H215.963C215.972 179.37 216.014 179.137 216.089 178.916C216.169 178.722 216.294 178.543 216.465 178.379C216.593 178.263 216.744 178.174 216.92 178.112C217.095 178.051 217.311 178.02 217.566 178.02C218.04 178.02 218.422 178.143 218.711 178.389C219.003 178.633 219.148 178.961 219.148 179.374C219.148 179.665 219.062 179.911 218.889 180.112C218.779 180.237 218.665 180.323 218.547 180.368C218.636 180.368 218.763 180.444 218.93 180.597C219.178 180.827 219.302 181.142 219.302 181.541C219.302 181.96 219.156 182.329 218.865 182.648C218.575 182.965 218.146 183.123 217.576 183.123C216.874 183.123 216.387 182.894 216.113 182.436C215.97 182.192 215.89 181.873 215.874 181.479H216.831C216.831 181.677 216.863 181.841 216.927 181.971C217.045 182.21 217.261 182.33 217.573 182.33C217.764 182.33 217.931 182.265 218.072 182.135C218.215 182.003 218.287 181.814 218.287 181.568C218.287 181.242 218.155 181.024 217.891 180.915C217.74 180.854 217.503 180.823 217.18 180.823V180.125C217.496 180.121 217.717 180.09 217.843 180.033C218.059 179.938 218.167 179.744 218.167 179.452C218.167 179.263 218.112 179.109 218 178.991C217.891 178.872 217.736 178.813 217.535 178.813C217.305 178.813 217.136 178.886 217.029 179.032Z" fill="#23483B"/>
<path d="M235.434 179.052C235.317 178.913 235.151 178.844 234.935 178.844C234.638 178.844 234.437 178.954 234.33 179.175C234.268 179.303 234.232 179.506 234.22 179.784H233.273C233.289 179.362 233.366 179.021 233.502 178.762C233.762 178.267 234.224 178.02 234.887 178.02C235.411 178.02 235.828 178.166 236.138 178.458C236.448 178.747 236.603 179.131 236.603 179.609C236.603 179.976 236.493 180.302 236.274 180.587C236.131 180.776 235.895 180.987 235.567 181.219L235.177 181.496C234.933 181.669 234.766 181.795 234.675 181.872C234.586 181.95 234.511 182.04 234.449 182.142H236.613V183H233.219C233.228 182.645 233.304 182.32 233.448 182.026C233.587 181.695 233.915 181.346 234.432 180.977C234.881 180.655 235.172 180.425 235.304 180.286C235.507 180.07 235.608 179.833 235.608 179.575C235.608 179.366 235.55 179.191 235.434 179.052ZM238.824 183.123C238.193 183.123 237.75 182.902 237.495 182.46C237.242 182.018 237.115 181.388 237.115 180.57C237.115 179.752 237.242 179.121 237.495 178.676C237.75 178.232 238.193 178.01 238.824 178.01C239.455 178.01 239.899 178.232 240.154 178.676C240.407 179.121 240.533 179.752 240.533 180.57C240.533 181.388 240.406 182.018 240.15 182.46C239.897 182.902 239.455 183.123 238.824 183.123ZM239.395 181.875C239.484 181.575 239.528 181.139 239.528 180.57C239.528 179.973 239.483 179.531 239.392 179.244C239.303 178.957 239.114 178.813 238.824 178.813C238.535 178.813 238.343 178.957 238.25 179.244C238.157 179.531 238.11 179.973 238.11 180.57C238.11 181.139 238.157 181.576 238.25 181.879C238.343 182.18 238.535 182.33 238.824 182.33C239.114 182.33 239.304 182.179 239.395 181.875ZM243.227 179.052C243.11 178.913 242.944 178.844 242.728 178.844C242.431 178.844 242.23 178.954 242.123 179.175C242.061 179.303 242.025 179.506 242.013 179.784H241.066C241.082 179.362 241.159 179.021 241.295 178.762C241.555 178.267 242.017 178.02 242.68 178.02C243.204 178.02 243.621 178.166 243.931 178.458C244.241 178.747 244.396 179.131 244.396 179.609C244.396 179.976 244.286 180.302 244.067 180.587C243.924 180.776 243.688 180.987 243.36 181.219L242.97 181.496C242.726 181.669 242.559 181.795 242.468 181.872C242.379 181.95 242.304 182.04 242.242 182.142H244.406V183H241.012C241.021 182.645 241.097 182.32 241.241 182.026C241.38 181.695 241.708 181.346 242.225 180.977C242.674 180.655 242.965 180.425 243.097 180.286C243.299 180.07 243.401 179.833 243.401 179.575C243.401 179.366 243.343 179.191 243.227 179.052ZM248.35 181.171V181.934H247.79V183H246.836V181.934H244.874V181.083L246.696 178.075H247.79V181.171H248.35ZM245.595 181.171H246.836V179.032L245.595 181.171Z" fill="#BA6565"/>
<path d="M265.434 179.052C265.317 178.913 265.151 178.844 264.935 178.844C264.638 178.844 264.437 178.954 264.33 179.175C264.268 179.303 264.232 179.506 264.22 179.784H263.273C263.289 179.362 263.366 179.021 263.502 178.762C263.762 178.267 264.224 178.02 264.887 178.02C265.411 178.02 265.828 178.166 266.138 178.458C266.448 178.747 266.603 179.131 266.603 179.609C266.603 179.976 266.493 180.302 266.274 180.587C266.131 180.776 265.895 180.987 265.567 181.219L265.177 181.496C264.933 181.669 264.766 181.795 264.675 181.872C264.586 181.95 264.511 182.04 264.449 182.142H266.613V183H263.219C263.228 182.645 263.304 182.32 263.448 182.026C263.587 181.695 263.915 181.346 264.432 180.977C264.881 180.655 265.172 180.425 265.304 180.286C265.507 180.07 265.608 179.833 265.608 179.575C265.608 179.366 265.55 179.191 265.434 179.052ZM268.824 183.123C268.193 183.123 267.75 182.902 267.495 182.46C267.242 182.018 267.115 181.388 267.115 180.57C267.115 179.752 267.242 179.121 267.495 178.676C267.75 178.232 268.193 178.01 268.824 178.01C269.455 178.01 269.899 178.232 270.154 178.676C270.407 179.121 270.533 179.752 270.533 180.57C270.533 181.388 270.406 182.018 270.15 182.46C269.897 182.902 269.455 183.123 268.824 183.123ZM269.395 181.875C269.484 181.575 269.528 181.139 269.528 180.57C269.528 179.973 269.483 179.531 269.392 179.244C269.303 178.957 269.114 178.813 268.824 178.813C268.535 178.813 268.343 178.957 268.25 179.244C268.157 179.531 268.11 179.973 268.11 180.57C268.11 181.139 268.157 181.576 268.25 181.879C268.343 182.18 268.535 182.33 268.824 182.33C269.114 182.33 269.304 182.179 269.395 181.875ZM273.227 179.052C273.11 178.913 272.944 178.844 272.728 178.844C272.431 178.844 272.23 178.954 272.123 179.175C272.061 179.303 272.025 179.506 272.013 179.784H271.066C271.082 179.362 271.159 179.021 271.295 178.762C271.555 178.267 272.017 178.02 272.68 178.02C273.204 178.02 273.621 178.166 273.931 178.458C274.241 178.747 274.396 179.131 274.396 179.609C274.396 179.976 274.286 180.302 274.067 180.587C273.924 180.776 273.688 180.987 273.36 181.219L272.97 181.496C272.726 181.669 272.559 181.795 272.468 181.872C272.379 181.95 272.304 182.04 272.242 182.142H274.406V183H271.012C271.021 182.645 271.097 182.32 271.241 182.026C271.38 181.695 271.708 181.346 272.225 180.977C272.674 180.655 272.965 180.425 273.097 180.286C273.299 180.07 273.401 179.833 273.401 179.575C273.401 179.366 273.343 179.191 273.227 179.052ZM276.556 180.539C276.437 180.539 276.335 180.554 276.248 180.583C276.095 180.638 275.98 180.74 275.903 180.888L275.028 180.847L275.376 178.109H278.107V178.936H276.081L275.903 180.02C276.053 179.922 276.171 179.857 276.255 179.825C276.396 179.772 276.568 179.746 276.771 179.746C277.181 179.746 277.539 179.884 277.844 180.16C278.15 180.435 278.302 180.836 278.302 181.363C278.302 181.821 278.155 182.23 277.861 182.59C277.567 182.95 277.128 183.13 276.542 183.13C276.07 183.13 275.683 183.003 275.38 182.75C275.077 182.498 274.908 182.139 274.874 181.674H275.845C275.883 181.886 275.958 182.05 276.067 182.166C276.176 182.28 276.336 182.337 276.545 182.337C276.787 182.337 276.97 182.253 277.096 182.084C277.223 181.913 277.287 181.699 277.287 181.441C277.287 181.188 277.228 180.975 277.109 180.802C276.991 180.627 276.806 180.539 276.556 180.539Z" fill="#BA6565"/>
<rect x="26" y="31" width="253" height="135" fill="#798E7F" fill-opacity="0.5"/>
<line x1="26" y1="135.25" x2="279" y2="135.25" stroke="white" stroke-width="1.5"/>
<line x1="26" y1="103.25" x2="279" y2="103.25" stroke="white" stroke-width="1.5"/>
<line x1="26" y1="71.25" x2="279" y2="71.25" stroke="white" stroke-width="1.5"/>
<line x1="26" y1="39.25" x2="279" y2="39.25" stroke="white" stroke-width="1.5"/>
<path d="M26 151L60.4582 145.456L89.8491 140.416L123.801 124.288L152.685 113.2L187.143 103.12L214 88" stroke="#23483B" stroke-width="1.5"/>
<path d="M215.5 87.5L243.5 73L274.5 48.5" stroke="#BA6565" stroke-width="1.5" stroke-dasharray="3 3"/>
<line x1="212.25" y1="91" x2="212.25" y2="166" stroke="white" stroke-width="0.5"/>
<line x1="241.25" y1="77" x2="241.25" y2="166" stroke="white" stroke-width="0.5"/>
<line x1="270.25" y1="56" x2="270.25" y2="166" stroke="white" stroke-width="0.5"/>
</svg>
