<?xml version="1.0" encoding="UTF-8"?><svg id="Layer_1" xmlns="http://www.w3.org/2000/svg" width="153" height="227" viewBox="0 0 153 227"><defs><style>.cls-1{stroke:#ffbb02;}.cls-1,.cls-2{fill:none;stroke-miterlimit:10;stroke-width:3px;}.cls-2{stroke:#798e7f;}</style></defs><path class="cls-2" d="M51,59c-3.18,5.92-3.66,12.56-4.54,17.88-.5,3.04-1.46,7.6-3.46,13.12,0,0-6.41,23.89-8,35-.02.16-.05.37-1,7,.33,1.01.9,2.18,2,3,1.91,1.43,4.38,1.07,5,1,4.04-.47,29.47-.36,65,0,1.15.22,4.1.6,7-1,2-1.11,3.09-2.67,4-4,2.19-3.21,2.85-6.3,3-7,2.92-13.4,9.61-38.84,11-44,.4-1.48,1.75-4.09,1-7-.85-3.3-1.66-3.86-2-4-2.67-1.06-6.79-1.42-10-1,0,0,12,0,0,0h-23c-3,0-12.31.58-16,0-2.23-.35-3.96-.64-5-2-1.05-1.37-.28-2.37-1-6-.53-2.67-.82-4.15-2-5-1.21-.87-.1-.2-5,0-3.18.13-8,0-8,0-3.18-.14-3.81-.41-5,0-2.05.71-3.22,2.55-4,4Z"/><path class="cls-2" d="M85,59h26c1.07-.12,4.38-.08,11,0,.72,0,2.15.04,3,1,.35.39.42.75,1,2,.4.86-.25,5.54,0,6"/><line class="cls-1" x1="20" y1="69.5" x2="62" y2="69.5"/><line class="cls-1" x1="29" y1="77.5" x2="54" y2="77.5"/><line class="cls-1" x1="24.07" y1="92.62" x2="49.5" y2="92.5"/></svg>