<?xml version="1.0" encoding="UTF-8"?><svg id="Layer_1" xmlns="http://www.w3.org/2000/svg" width="180" height="180" viewBox="0 0 180 180"><defs><style>.cls-1{stroke:#ffbb02;}.cls-1,.cls-2{fill:none;stroke-miterlimit:10;stroke-width:3px;}.cls-2{stroke:#798e7f;}</style></defs><path class="cls-2" d="M49.23,19.62c-5.04,11.69-5.8,24.79-7.2,35.29-.8,6-2.32,15.01-5.49,25.9,0,0-10.16,47.16-12.68,69.08-.04.31-.08.73-1.59,13.82.52,2,1.43,4.3,3.17,5.92,3.03,2.83,6.95,2.12,7.93,1.97,6.4-.93,46.72-.71,103.05,0,1.83.43,6.5,1.19,11.1-1.97,3.18-2.18,4.91-5.27,6.34-7.9,3.47-6.33,4.51-12.44,4.76-13.82,4.63-26.45,15.23-76.66,17.44-86.85.64-2.93,2.78-8.07,1.59-13.82-1.35-6.52-2.62-7.63-3.17-7.9-4.24-2.08-10.77-2.8-15.85-1.97,0,0,19.02,0,0,0h-36.46c-4.76,0-19.51,1.14-25.37,0-3.54-.69-6.28-1.27-7.93-3.95-1.66-2.7-.45-4.68-1.59-11.84-.84-5.27-1.3-8.18-3.17-9.87-1.91-1.73-.16-.39-7.93,0-5.03.25-12.68,0-12.68,0-5.04-.28-6.03-.82-7.93,0-3.25,1.4-5.11,5.03-6.34,7.9Z"/><path class="cls-2" d="M103.13,19.62h41.22c1.7-.23,6.95-.15,17.44,0,1.14.02,3.41.09,4.76,1.97.55.78.67,1.48,1.59,3.95.63,1.69-.39,10.94,0,11.84"/><line class="cls-1" x1=".08" y1="40.34" x2="66.67" y2="40.34"/><line class="cls-1" x1="14.35" y1="56.13" x2="53.99" y2="56.13"/><line class="cls-1" x1="6.54" y1="85.97" x2="46.85" y2="85.74"/></svg>