<?xml version="1.0" encoding="UTF-8"?><svg xmlns="http://www.w3.org/2000/svg" width="180" height="180" viewBox="0 0 180 180"><defs><style>.cls-1{stroke:#ffbb02;stroke-width:3px;}.cls-1,.cls-2,.cls-3{fill:none;stroke-miterlimit:10;}.cls-2{stroke-width:4px;}.cls-2,.cls-3{stroke:#798e7f;}.cls-3{stroke-width:4.1px;}</style></defs><g id="Layer_3"><circle class="cls-1" cx="144" cy="44" r="10"/><circle class="cls-1" cx="77.5" cy="49.5" r="10"/><path class="cls-1" d="M69.5,135.5c-.67-11.67-1.33-23.33-2-35-.17.02-3.11.34-5-2-1.76-2.18-1.07-4.76-1-5-.01-1.8-.06-12.75,1-20,.19-1.27.52-3.23,2-5,1.61-1.94,3.78-2.69,5-3h17c1.26.32,3.4,1.08,5,3,1.48,1.78,1.82,3.75,2,5,1.04,7.12,1.01,16.96,1,19,.07.24.76,2.84-1,5-1.5,1.84-3.65,1.98-4,2-.33,12.33-.67,24.67-1,37"/><path class="cls-1" d="M99.5,136.5c-.33-10.67-.67-21.33-1-32-.46-.21-2.11-1.04-3-3-1.1-2.42-.16-4.64,0-5v-18c.26-.68.82-1.89,2-3,1.55-1.45,3.27-1.87,4-2h13c1.67.67,3.33,1.33,5,2"/><path class="cls-1" d="M116.5,136.5c.33-10.67.67-21.33,1-32,.49,0,1.79-.08,3-1,1.89-1.43,1.99-3.68,2-4,.49,0,1.79-.08,3-1,1.89-1.43,1.99-3.68,2-4,1-5.67,2-11.33,3-17,.52-2.16,2.13-3.25,3-3,.85.25,1.6,1.96,1,4-1.67,19.33-3.33,38.67-5,58"/><path class="cls-1" d="M141.5,136.5c.67-8,1.33-16,2-24-.27-1.37.63-2.73,2-3s2.73.63,3,2c.67,8.33,1.33,16.67,2,25"/><path class="cls-1" d="M162.5,136.5c-1.33-21.67-2.67-43.33-4-65,5.67-10.67,11.33-21.33,17-32,1.65-2.19,1.19-5.35-1-7s-5.35-1.19-7,1c-3.67,7-7.33,14-11,21-.19.62-1.11,3.4-4,5-2.15,1.19-4.21,1.08-5,1-4.33.33-8.67.67-13,1-1.62.54-3.76,1.45-6,3-2.96,2.05-4.87,4.38-6,6-2,7.33-4,14.67-6,22-.08.35-.65,2.87,1,5,1.06,1.37,2.46,1.85,3,2"/><circle class="cls-1" cx="108" cy="60" r="8.5"/></g><g id="Layer_2"><path class="cls-3" d="M149.68,156.3c-15.66,13.57-36.2,21.81-58.69,21.81-49.1,0-88.9-39.22-88.9-87.6S41.9,2.9,90.99,2.9c16.75,0,32.42,4.56,45.79,12.5"/><path class="cls-2" d="M37.39,27.43c.79.18,2.83,1.17,5.39.34,2.55-.83,3.28-2.7,4.73-2.33,1.71.44,1.65,3.32,3.89,7.94,2.77,5.72,5.24,6.2,5.43,9.56.1,1.69-.38,4.15-3.1,7.31-2.59-4.28-20.69-14.1-15.57,2.98,6.11-2.25,11.34-1.35,12.29,1.36,1.01,2.87-2.31,9.18-9.17,13.53-2.59,5.81-5.96,11.74-9.03,11.1-4.02-.82-4.86-12.3-7.31-12.1-2,.16-4.34,8.01-3.22,14.56,2.49,14.67,21.65,18.98,22.68,19.2,5.76,3.73,6.92,6.93,6.99,9.09.22,7.07-11.04,9.01-14.77,21.69-2.32,7.9-.08,14.39-1.56,14.89-1.81.61-7.03-8.44-7.78-18.86-.51-7.16,1.41-10.43-.78-14.89-2.02-4.13-4.99-4.04-6.23-7.94-1.19-3.76.25-8.03,1.56-10.92-2.02-2.09-4.53-5.3-6.23-9.93-8.83-24.08,14.62-58.26,21.79-56.58Z"/></g></svg>