<svg width="235" height="97" viewBox="0 0 235 97" fill="none" xmlns="http://www.w3.org/2000/svg">
<path d="M233.068 65.0163C232.239 70.6495 228.46 75.7465 221.971 80.1055C215.481 84.4648 206.416 87.9862 195.361 90.468C173.26 95.4293 143.527 96.1659 111.424 91.4411C79.3207 86.7164 51.0603 77.4447 31.3266 66.3266C21.4551 60.7648 13.7888 54.781 8.83027 48.7369C3.87205 42.6931 1.7219 36.7235 2.55096 31.0903C3.38001 25.4571 7.15888 20.3601 13.6481 16.0011C20.1378 11.6418 29.203 8.12041 40.2583 5.63856C62.3584 0.677216 92.0918 -0.0593097 124.195 4.66542C156.298 9.39015 184.558 18.6618 204.292 29.78C214.164 35.3417 221.83 41.3255 226.789 47.3697C231.747 53.4135 233.897 59.3831 233.068 65.0163Z" stroke="#F6B400" stroke-width="3"/>
</svg>
