<?xml version="1.0" encoding="UTF-8"?><svg id="Layer_2" xmlns="http://www.w3.org/2000/svg" width="258" height="235" viewBox="0 0 258 235"><defs><style>.cls-1{fill:none;}.cls-1,.cls-2{stroke:#fff;stroke-miterlimit:10;stroke-width:5px;}.cls-2{fill:#fff;}</style></defs><path class="cls-1" d="M1.5,217.5c45.73,14.57,82.46,14.35,105.08,12.22,41.4-3.9,50.68-15.64,53.92-21.22,3.2-5.51,9.27-19.87,5-34-2.21-7.3-6.25-11.28-6.19-19.83.04-5.24,1.77-10.98,6.19-18.17,11.21-18.23,35.89-7.96,45.6-23.02,4.39-6.81,4.94-16.89,1.41-23.98-6.69-13.42-24.49-8.97-36-25-1.1-1.53-8.39-11.69-5.94-20.9,3.42-12.83,25.18-21.58,53.94-19.1"/><path class="cls-2" d="M247.5,41.5h-18c-1.06-.3-3.16-1.06-5-3-1.02-1.08-1.63-2.18-2-3V12.5c.08-.59.42-2.42,2-4,.42-.42,1.79-1.68,4-2,6.33-.33,12.67-.67,19-1v36Z"/><line class="cls-1" x1="258" y1="17.5" x2="243" y2="17.5"/><line class="cls-1" x1="258" y1="30.5" x2="243" y2="30.5"/></svg>