<?xml version="1.0" encoding="UTF-8"?><svg id="Layer_2" xmlns="http://www.w3.org/2000/svg" width="180" height="180" viewBox="0 0 180 180"><defs><style>.cls-1,.cls-2,.cls-3,.cls-4{fill:none;}.cls-5{fill:#ffbb02;}.cls-2{stroke-width:4px;}.cls-2,.cls-3,.cls-4{stroke:#798e7f;stroke-miterlimit:10;}.cls-3{stroke-width:4.41px;}.cls-4{stroke-width:3px;}</style></defs><path class="cls-3" d="M28,108c5.64,2.08,10.43,2.02,12,2,18.2-.21,54.68-.08,103,0,2.45-.11,6.01-.53,10-2,8.11-2.99,12.78-8.38,15-11,2.23-2.64,10.13-11.98,10-26-.02-2.58-.45-18.8-14-29-9.44-7.11-19.71-7.13-23-7-1.09-2.47-5.16-10.89-15-16-10-5.19-19.39-3.55-22-3-2.21-1.92-13.81-11.63-30-10-15.23,1.53-28.5,12.49-34,28-1.79,0-21.56.22-32,16-7.23,10.93-5.52,22.47-5,26,2.18,14.75,12.61,27.43,25,32Z"/><path class="cls-2" d="M87,112.12v40.51h-8l12,20.25,12-20.25h-8v-40.51"/><path class="cls-4" d="M119.76,109.98v31.37h-6.48l9.71,15.68c3.24-5.23,6.48-10.46,9.71-15.68h-6.48v-31.37"/><path class="cls-4" d="M51.76,109.98v31.37h-6.48l9.71,15.68c3.24-5.23,6.48-10.46,9.71-15.68h-6.48v-31.37"/><rect class="cls-1" x="50.77" y="50.5" width="87.75" height="46.87"/><path class="cls-5" d="M71.78,52.44c1.78,1.72,2.77,3.68,2.97,5.87h-3.41c-.38-1.66-1.14-2.98-2.27-3.96-1.13-.97-2.73-1.46-4.77-1.46-2.5,0-4.51.89-6.05,2.68-1.54,1.79-2.3,4.53-2.3,8.22,0,3.03.69,5.48,2.08,7.36,1.39,1.88,3.46,2.82,6.21,2.82,2.53,0,4.46-.99,5.78-2.97.7-1.04,1.23-2.41,1.57-4.11h3.41c-.3,2.72-1.3,5-2.99,6.84-2.03,2.21-4.76,3.32-8.2,3.32-2.97,0-5.46-.91-7.47-2.73-2.65-2.4-3.98-6.12-3.98-11.13,0-3.81,1-6.94,2.99-9.38,2.15-2.65,5.12-3.98,8.91-3.98,3.23,0,5.74.86,7.52,2.58Z"/><path class="cls-5" d="M100.78,54.25c1.71,2.29,2.57,5.21,2.57,8.77,0,3.86-.98,7.06-2.94,9.62-2.3,3-5.57,4.5-9.83,4.5-3.97,0-7.1-1.31-9.37-3.94-2.03-2.53-3.04-5.73-3.04-9.6,0-3.49.87-6.48,2.6-8.96,2.23-3.19,5.52-4.78,9.88-4.78s7.93,1.46,10.12,4.39ZM97.7,70.71c1.38-2.21,2.07-4.75,2.07-7.63,0-3.04-.79-5.48-2.38-7.34-1.59-1.85-3.76-2.78-6.51-2.78s-4.85.92-6.54,2.75c-1.69,1.83-2.53,4.54-2.53,8.12,0,2.86.72,5.28,2.17,7.24,1.45,1.96,3.79,2.95,7.04,2.95s5.31-1.11,6.69-3.32Z"/><path class="cls-5" d="M107.24,70.72c.78-1.61,2.3-3.06,4.56-4.38l3.38-1.95c1.51-.88,2.57-1.63,3.18-2.25.96-.97,1.44-2.09,1.44-3.35,0-1.47-.44-2.63-1.32-3.5-.88-.86-2.05-1.29-3.52-1.29-2.17,0-3.67.82-4.5,2.47-.45.88-.69,2.1-.74,3.67h-3.22c.04-2.19.44-3.98,1.21-5.36,1.37-2.44,3.79-3.66,7.26-3.66,2.88,0,4.99.78,6.32,2.34s2,3.29,2,5.2c0,2.02-.71,3.74-2.13,5.17-.82.83-2.29,1.84-4.41,3.02l-2.41,1.34c-1.15.63-2.05,1.24-2.71,1.81-1.17,1.02-1.91,2.15-2.21,3.39h13.75v2.99h-17.28c.12-2.17.57-4.05,1.34-5.66Z"/><path class="cls-4" d="M144.55,31.22c.62-2.2,3.57-11.74,13.28-17.48,7.02-4.15,13.86-4.12,16.62-3.96-.4,1.61-3.99,15.18-16.63,20.08-5.42,2.1-10.39,1.8-13.27,1.36Z"/><path class="cls-4" d="M141.5,27.5c-1.14-1.81-3.11-5.5-3.49-10.55-.48-6.44,1.91-11.26,2.97-13.13.92.89,4.34,4.38,4.87,10.07.48,5.14-1.7,8.9-2.44,10.06-.64,1.18-1.27,2.37-1.91,3.55Z"/></svg>