<?xml version="1.0" encoding="UTF-8"?><svg xmlns="http://www.w3.org/2000/svg" width="180" height="180" viewBox="0 0 180 180"><defs><style>.cls-1,.cls-2,.cls-3{fill:none;}.cls-4{fill:#ffbb02;}.cls-2{stroke-width:4px;}.cls-2,.cls-3{stroke:#798e7f;}.cls-2,.cls-3,.cls-5{stroke-miterlimit:10;}.cls-3,.cls-5{stroke-width:3px;}.cls-5{fill:#f7f7f5;stroke:#f6b400;}</style></defs><g id="Layer_2"><path class="cls-3" d="M124.26,67.89c3.75-8.8,7.49-17.59,11.24-26.39-2.33-7.33-4.67-14.67-7-22-10-5.33-20-10.67-30-16-.27-.21-1.9-1.4-4-1-1.93.37-3.5,1.94-4,4-8.49,20.24-16.97,40.47-25.46,60.71l-.54,1.29"/><path class="cls-3" d="M128.5,20.5l-5,10c-1.12,1.09-1.51,2.67-1,4,.51,1.34,1.74,1.89,2,2,3.33,1.67,6.67,3.33,10,5"/><rect class="cls-3" x="93.5" y="18.5" width="22" height="11" transform="translate(22.66 -45.27) rotate(27.31)"/><line class="cls-3" x1="125.5" y1="48.5" x2="92.5" y2="30.5"/><line class="cls-3" x1="121.5" y1="57.5" x2="112.5" y2="52.5"/><line class="cls-3" x1="117.5" y1="66.5" x2="108.5" y2="61.5"/><line class="cls-3" x1="78.12" y1="67.36" x2="76.5" y2="66.5"/><path class="cls-3" d="M59.36,67.14c1.69-3.96,3.76-8.8,6-14.01,3.04-7.07,6.38-14.82,9.46-21.95,4.72-10.92,8.84-20.41,10.34-23.89.14-.31.25-.58.34-.79.85-1.99,2.96-2,3-2,1.66-.33,3.18.47,4,1"/><path class="cls-3" d="M53.24,67.07c1.99-4.73,4.6-10.83,7.39-17.32,2.93-6.8,6.05-14.03,8.87-20.52,4.38-10.1,8.01-18.44,9-20.73.85-1.99,2.96-2,3-2,1.45-.29,2.8.29,3.66.79h0c.12.07.24.14.34.21"/><path class="cls-5" d="M94.5,67.5c.68.22,2.41.79,4,0,1.22-.6,1.8-1.61,2-2,2-4.67,4-9.33,6-14,.12-.26.94-2.1,0-4-.57-1.16-1.57-1.76-2-2-2.44-1.38-15.31-8.04-33-17-.23-.1-1.54-.63-3,0-1.35.58-1.89,1.74-2,2l-6,15c-.1.23-.63,1.54,0,3,.58,1.35,1.74,1.89,2,2,16.56,9.48,28.97,16.04,32,17Z"/><rect class="cls-1" x="77.22" y="34.06" width="46.87" height="87.75" transform="translate(-14.08 133.07) rotate(-63.42)"/><path class="cls-4" d="M72.9,37.87l3.59,1.8c1.22.61,1.94,1.52,2.18,2.73.2,1.09,0,2.25-.62,3.49-.48.95-1.08,1.73-1.82,2.32-1.3,1.05-2.72,1.19-4.24.43l-3.58-1.79,4.49-8.98ZM72.27,47.49c.4.2.75.32,1.06.37.54.07,1.07-.04,1.59-.35.42-.25.82-.62,1.21-1.14.23-.31.42-.61.56-.9.56-1.11.77-2.08.65-2.92-.12-.83-.67-1.49-1.63-1.97l-2.11-1.06-3.45,6.9,2.12,1.06Z"/><path class="cls-4" d="M88.64,47.35c.2,1.09-.01,2.26-.63,3.5-.67,1.34-1.57,2.29-2.69,2.83-1.32.64-2.72.6-4.2-.14-1.38-.69-2.24-1.69-2.57-3-.26-1.23-.06-2.52.61-3.87.61-1.21,1.43-2.1,2.46-2.67,1.33-.72,2.75-.7,4.27.06,1.58.79,2.5,1.89,2.76,3.29ZM84.7,52.54c.86-.53,1.54-1.29,2.05-2.29.53-1.06.68-2.04.45-2.97s-.82-1.62-1.78-2.1c-.93-.46-1.85-.53-2.75-.18-.91.34-1.67,1.14-2.29,2.38-.5.99-.67,1.96-.5,2.9.16.93.81,1.68,1.94,2.25,1.07.54,2.04.54,2.9.01Z"/><path class="cls-4" d="M97.65,51.07c.32.91.32,1.76.01,2.56l-1.19-.59c.16-.65.12-1.24-.1-1.77-.22-.54-.69-.98-1.41-1.34-.87-.43-1.73-.47-2.57-.12-.85.36-1.59,1.17-2.23,2.46-.53,1.05-.71,2.03-.56,2.92.16.9.71,1.58,1.67,2.06.88.44,1.72.43,2.53-.03.43-.24.85-.63,1.26-1.16l1.19.59c-.58.89-1.32,1.51-2.23,1.86-1.09.42-2.23.33-3.43-.27-1.03-.52-1.74-1.27-2.12-2.25-.5-1.3-.32-2.82.55-4.56.66-1.33,1.55-2.24,2.67-2.74,1.21-.55,2.47-.49,3.79.17,1.12.56,1.85,1.3,2.17,2.21Z"/></g><g id="Layer_6"><path class="cls-2" d="M118,176h-53c-2.47-.57-8.31-2.27-13.5-7.5-4.53-4.57-6.31-9.56-7-12-2.17-24.83-4.33-49.67-6.5-74.5h-9v-9h9c.71-.91,1.68-1.98,3-3,2.26-1.75,4.5-2.59,6-3,46.3-.06,80.04.43,85,1,4.25.49,7,3,7,3,1,.8,1.67,1.59,2,2h9v9h-9c-1.27,35.48-3.12,62.42-4.5,74.5-.36,3.13-1.1,8.92-5.5,13.5-4.25,4.42-9.9,5.61-13,6Z"/><path class="cls-2" d="M75,118c4.67,4.67,9.33,9.33,14,14,7.33-9.67,14.67-19.33,22-29"/></g></svg>