<?xml version="1.0" encoding="UTF-8"?><svg id="Layer_1" xmlns="http://www.w3.org/2000/svg" width="180" height="180" viewBox="0 0 180 180"><defs><style>.cls-1{fill:#798e7f;}</style></defs><path class="cls-1" d="M41.14,47.54c0,4.25-1.89,8.33-5.25,11.33-3.36,3-7.92,4.69-12.67,4.69-4.75,0-9.3-1.69-12.66-4.7-3.36-3.01-5.24-7.09-5.24-11.34,0-4.25,1.89-8.33,5.25-11.33,3.36-3,7.92-4.69,12.67-4.69,4.75,0,9.3,1.69,12.66,4.7,3.36,3.01,5.24,7.09,5.24,11.34ZM41.68,75.43H5.86v100.35h35.82v-100.35ZM98.27,75.43h-35.64v100.35h35.28v-52.66c0-29.34,42.71-32.06,42.71,0v52.66h35.37v-63.56c0-49.46-63.22-47.61-78.09-23.32l.36-13.47Z"/></svg>