<svg width="202" height="258" viewBox="0 0 202 258" fill="none" xmlns="http://www.w3.org/2000/svg">
<path d="M1.6502 192.083L103.435 57.8239L200.319 83.5712L98.6985 226.429L1.6502 192.083Z" fill="#D1D1D1" stroke="#798E7F" stroke-width="2"/>
<path d="M93.0681 98.8678L110.963 74.1682L146.889 82.4326L125.403 111.265L93.0681 98.8678Z" fill="#B2B2B2" stroke="#798E7F" stroke-width="2"/>
<path d="M77.9095 115.022L80.3609 112.202L147.037 137.766L143.255 142.922L77.9095 115.022Z" fill="#B2B2B2" stroke="#798E7F" stroke-width="2"/>
<path d="M62.6642 132.556L65.1156 129.737L131.792 155.301L128.01 160.456L62.6642 132.556Z" fill="#B2B2B2" stroke="#798E7F" stroke-width="2"/>
<path d="M47.4189 150.092L49.8703 147.272L116.547 172.836L112.765 177.992L47.4189 150.092Z" fill="#B2B2B2" stroke="#798E7F" stroke-width="2"/>
<path d="M32.1735 167.627L34.6249 164.808L101.301 190.371L97.5193 195.527L32.1735 167.627Z" fill="#B2B2B2" stroke="#798E7F" stroke-width="2"/>
<path d="M1.6502 183.316L103.435 49.0563L200.319 74.8036L98.6985 217.662L1.6502 183.316Z" fill="#E7E7E7" stroke="#798E7F" stroke-width="2"/>
<path d="M93.0681 90.1007L110.963 65.4011L146.889 73.6655L125.403 102.498L93.0681 90.1007Z" fill="#C7C7C7" stroke="#798E7F" stroke-width="2"/>
<path d="M77.9095 106.255L80.3609 103.435L147.037 128.999L143.255 134.155L77.9095 106.255Z" fill="#C7C7C7" stroke="#798E7F" stroke-width="2"/>
<path d="M62.6642 123.789L65.1156 120.97L131.792 146.533L128.01 151.689L62.6642 123.789Z" fill="#C7C7C7" stroke="#798E7F" stroke-width="2"/>
<path d="M47.4189 141.324L49.8703 138.505L116.547 164.069L112.765 169.225L47.4189 141.324Z" fill="#C7C7C7" stroke="#798E7F" stroke-width="2"/>
<path d="M32.1735 158.859L34.6249 156.039L101.301 181.603L97.5193 186.759L32.1735 158.859Z" fill="#C7C7C7" stroke="#798E7F" stroke-width="2"/>
<path d="M1.6502 174.548L103.435 40.2887L200.319 66.036L98.6985 208.894L1.6502 174.548Z" fill="#F7F7F5" stroke="#798E7F" stroke-width="2"/>
<path d="M85.4455 81.3331L103.341 56.6335L139.267 64.898L117.78 93.7303L85.4455 81.3331Z" fill="#D9D9D9" stroke="#798E7F" stroke-width="2"/>
<path d="M70.2868 97.4865L72.7382 94.6669L139.415 120.231L135.633 125.387L70.2868 97.4865Z" fill="#D9D9D9" stroke="#798E7F" stroke-width="2"/>
<path d="M55.0417 115.022L57.4931 112.202L124.169 137.766L120.387 142.922L55.0417 115.022Z" fill="#D9D9D9" stroke="#798E7F" stroke-width="2"/>
<path d="M39.7961 132.556L42.2475 129.737L108.924 155.301L105.142 160.456L39.7961 132.556Z" fill="#D9D9D9" stroke="#798E7F" stroke-width="2"/>
<path d="M24.5511 150.092L27.0025 147.272L93.6788 172.836L89.8969 177.992L24.5511 150.092Z" fill="#D9D9D9" stroke="#798E7F" stroke-width="2"/>
</svg>
