<svg width="1512" height="200" viewBox="0 0 1512 200" fill="none" xmlns="http://www.w3.org/2000/svg">
<rect x="-4" y="150" width="50" height="50" fill="#F7F7F5"/>
<rect x="46" y="150" width="50" height="50" fill="#F7F7F5"/>
<rect x="195" y="150" width="50" height="50" fill="#F7F7F5"/>
<rect x="245" y="100" width="50" height="50" fill="#F7F7F5"/>
<rect x="46" y="50" width="50" height="50" fill="#F7F7F5"/>
<rect x="97" y="100" width="50" height="50" fill="#F7F7F5"/>
<rect x="-3" width="50" height="50" fill="#F7F7F5"/>
<rect x="147" y="100" width="50" height="50" fill="#F7F7F5"/>
<rect x="-4" y="100" width="50" height="50" fill="#F7F7F5"/>
<rect width="50" height="50" transform="matrix(-1 0 0 1 1515 150)" fill="#F7F7F5"/>
<rect width="50" height="50" transform="matrix(-1 0 0 1 1465 150)" fill="#F7F7F5"/>
<rect width="50" height="50" transform="matrix(-1 0 0 1 1316 150)" fill="#F7F7F5"/>
<rect width="50" height="50" transform="matrix(-1 0 0 1 1266 100)" fill="#F7F7F5"/>
<rect width="50" height="50" transform="matrix(-1 0 0 1 1465 50)" fill="#F7F7F5"/>
<rect width="50" height="50" transform="matrix(-1 0 0 1 1414 100)" fill="#F7F7F5"/>
<rect width="50" height="50" transform="matrix(-1 0 0 1 1514 0)" fill="#F7F7F5"/>
<rect width="50" height="50" transform="matrix(-1 0 0 1 1364 100)" fill="#F7F7F5"/>
<rect width="50" height="50" transform="matrix(-1 0 0 1 1515 100)" fill="#F7F7F5"/>
</svg>
