<?xml version="1.0" encoding="UTF-8"?><svg id="Layer_2" xmlns="http://www.w3.org/2000/svg" width="129" height="270" viewBox="0 0 129 270"><defs><style>.cls-1{fill:none;}.cls-1,.cls-2{stroke:#fff;stroke-miterlimit:10;stroke-width:5px;}.cls-2{fill:#fff;}</style></defs><path class="cls-1" d="M28.5,267.5c1.38-7.23,2.15-17.5-2-28-5.12-12.96-13.04-14.41-17-25-5.16-13.8.27-32.84,11-44,17.23-17.92,41.39-8.47,51-26,4.97-9.06,2.66-19.13,2-22-4.37-19.04-21.64-19.36-36-42-4.77-7.53-15.73-24.8-9-39,7.96-16.8,34.87-17.01,36-17h17"/><path class="cls-2" d="M104.5,41.5h-18c-1.06-.3-3.16-1.06-5-3-1.02-1.08-1.63-2.18-2-3V12.5c.08-.59.42-2.42,2-4,.42-.42,1.79-1.68,4-2,6.33-.33,12.67-.67,19-1v36Z"/><line class="cls-1" x1="115" y1="17.5" x2="100" y2="17.5"/><line class="cls-1" x1="115" y1="30.5" x2="100" y2="30.5"/></svg>