<?xml version="1.0" encoding="UTF-8"?><svg id="Layer_1" xmlns="http://www.w3.org/2000/svg" width="328" height="452" viewBox="0 0 328 452"><defs><style>.cls-1{fill:#fff;}.cls-1,.cls-2{stroke:#fff;stroke-miterlimit:10;stroke-width:3px;}.cls-2{fill:none;}</style></defs><path class="cls-2" d="M51.5,419.5c153.58-48.21-45.77-153.28,98-188,25.2-3.85,35.62,1.49,45-27-1.25-37.41-50.03-48.06-69-65-51.42-54.59,31.28-86.59,88-74"/><path class="cls-1" d="M223.5,44.5h15v39h-15c-1.34-.19-4.21-.78-7-3-2.24-1.78-3.43-3.82-4-5v-22c.75-1.34,2-3.21,4-5,2.64-2.36,5.35-3.47,7-4Z"/><path class="cls-2" d="M251.5,55.5h-15.5"/><path class="cls-2" d="M251.5,73.5h-15.5"/></svg>