<?xml version="1.0" encoding="UTF-8"?><svg id="Layer_2" xmlns="http://www.w3.org/2000/svg" width="129" height="270" viewBox="0 0 129 270"><defs><style>.cls-1{fill:none;}.cls-1,.cls-2{stroke:#fff;stroke-miterlimit:10;stroke-width:5px;}.cls-2{fill:#fff;}</style></defs><path class="cls-1" d="M.5,231.5c10.38,2.15,50.09-7.8,49-36-1.02-7.54-6.44-8.34-13-21-6.14-12.68-10.13-21.53,0-38,11.21-18.23,35.89-7.96,45.6-23.02,4.39-6.81,4.94-16.89,1.41-23.98-6.69-13.42-24.49-8.97-36-25-1.1-1.53-8.39-11.69-5.94-20.9,3.42-12.83,25.18-21.58,53.94-19.1"/><path class="cls-2" d="M118.5,41.5h-18c-1.06-.3-3.16-1.06-5-3-1.02-1.08-1.63-2.18-2-3V12.5c.08-.59.42-2.42,2-4,.42-.42,1.79-1.68,4-2,6.33-.33,12.67-.67,19-1v36Z"/><line class="cls-1" x1="129" y1="17.5" x2="114" y2="17.5"/><line class="cls-1" x1="129" y1="30.5" x2="114" y2="30.5"/></svg>