<?xml version="1.0" encoding="UTF-8"?><svg id="Layer_1" xmlns="http://www.w3.org/2000/svg" width="180" height="180" viewBox="0 0 180 180"><defs><style>.cls-1{fill:#798e7f;}</style></defs><path class="cls-1" d="M58.52,169.94v-64.01H25.47c-1.72,0-3.36-.51-4.58-1.4-1.21-.9-1.9-2.12-1.9-3.39v-25.32c0-1.27.68-2.49,1.9-3.39,1.21-.9,2.86-1.4,4.58-1.4h32.92v-24.51c-.79-5.81.15-11.68,2.75-17.2,2.6-5.51,6.8-10.54,12.29-14.72,5.5-4.18,12.17-7.42,19.54-9.5,7.37-2.07,15.26-2.92,23.12-2.49h27.54c1.73,0,3.4.5,4.63,1.4,1.24.9,1.95,2.12,1.98,3.41v21.44c-.04,1.28-.75,2.5-1.99,3.4-1.24.9-2.9,1.4-4.63,1.4h-17.22c-18.59,0-22.17,6.53-22.17,16.13v21.23h44.2c.92-.02,1.83.1,2.68.37.85.27,1.6.67,2.22,1.17.62.5,1.08,1.1,1.35,1.75.27.65.35,1.34.23,2.01l-4,25.41c-.2,1.16-.97,2.23-2.16,3-1.19.77-2.73,1.19-4.31,1.18h-39.94v64.01c.02,1.13-.26,2.25-.84,3.3s-1.43,2-2.51,2.8c-1.08.8-2.36,1.43-3.78,1.85-1.42.42-2.93.63-4.46.62h-23c-1.51,0-3.01-.22-4.41-.65-1.4-.43-2.67-1.06-3.73-1.86s-1.9-1.75-2.47-2.79c-.57-1.04-.84-2.15-.82-3.27Z"/></svg>