<svg width="47" height="50" viewBox="0 0 47 50" fill="none" xmlns="http://www.w3.org/2000/svg">
<path d="M18.8039 43.8045V28.6503H13.3519C13.0688 28.6503 12.7974 28.5307 12.5972 28.3178C12.3971 28.1049 12.2846 27.8161 12.2846 27.5149V21.5212C12.2846 21.22 12.3971 20.9312 12.5972 20.7183C12.7974 20.5054 13.0688 20.3858 13.3519 20.3858H18.7824V14.5837C18.6525 13.2077 18.8073 11.8182 19.236 10.5128C19.6647 9.20727 20.3569 8.01747 21.2639 7.02692C22.171 6.03637 23.2709 5.26909 24.4864 4.77898C25.7019 4.28887 27.0035 4.08781 28.2999 4.18993H32.8432C33.1289 4.18933 33.4035 4.30826 33.6075 4.52106C33.8116 4.73387 33.9288 5.02348 33.934 5.32743V10.4024C33.9278 10.7058 33.8102 10.9946 33.6063 11.2068C33.4024 11.4191 33.1285 11.5379 32.8432 11.5378H30.0036C26.9369 11.5378 26.3474 13.0837 26.3474 15.3566V20.3837H33.6383C33.7898 20.3783 33.9406 20.4082 34.0802 20.4711C34.2198 20.5341 34.3448 20.6286 34.4466 20.7482C34.5483 20.8677 34.6244 21.0094 34.6695 21.1634C34.7145 21.3174 34.7275 21.48 34.7075 21.6399L34.0476 27.6566C34.0145 27.9322 33.8876 28.1853 33.6909 28.368C33.4943 28.5508 33.2414 28.6505 32.9803 28.6483H26.3924V43.8024C26.3961 44.0702 26.3493 44.336 26.2546 44.5841C26.1599 44.8322 26.0194 45.0575 25.8413 45.2468C25.6633 45.436 25.4513 45.5853 25.218 45.6858C24.9846 45.7862 24.7347 45.8358 24.4831 45.8316H20.6898C20.4401 45.8325 20.1927 45.7804 19.9621 45.6784C19.7316 45.5765 19.5224 45.4267 19.3468 45.2378C19.1712 45.0489 19.0328 44.8246 18.9396 44.5782C18.8464 44.3318 18.8003 44.0701 18.8039 43.8045Z" fill="#798E7F"/>
</svg>
