<svg width="47" height="50" viewBox="0 0 47 50" fill="none" xmlns="http://www.w3.org/2000/svg">
<path d="M13.5908 10.4168C13.5903 11.5219 13.1772 12.5815 12.4423 13.3625C11.7074 14.1435 10.711 14.5819 9.67222 14.5814C8.63345 14.5808 7.63744 14.1413 6.90329 13.3595C6.16914 12.5777 5.75699 11.5177 5.75751 10.4126C5.75803 9.30756 6.17117 8.24797 6.90606 7.46696C7.64094 6.68595 8.63737 6.24749 9.67613 6.24805C10.7149 6.2486 11.7109 6.68812 12.4451 7.46991C13.1792 8.2517 13.5914 9.31173 13.5908 10.4168ZM13.7083 17.6668H5.87501V43.7501H13.7083V17.6668ZM26.085 17.6668H18.2908V43.7501H26.0067V30.0626C26.0067 22.4376 35.3479 21.7293 35.3479 30.0626V43.7501H43.0833V27.2293C43.0833 14.3751 29.2575 14.8543 26.0067 21.1668L26.085 17.6668Z" fill="#798E7F"/>
</svg>
