<svg width="121" height="132" viewBox="0 0 121 132" fill="none" xmlns="http://www.w3.org/2000/svg">
<rect width="22.1675" height="26.5196" transform="matrix(-0.00213983 0.999998 -0.999998 -0.00209536 18.567 109.118)" fill="#23483B"/>
<rect width="22.1675" height="26.5196" transform="matrix(-0.00213983 0.999998 -0.999998 -0.00209536 45.0869 109.174)" fill="#23483B"/>
<rect width="22.1675" height="26.5196" transform="matrix(-0.00213983 0.999998 -0.999998 -0.00209536 68.4715 87.0557)" fill="#23483B"/>
<rect width="22.1675" height="26.5196" transform="matrix(-0.00213983 0.999998 -0.999998 -0.00209536 18.6576 66.5569)" fill="#23483B"/>
<rect width="22.1675" height="26.5196" transform="matrix(-0.00213983 0.999998 -0.999998 -0.00209536 45.2246 44.4456)" fill="#23483B"/>
<rect width="22.1675" height="26.5196" transform="matrix(-0.00213983 0.999998 -0.999998 -0.00209536 18.752 22.2224)" fill="#23483B"/>
<rect width="22.1675" height="26.5196" transform="matrix(-0.00213983 0.999998 -0.999998 -0.00209536 18.7992 0.0554199)" fill="#23483B"/>
<rect width="22.1675" height="26.5196" transform="matrix(-0.00213983 0.999998 -0.999998 -0.00209536 68.4243 109.223)" fill="#23483B"/>
<rect width="22.1675" height="26.5196" transform="matrix(-0.00218277 0.999998 -0.999998 -0.00205536 120.403 109.332)" fill="#23483B"/>
</svg>
