<svg width="47" height="50" viewBox="0 0 47 50" fill="none" xmlns="http://www.w3.org/2000/svg">
<path d="M32.5083 12.125C31.17 10.499 30.4323 8.41125 30.4325 6.25H24.3813V32.0833C24.3355 33.4816 23.7811 34.8064 22.8348 35.7781C21.8885 36.7498 20.6244 37.2925 19.3092 37.2917C16.5283 37.2917 14.2175 34.875 14.2175 31.875C14.2175 28.2917 17.4683 25.6042 20.8171 26.7083V20.125C14.0608 19.1667 8.14667 24.75 8.14667 31.875C8.14667 38.8125 13.5517 43.75 19.2896 43.75C25.4388 43.75 30.4325 38.4375 30.4325 31.875V18.7708C32.8863 20.6455 35.8323 21.6513 38.8533 21.6458V15.2083C38.8533 15.2083 35.1717 15.3958 32.5083 12.125Z" fill="#798E7F"/>
</svg>
