<?xml version="1.0" encoding="UTF-8"?><svg id="Layer_1" xmlns="http://www.w3.org/2000/svg" width="180" height="180" viewBox="0 0 180 180"><defs><style>.cls-1{fill:#798e7f;}</style></defs><path class="cls-1" d="M139.8,29.96c-7.43-7.6-11.52-17.36-11.52-27.46h-33.57v120.75c-.25,6.54-3.33,12.73-8.58,17.27-5.25,4.54-12.26,7.08-19.56,7.07-15.43,0-28.25-11.3-28.25-25.32,0-16.75,18.04-29.31,36.62-24.15v-30.77C37.44,62.88,4.63,88.97,4.63,122.28s29.99,55.51,61.82,55.51c34.12,0,61.82-24.83,61.82-55.51v-61.25c13.61,8.76,29.96,13.46,46.72,13.44v-30.09s-20.43.88-35.2-14.41Z"/></svg>